<svg aria-hidden="true" style="position: absolute; width: 0; height: 0; overflow: hidden;" version="1.1" xmlns="http://www.w3.org/2000/svg" xmlns:xlink="http://www.w3.org/1999/xlink">
<defs>
<symbol id="icon-file" viewBox="0 0 25 32">
<path d="M1.037 1.333v-0.889c-0.491 0-0.889 0.398-0.889 0.889h0.889zM23.852 30.667v0.889c0.491 0 0.889-0.398 0.889-0.889h-0.889zM1.037 30.667h-0.889c0 0.491 0.398 0.889 0.889 0.889v-0.889zM15.704 1.333l0.628-0.629c-0.167-0.167-0.393-0.26-0.629-0.26v0.889zM23.852 9.481h0.889c0-0.236-0.094-0.462-0.26-0.629l-0.628 0.629zM23.852 29.778h-22.815v1.778h22.815v-1.778zM1.926 30.667v-29.333h-1.778v29.333h1.778zM1.037 2.222h14.667v-1.778h-14.667v1.778zM22.963 9.481v21.185h1.778v-21.185h-1.778zM15.075 1.962l8.148 8.148 1.257-1.257-8.148-8.148-1.257 1.257zM13.185 1.333v6.519h1.778v-6.519h-1.778zM17.333 12h6.519v-1.778h-6.519v1.778zM13.185 7.852c0 2.291 1.857 4.148 4.148 4.148v-1.778c-1.309 0-2.37-1.061-2.37-2.37h-1.778z"></path>
</symbol>
</defs>
</svg>
