<svg aria-hidden="true" style="position: absolute; width: 0; height: 0; overflow: hidden;" version="1.1" xmlns="http://www.w3.org/2000/svg" xmlns:xlink="http://www.w3.org/1999/xlink">
<defs>
<symbol id="icon-mail" viewBox="0 0 48 32">
<path d="M1.531 3.429l20 10.744c0.672 0.36 1.541 0.531 2.416 0.531s1.744-0.171 2.416-0.531l20-10.744c1.304-0.701 2.536-3.429 0.144-3.429h-45.117c-2.392 0-1.16 2.728 0.141 3.429zM46.968 9.304l-20.605 10.739c-0.907 0.475-1.541 0.531-2.416 0.531s-1.509-0.056-2.416-0.531c-0.907-0.475-19.021-9.971-20.501-10.741-1.040-0.544-1.029 0.093-1.029 0.584v19.448c0 1.12 1.509 2.667 2.667 2.667h42.667c1.157 0 2.667-1.547 2.667-2.667v-19.445c0-0.491 0.011-1.128-1.032-0.584z"></path>
</symbol>
<symbol id="icon-phone" viewBox="0 0 40 32">
<path d="M34.512 20.506c-0.192-1.334-1.222-2.374-2.548-2.684-5.154-1.208-6.446-4.176-6.664-7.468-0.914-0.17-2.54-0.354-5.3-0.354s-4.386 0.184-5.3 0.354c-0.218 3.292-1.51 6.26-6.664 7.468-1.326 0.312-2.356 1.35-2.548 2.684l-0.994 6.884c-0.35 2.424 1.43 4.61 3.906 4.61h23.2c2.474 0 4.256-2.186 3.906-4.61l-0.994-6.884zM20 26.984c-2.79 0-5.052-2.24-5.052-5s2.262-5 5.052-5c2.79 0 5.052 2.24 5.052 5s-2.264 5-5.052 5zM39.9 8c-0.048-3-7.684-7.998-19.9-8-12.218 0.002-19.854 5-19.9 8s0.042 6.904 5.070 6.254c5.882-0.762 5.52-2.816 5.52-5.752 0-2.048 4.784-2.542 9.31-2.542s9.308 0.494 9.31 2.542c0 2.936-0.362 4.99 5.52 5.752 5.026 0.65 5.116-3.254 5.070-6.254z"></path>
</symbol>
</defs>
</svg>