<?xml version="1.0" encoding="utf-8"?>
<!-- Generator: Adobe Illustrator 25.1.0, SVG Export Plug-In . SVG Version: 6.00 Build 0)  -->
<svg version="1.1" id="Слой_1" xmlns="http://www.w3.org/2000/svg" xmlns:xlink="http://www.w3.org/1999/xlink" x="0px" y="0px"
	 viewBox="0 0 190 75" style="enable-background:new 0 0 190 75;" xml:space="preserve">
<style type="text/css">
	.st0{fill:#181716;}
	.st1{fill-rule:evenodd;clip-rule:evenodd;fill:#868786;}
	.st2{fill-rule:evenodd;clip-rule:evenodd;fill:#181716;}
	.st3{fill:#868786;}
</style>
<g>
	<g>
		<g>
			<g>
				<path class="st0" d="M24.6,66.2c1.5,0.9,3.5,1.3,6.1,1.3c2.1,0,3.7-0.3,5-0.9s1.9-1.5,1.9-2.6c0-0.7-0.3-1.3-1-1.7
					s-1.8-0.8-3.3-1.1s-3.9-0.7-7.2-1.2s-6-1.2-8.1-1.9s-3.9-1.8-5.2-3.3s-2-3.4-2-5.8c0-2.2,0.8-4.2,2.5-5.9
					c1.7-1.8,3.9-3.1,6.9-4.2c2.9-1,6.2-1.5,9.8-1.5c3.7,0,7,0.5,10,1.5s5.3,2.4,7,4.3c1.7,1.8,2.6,3.8,2.6,6.1H36.8
					c-0.1-1.3-0.8-2.4-2-3.1c-1.2-0.8-2.9-1.2-5-1.2c-1.8,0-3.3,0.3-4.4,0.8c-1.1,0.6-1.7,1.4-1.7,2.5c0,0.7,0.3,1.3,1,1.7
					s1.7,0.8,3.2,1.1c1.4,0.3,3.8,0.7,7.1,1.2s6.1,1.1,8.3,1.8s4,1.8,5.3,3.2s2,3.3,2,5.7c0,2.3-0.9,4.4-2.6,6.2
					c-1.7,1.9-4.1,3.3-7.2,4.4c-3.1,1.1-6.5,1.6-10.2,1.6c-3.9,0-7.5-0.5-10.6-1.6c-3.2-1.1-5.7-2.6-7.5-4.5s-2.7-4-2.7-6.4
					l12.5,0.2C22.2,64.1,23.1,65.3,24.6,66.2z"/>
				<path class="st0" d="M63.1,37.5l7.8,25l8.3-24.9h11.2l8,24.9l8-24.9h12.9l-13.2,37H91.4l-7-22.1l-6.7,22.1H63l-13.2-37
					L63.1,37.5z"/>
				<path class="st0" d="M135.9,37.7v37H123v-37C123,37.7,135.9,37.7,135.9,37.7z"/>
				<path class="st0" d="M180.4,37.7V46h-13.2v28.8h-12.9V45.9h-13.2v-8.3L180.4,37.7L180.4,37.7z"/>
			</g>
		</g>
	</g>
	<g>
		<path class="st1" d="M140.6,30.6l33.3-17.3C171,7.9,167.1,3.4,162.2,0L140.6,30.6z"/>
		<path class="st2" d="M140.6,30.6l37.5-0.2c0-6-1.5-11.8-4.2-17.1L140.6,30.6z"/>
	</g>
	<g>
		<path class="st3" d="M51.1,26.2c0,2.4,1.3,3.6,3.9,3.6c2.6,0,4-1.2,4-3.6v-6.7h1.9v6.6c0,1.7-0.5,2.9-1.5,3.8s-2.5,1.3-4.4,1.3
			s-3.4-0.4-4.3-1.3c-1-0.9-1.5-2.1-1.5-3.8v-6.6h1.9C51.1,19.5,51.1,26.2,51.1,26.2z"/>
		<path class="st3" d="M65.6,19.4V26l7.7-6.6h2.3L70,24.3l6,6.7h-2.3l-5.2-5.6l-3,2.6v3h-1.9V19.4H65.6z"/>
		<path class="st3" d="M86.3,19.9c0.8,0.3,1.4,0.7,1.8,1.2s0.6,1.2,0.6,1.9c0,0.8-0.3,1.5-0.9,2.1s-1.4,1-2.4,1.2l3.4,4.7h-2.1
			l-3.2-4.5h-3.9V31h-1.9V19.4h5.9C84.6,19.4,85.5,19.6,86.3,19.9z M83.4,25.3c1,0,1.8-0.2,2.4-0.6s0.9-1,0.9-1.6
			c0-0.7-0.3-1.2-0.9-1.6s-1.4-0.6-2.4-0.6h-3.8v4.5L83.4,25.3L83.4,25.3z"/>
		<path class="st3" d="M95.4,19.4h2.3l5.8,11.6h-2l-1.6-3.1h-6.7L91.5,31h-2L95.4,19.4z M99.2,26.6L96.5,21l-2.8,5.6H99.2z"/>
		<path class="st3" d="M107.1,19.4V31h-1.9V19.4H107.1z"/>
		<path class="st3" d="M110.1,19.4h1.8l8.2,9v-9h1.9V31h-1.8l-8.2-9v9h-1.9V19.4z"/>
		<path class="st3" d="M134.7,19.4v1.3h-7.9v3.7h6.5v1.3h-6.5v3.9h8.1V31h-10.1V19.4H134.7z"/>
	</g>
</g>
</svg>
