<svg aria-hidden="true" style="position: absolute; width: 0; height: 0; overflow: hidden;" version="1.1" xmlns="http://www.w3.org/2000/svg" xmlns:xlink="http://www.w3.org/1999/xlink">
<defs>
<symbol id="icon-menu-btn" viewBox="0 0 38 32">
<path d="M0.941 0h35.765c0.52 0 0.941 0.421 0.941 0.941s-0.421 0.941-0.941 0.941h-35.765c-0.52 0-0.941-0.421-0.941-0.941s0.421-0.941 0.941-0.941z"></path>
<path d="M0.941 15.059h24.471c0.52 0 0.941 0.421 0.941 0.941s-0.421 0.941-0.941 0.941h-24.471c-0.52 0-0.941-0.421-0.941-0.941s0.421-0.941 0.941-0.941z"></path>
<path d="M0.941 30.118h35.765c0.52 0 0.941 0.421 0.941 0.941s-0.421 0.941-0.941 0.941h-35.765c-0.52 0-0.941-0.421-0.941-0.941s0.421-0.941 0.941-0.941z"></path>
</symbol>
<symbol id="icon-cross" viewBox="0 0 32 32">
<path d="M4.243 1.698l25.456 25.456c0.781 0.781 0.781 2.047 0 2.828s-2.047 0.781-2.828 0l-25.456-25.456c-0.781-0.781-0.781-2.047 0-2.828s2.047-0.781 2.828 0z"></path>
<path d="M1.414 26.87l25.456-25.456c0.781-0.781 2.047-0.781 2.828 0s0.781 2.047 0 2.828l-25.456 25.456c-0.781 0.781-2.047 0.781-2.828 0s-0.781-2.047 0-2.828z"></path>
</symbol>
<symbol id="icon-arrow" viewBox="0 0 18 32">
<path d="M17.419 15.122l-14.801-14.76c-0.485-0.483-1.27-0.482-1.754 0.003s-0.482 1.27 0.002 1.754l13.92 13.881-13.92 13.882c-0.485 0.484-0.486 1.269-0.002 1.754 0.243 0.243 0.561 0.365 0.879 0.365s0.634-0.121 0.876-0.362l14.801-14.76c0.234-0.232 0.365-0.549 0.365-0.878s-0.131-0.645-0.365-0.878z"></path>
</symbol>
</defs>
</svg>