<svg aria-hidden="true" style="position: absolute; width: 0; height: 0; overflow: hidden;" version="1.1" xmlns="http://www.w3.org/2000/svg" xmlns:xlink="http://www.w3.org/1999/xlink">
<defs>
<symbol id="icon-nav-phone" viewBox="0 0 32 32">
<path d="M6.519 21.271c3.156 3.773 6.956 6.744 11.292 8.845 1.651 0.782 3.859 1.711 6.319 1.87 0.153 0.007 0.298 0.013 0.451 0.013 1.651 0 2.977-0.57 4.058-1.744 0.007-0.007 0.020-0.020 0.026-0.033 0.385-0.464 0.822-0.882 1.28-1.326 0.312-0.298 0.63-0.61 0.935-0.928 1.412-1.472 1.412-3.342-0.013-4.768l-3.985-3.985c-0.676-0.703-1.485-1.074-2.334-1.074s-1.664 0.371-2.361 1.068l-2.374 2.374c-0.219-0.126-0.444-0.239-0.656-0.345-0.265-0.133-0.511-0.259-0.729-0.398-2.162-1.373-4.124-3.163-6.001-5.464-0.948-1.2-1.585-2.208-2.029-3.236 0.623-0.564 1.207-1.154 1.77-1.731 0.199-0.206 0.404-0.411 0.61-0.617 0.716-0.716 1.101-1.545 1.101-2.387s-0.378-1.671-1.101-2.387l-1.976-1.976c-0.232-0.232-0.451-0.458-0.676-0.69-0.438-0.451-0.895-0.915-1.346-1.333-0.683-0.67-1.485-1.021-2.334-1.021-0.842 0-1.651 0.351-2.361 1.028l-2.48 2.48c-0.902 0.902-1.412 1.996-1.518 3.262-0.126 1.585 0.166 3.269 0.922 5.305 1.16 3.15 2.911 6.074 5.51 9.197zM1.705 6.909c0.080-0.882 0.418-1.618 1.054-2.254l2.467-2.467c0.385-0.371 0.809-0.564 1.22-0.564 0.404 0 0.816 0.192 1.194 0.577 0.444 0.411 0.862 0.842 1.313 1.3 0.225 0.232 0.458 0.464 0.69 0.703l1.976 1.976c0.411 0.411 0.623 0.829 0.623 1.24s-0.212 0.829-0.623 1.24c-0.206 0.206-0.411 0.418-0.617 0.623-0.617 0.623-1.194 1.213-1.83 1.777-0.013 0.013-0.020 0.020-0.033 0.033-0.55 0.55-0.464 1.074-0.332 1.472 0.007 0.020 0.013 0.033 0.020 0.053 0.511 1.227 1.22 2.394 2.327 3.786 1.989 2.453 4.085 4.356 6.392 5.822 0.285 0.186 0.59 0.332 0.875 0.477 0.265 0.133 0.511 0.259 0.729 0.398 0.027 0.013 0.046 0.026 0.073 0.040 0.219 0.113 0.431 0.166 0.643 0.166 0.531 0 0.875-0.338 0.988-0.451l2.48-2.48c0.385-0.384 0.802-0.59 1.213-0.59 0.504 0 0.915 0.312 1.174 0.59l3.998 3.992c0.796 0.796 0.789 1.658-0.020 2.5-0.278 0.298-0.57 0.584-0.882 0.882-0.464 0.451-0.948 0.915-1.386 1.439-0.763 0.822-1.671 1.207-2.845 1.207-0.113 0-0.232-0.007-0.345-0.013-2.175-0.139-4.197-0.988-5.716-1.711-4.124-1.996-7.745-4.827-10.748-8.421-2.473-2.977-4.138-5.749-5.238-8.72-0.683-1.823-0.942-3.289-0.835-4.622z"></path>
</symbol>
</defs>
</svg>
