<svg aria-hidden="true" style="position: absolute; width: 0; height: 0; overflow: hidden;" version="1.1" xmlns="http://www.w3.org/2000/svg" xmlns:xlink="http://www.w3.org/1999/xlink">
<defs>
<symbol id="icon-nav-search" viewBox="0 0 32 32">
<path d="M3.606 3.604c4.777-4.79 12.533-4.801 17.323-0.024 4.622 4.609 4.818 12.033 0.445 16.879l0.935 0.935c0.756-0.756 1.981-0.756 2.737-0 0 0 0 0 0 0l6.387 6.387c0.756 0.756 0.756 1.981 0 2.737-0 0-0 0-0 0l-0.912 0.912c-0.756 0.756-1.981 0.756-2.737 0l-6.387-6.387c-0.756-0.756-0.756-1.981-0-2.737 0-0 0-0 0-0l-0.935-0.935c-5.019 4.536-12.765 4.144-17.301-0.875-4.381-4.848-4.186-12.282 0.445-16.892zM22.309 24.131l6.387 6.387c0.252 0.252 0.66 0.252 0.912 0l0.912-0.913c0.252-0.252 0.252-0.66 0-0.912l-6.387-6.387c-0.255-0.244-0.657-0.244-0.912 0l-0.912 0.913c-0.252 0.252-0.252 0.66 0 0.912zM4.518 20.026c4.283 4.283 11.227 4.283 15.51-0s4.283-11.227-0-15.51c-4.283-4.283-11.227-4.283-15.51 0-4.276 4.286-4.276 11.224 0 15.51z"></path>
</symbol>
</defs>
</svg>