<svg aria-hidden="true" style="position: absolute; width: 0; height: 0; overflow: hidden;" version="1.1" xmlns="http://www.w3.org/2000/svg" xmlns:xlink="http://www.w3.org/1999/xlink">
<defs>
<symbol id="icon-applepay" viewBox="0 0 49 32">
<path fill="#000" style="fill: var(--color1, #000)" d="M44.558 0h-40.175c-0.167 0-0.335 0-0.502 0.001-0.141 0.001-0.282 0.003-0.423 0.006-0.307 0.008-0.617 0.026-0.92 0.081-0.308 0.055-0.595 0.146-0.875 0.288-0.275 0.14-0.527 0.323-0.745 0.541s-0.401 0.47-0.541 0.745c-0.142 0.28-0.233 0.567-0.288 0.875-0.055 0.303-0.073 0.613-0.081 0.92-0.004 0.141-0.005 0.282-0.006 0.423-0.001 0.167-0.001 0.335-0.001 0.502v22.566c0 0.168-0 0.334 0.001 0.502 0.001 0.141 0.003 0.282 0.006 0.423 0.008 0.307 0.027 0.616 0.081 0.92 0.055 0.309 0.146 0.595 0.288 0.875 0.14 0.275 0.323 0.527 0.541 0.745s0.47 0.402 0.745 0.541c0.28 0.143 0.567 0.233 0.875 0.289 0.303 0.054 0.613 0.073 0.92 0.081 0.141 0.003 0.282 0.005 0.423 0.006 0.167 0.001 0.335 0.001 0.502 0.001h40.175c0.167 0 0.335 0 0.502-0.001 0.141-0.001 0.282-0.003 0.423-0.006 0.306-0.008 0.616-0.027 0.92-0.081 0.308-0.055 0.595-0.146 0.875-0.289 0.275-0.139 0.526-0.322 0.745-0.541s0.401-0.47 0.541-0.745c0.143-0.28 0.233-0.567 0.288-0.875 0.055-0.303 0.073-0.613 0.081-0.92 0.004-0.141 0.006-0.282 0.006-0.423 0.001-0.168 0.001-0.335 0.001-0.502v-22.566c0-0.168 0-0.335-0.001-0.502-0.001-0.141-0.002-0.282-0.006-0.423-0.008-0.307-0.026-0.617-0.081-0.92-0.055-0.308-0.145-0.595-0.288-0.875-0.14-0.275-0.323-0.527-0.541-0.745s-0.47-0.401-0.745-0.541c-0.28-0.142-0.567-0.233-0.875-0.288-0.304-0.055-0.614-0.073-0.92-0.081-0.142-0.004-0.283-0.005-0.423-0.006-0.167-0.001-0.335-0.001-0.502-0.001z"></path>
<path fill="#fff" style="fill: var(--color2, #fff)" d="M44.558 1.044l0.494 0.001c0.134 0.001 0.268 0.002 0.402 0.006 0.234 0.006 0.508 0.019 0.763 0.065 0.222 0.040 0.408 0.101 0.587 0.192 0.176 0.090 0.338 0.207 0.479 0.348s0.259 0.304 0.35 0.482c0.090 0.177 0.151 0.363 0.191 0.586 0.046 0.253 0.058 0.527 0.065 0.763 0.004 0.133 0.005 0.266 0.006 0.402 0.001 0.165 0.001 0.329 0.001 0.494v22.566c0 0.165 0 0.329-0.001 0.497-0.001 0.133-0.002 0.266-0.006 0.399-0.006 0.235-0.019 0.51-0.065 0.765-0.039 0.22-0.1 0.406-0.191 0.584s-0.208 0.34-0.349 0.481c-0.142 0.142-0.303 0.259-0.481 0.349-0.177 0.091-0.363 0.151-0.583 0.191-0.261 0.047-0.546 0.059-0.761 0.065-0.135 0.003-0.27 0.005-0.408 0.006-0.164 0.001-0.329 0.001-0.494 0.001h-40.175c-0.002 0-0.004 0-0.007 0-0.162 0-0.325 0-0.491-0.001-0.135-0.001-0.269-0.002-0.4-0.005-0.22-0.006-0.505-0.019-0.764-0.065-0.222-0.040-0.407-0.101-0.587-0.192-0.177-0.090-0.338-0.207-0.48-0.349-0.141-0.141-0.258-0.302-0.348-0.48s-0.151-0.364-0.191-0.587c-0.046-0.255-0.059-0.529-0.065-0.762-0.004-0.134-0.005-0.267-0.006-0.401l-0.001-0.393 0-0.104v-22.566l-0-0.104 0.001-0.392c0.001-0.134 0.002-0.268 0.006-0.401 0.006-0.234 0.019-0.507 0.065-0.765 0.040-0.221 0.1-0.407 0.191-0.586 0.090-0.177 0.207-0.338 0.349-0.48s0.302-0.258 0.48-0.349c0.178-0.091 0.364-0.151 0.586-0.191 0.255-0.046 0.53-0.059 0.764-0.065 0.134-0.004 0.268-0.005 0.4-0.006l0.496-0.001h40.175z"></path>
<path fill="#000" style="fill: var(--color1, #000)" d="M13.358 10.539c0.419-0.524 0.703-1.228 0.628-1.947-0.613 0.030-1.362 0.405-1.795 0.929-0.389 0.449-0.734 1.182-0.644 1.871 0.689 0.060 1.377-0.344 1.811-0.854z"></path>
<path fill="#000" style="fill: var(--color1, #000)" d="M13.98 11.528c-1-0.060-1.85 0.568-2.328 0.568s-1.209-0.538-2-0.523c-1.030 0.015-1.985 0.597-2.507 1.523-1.075 1.852-0.284 4.599 0.761 6.108 0.507 0.746 1.119 1.568 1.925 1.538 0.761-0.030 1.060-0.493 1.985-0.493s1.194 0.493 2 0.478c0.836-0.015 1.358-0.747 1.866-1.494 0.582-0.851 0.82-1.672 0.835-1.717-0.015-0.015-1.612-0.627-1.626-2.464-0.015-1.538 1.254-2.269 1.313-2.315-0.716-1.060-1.836-1.179-2.224-1.209z"></path>
<path fill="#000" style="fill: var(--color1, #000)" d="M22.689 9.447c2.174 0 3.687 1.498 3.687 3.68 0 2.189-1.545 3.695-3.742 3.695h-2.406v3.827h-1.739v-11.202l4.2 0zM20.228 15.362h1.995c1.514 0 2.375-0.815 2.375-2.228s-0.862-2.22-2.367-2.22h-2.003v4.448z"></path>
<path fill="#000" style="fill: var(--color1, #000)" d="M26.831 18.328c0-1.428 1.095-2.306 3.035-2.414l2.235-0.132v-0.629c0-0.908-0.613-1.452-1.638-1.452-0.971 0-1.576 0.466-1.723 1.195h-1.583c0.093-1.475 1.351-2.562 3.369-2.562 1.979 0 3.245 1.048 3.245 2.686v5.628h-1.607v-1.343h-0.039c-0.473 0.908-1.506 1.483-2.577 1.483-1.599 0-2.717-0.994-2.717-2.461zM32.102 17.59v-0.644l-2.011 0.124c-1.001 0.070-1.568 0.512-1.568 1.211 0 0.714 0.59 1.18 1.49 1.18 1.172 0 2.088-0.807 2.088-1.871z"></path>
<path fill="#000" style="fill: var(--color1, #000)" d="M35.285 23.652v-1.358c0.124 0.031 0.403 0.031 0.543 0.031 0.776 0 1.195-0.326 1.451-1.164 0-0.016 0.148-0.497 0.148-0.505l-2.95-8.174h1.816l2.065 6.645h0.031l2.065-6.645h1.77l-3.059 8.593c-0.698 1.979-1.506 2.616-3.198 2.616-0.14 0-0.559-0.016-0.683-0.039z"></path>
</symbol>
<symbol id="icon-googlepay" viewBox="0 0 60 32">
<path fill="#fff" style="fill: var(--color2, #fff)" d="M43.623 0h-27.818c-8.693 0-15.805 7.2-15.805 16s7.112 16 15.805 16h27.818c8.693 0 15.805-7.2 15.805-16s-7.112-16-15.805-16z"></path>
<path fill="#3c4043" style="fill: var(--color3, #3c4043)" d="M43.623 1.296c1.952 0 3.849 0.392 5.635 1.16 1.731 0.744 3.28 1.808 4.623 3.16 1.336 1.352 2.387 2.928 3.121 4.68 0.759 1.808 1.146 3.728 1.146 5.704s-0.387 3.896-1.146 5.704c-0.735 1.752-1.786 3.32-3.121 4.68-1.336 1.352-2.892 2.416-4.623 3.16-1.786 0.768-3.683 1.16-5.635 1.16h-27.818c-1.952 0-3.849-0.392-5.635-1.16-1.731-0.744-3.28-1.808-4.623-3.16-1.336-1.352-2.387-2.928-3.122-4.68-0.759-1.808-1.146-3.728-1.146-5.704s0.387-3.896 1.146-5.704c0.735-1.752 1.786-3.32 3.122-4.68 1.336-1.352 2.892-2.416 4.623-3.16 1.786-0.768 3.683-1.16 5.635-1.16h27.818zM43.623 0h-27.818c-8.693 0-15.805 7.2-15.805 16s7.112 16 15.805 16h27.818c8.693 0 15.805-7.2 15.805-16s-7.112-16-15.805-16z"></path>
<path fill="#3c4043" style="fill: var(--color3, #3c4043)" d="M28.337 17.136v4.84h-1.517v-11.952h4.023c1.019 0 1.889 0.344 2.6 1.032 0.727 0.688 1.091 1.528 1.091 2.52 0 1.016-0.363 1.856-1.091 2.536-0.703 0.68-1.573 1.016-2.6 1.016h-2.505v0.008zM28.337 11.496v4.168h2.537c0.601 0 1.106-0.208 1.502-0.616 0.403-0.408 0.608-0.904 0.608-1.464 0-0.552-0.205-1.040-0.608-1.448-0.395-0.424-0.893-0.632-1.502-0.632h-2.537v-0.008z"></path>
<path fill="#3c4043" style="fill: var(--color3, #3c4043)" d="M38.499 13.528c1.122 0 2.007 0.304 2.655 0.912s0.972 1.44 0.972 2.496v5.040h-1.446v-1.136h-0.063c-0.624 0.936-1.462 1.4-2.505 1.4-0.893 0-1.636-0.264-2.236-0.8s-0.901-1.2-0.901-2c0-0.848 0.316-1.52 0.948-2.016 0.632-0.504 1.478-0.752 2.529-0.752 0.901 0 1.644 0.168 2.221 0.504v-0.352c0-0.536-0.206-0.984-0.624-1.36s-0.909-0.56-1.47-0.56c-0.846 0-1.517 0.36-2.007 1.088l-1.336-0.848c0.735-1.080 1.825-1.616 3.264-1.616zM36.539 19.464c0 0.4 0.166 0.736 0.506 1 0.332 0.264 0.727 0.4 1.178 0.4 0.64 0 1.209-0.24 1.707-0.72s0.751-1.040 0.751-1.688c-0.474-0.376-1.13-0.568-1.976-0.568-0.616 0-1.13 0.152-1.541 0.448-0.419 0.312-0.624 0.688-0.624 1.128z"></path>
<path fill="#3c4043" style="fill: var(--color3, #3c4043)" d="M50.378 13.792l-5.058 11.776h-1.565l1.881-4.12-3.335-7.656h1.652l2.402 5.872h0.032l2.339-5.872h1.652z"></path>
<path fill="#4285f4" style="fill: var(--color4, #4285f4)" d="M22.303 16.161c0-0.501-0.044-0.98-0.126-1.441h-6.36v2.64l3.663 0.001c-0.149 0.878-0.627 1.627-1.359 2.126v1.713h2.18c1.273-1.193 2.002-2.956 2.002-5.039z"></path>
<path fill="#34a853" style="fill: var(--color5, #34a853)" d="M18.122 19.486c-0.607 0.415-1.389 0.657-2.303 0.657-1.766 0-3.265-1.205-3.801-2.829h-2.249v1.766c1.114 2.238 3.405 3.774 6.050 3.774 1.829 0 3.365-0.609 4.483-1.657l-2.18-1.712z"></path>
<path fill="#fabb05" style="fill: var(--color6, #fabb05)" d="M11.805 16.004c0-0.456 0.075-0.897 0.212-1.311v-1.766h-2.249c-0.461 0.926-0.72 1.97-0.72 3.078s0.26 2.152 0.72 3.078l2.249-1.766c-0.137-0.414-0.212-0.855-0.212-1.311z"></path>
<path fill="#e94235" style="fill: var(--color7, #e94235)" d="M15.819 11.865c0.998 0 1.892 0.348 2.598 1.028l1.932-1.954c-1.174-1.106-2.704-1.786-4.53-1.786-2.645 0-4.936 1.536-6.050 3.774l2.249 1.766c0.537-1.624 2.035-2.829 3.801-2.829z"></path>
</symbol>
<symbol id="icon-mastercard" viewBox="0 0 40 32">
<path fill="#000" style="fill: var(--color1, #000)" d="M7.25 30.996v-2.062c0-0.789-0.48-1.305-1.305-1.305-0.412 0-0.861 0.136-1.169 0.584-0.24-0.376-0.584-0.584-1.101-0.584-0.344 0-0.689 0.104-0.961 0.48v-0.412h-0.721v3.299h0.721v-1.821c0-0.584 0.308-0.861 0.789-0.861s0.721 0.308 0.721 0.861v1.821h0.721v-1.821c0-0.584 0.344-0.861 0.789-0.861 0.48 0 0.721 0.308 0.721 0.861v1.821h0.797zM17.939 27.697h-1.169v-0.997h-0.721v0.997h-0.652v0.652h0.652v1.513c0 0.756 0.308 1.201 1.133 1.201 0.308 0 0.652-0.104 0.893-0.24l-0.208-0.62c-0.208 0.136-0.448 0.172-0.62 0.172-0.344 0-0.48-0.208-0.48-0.548v-1.477h1.169v-0.652h0.004zM24.055 27.625c-0.412 0-0.688 0.208-0.861 0.48v-0.412h-0.721v3.299h0.721v-1.857c0-0.548 0.24-0.861 0.688-0.861 0.136 0 0.308 0.036 0.448 0.068l0.208-0.689c-0.144-0.028-0.348-0.028-0.484-0.028zM14.812 27.969c-0.344-0.24-0.825-0.344-1.341-0.344-0.825 0-1.373 0.412-1.373 1.065 0 0.548 0.412 0.861 1.133 0.961l0.344 0.036c0.376 0.068 0.584 0.172 0.584 0.344 0 0.24-0.276 0.412-0.757 0.412s-0.861-0.172-1.101-0.344l-0.344 0.548c0.376 0.276 0.893 0.412 1.409 0.412 0.961 0 1.513-0.448 1.513-1.065 0-0.584-0.448-0.893-1.133-0.997l-0.344-0.036c-0.308-0.036-0.548-0.104-0.548-0.308 0-0.24 0.24-0.376 0.62-0.376 0.412 0 0.825 0.172 1.033 0.276l0.304-0.584zM33.983 27.625c-0.412 0-0.689 0.208-0.861 0.48v-0.412h-0.721v3.299h0.721v-1.857c0-0.548 0.24-0.861 0.688-0.861 0.136 0 0.308 0.036 0.448 0.068l0.208-0.68c-0.14-0.036-0.344-0.036-0.484-0.036zM24.776 29.347c0 0.997 0.688 1.717 1.753 1.717 0.48 0 0.825-0.104 1.169-0.376l-0.344-0.584c-0.276 0.208-0.548 0.308-0.861 0.308-0.584 0-0.997-0.412-0.997-1.065 0-0.62 0.412-1.033 0.997-1.065 0.308 0 0.584 0.104 0.861 0.308l0.344-0.584c-0.344-0.276-0.688-0.376-1.169-0.376-1.065-0.004-1.753 0.721-1.753 1.717zM31.441 29.347v-1.649h-0.72v0.412c-0.24-0.308-0.584-0.48-1.033-0.48-0.929 0-1.649 0.721-1.649 1.717s0.721 1.717 1.649 1.717c0.48 0 0.825-0.172 1.033-0.48v0.412h0.72v-1.649zM28.795 29.347c0-0.584 0.376-1.065 0.997-1.065 0.584 0 0.997 0.448 0.997 1.065 0 0.584-0.412 1.065-0.997 1.065-0.616-0.036-0.997-0.484-0.997-1.065zM20.172 27.625c-0.961 0-1.649 0.689-1.649 1.717 0 1.033 0.688 1.717 1.685 1.717 0.48 0 0.961-0.136 1.341-0.448l-0.344-0.516c-0.276 0.208-0.62 0.344-0.961 0.344-0.448 0-0.893-0.208-0.997-0.789h2.438c0-0.104 0-0.172 0-0.276 0.032-1.061-0.588-1.749-1.513-1.749zM20.172 28.246c0.448 0 0.757 0.276 0.825 0.789h-1.717c0.068-0.444 0.376-0.789 0.893-0.789zM38.075 29.347v-2.954h-0.72v1.717c-0.24-0.308-0.584-0.48-1.033-0.48-0.929 0-1.649 0.721-1.649 1.717s0.721 1.717 1.649 1.717c0.48 0 0.825-0.172 1.033-0.48v0.412h0.72v-1.649zM35.428 29.347c0-0.584 0.376-1.065 0.997-1.065 0.584 0 0.997 0.448 0.997 1.065 0 0.584-0.412 1.065-0.997 1.065-0.62-0.036-0.997-0.484-0.997-1.065zM11.305 29.347v-1.649h-0.721v0.412c-0.24-0.308-0.584-0.48-1.033-0.48-0.929 0-1.649 0.721-1.649 1.717s0.721 1.717 1.649 1.717c0.48 0 0.825-0.172 1.033-0.48v0.412h0.721v-1.649zM8.627 29.347c0-0.584 0.376-1.065 0.997-1.065 0.584 0 0.997 0.448 0.997 1.065 0 0.584-0.412 1.065-0.997 1.065-0.62-0.036-0.997-0.484-0.997-1.065z"></path>
<path fill="#ff5a00" style="fill: var(--color8, #ff5a00)" d="M25.393 2.647h-10.825v19.448h10.825v-19.448z"></path>
<path fill="#eb001b" style="fill: var(--color9, #eb001b)" d="M15.292 12.37c0-3.951 1.858-7.458 4.708-9.724-2.098-1.649-4.744-2.646-7.63-2.646-6.837 0-12.37 5.532-12.37 12.37s5.532 12.37 12.37 12.37c2.886 0 5.532-0.997 7.63-2.646-2.854-2.234-4.708-5.772-4.708-9.724z"></path>
<path fill="#f79e1b" style="fill: var(--color10, #f79e1b)" d="M40 12.37c0 6.837-5.532 12.37-12.37 12.37-2.886 0-5.532-0.997-7.63-2.646 2.886-2.27 4.708-5.772 4.708-9.724s-1.858-7.458-4.708-9.724c2.094-1.649 4.74-2.646 7.626-2.646 6.841 0 12.374 5.568 12.374 12.37z"></path>
</symbol>
<symbol id="icon-visa" viewBox="0 0 99 32">
<path fill="#00579f" style="fill: var(--color11, #00579f)" d="M42.847 31.539h-8.010l5.010-30.977h8.009l-5.010 30.977z"></path>
<path fill="#00579f" style="fill: var(--color11, #00579f)" d="M71.883 1.319c-1.58-0.627-4.085-1.319-7.184-1.319-7.91 0-13.48 4.218-13.514 10.248-0.066 4.449 3.988 6.92 7.020 8.404 3.099 1.516 4.152 2.505 4.152 3.857-0.032 2.075-2.504 3.032-4.81 3.032-3.198 0-4.911-0.493-7.515-1.648l-1.055-0.495-1.121 6.954c1.878 0.856 5.34 1.615 8.933 1.649 8.404 0 13.876-4.153 13.94-10.579 0.032-3.526-2.108-6.228-6.723-8.436-2.801-1.417-4.517-2.373-4.517-3.823 0.033-1.318 1.451-2.669 4.613-2.669 2.604-0.066 4.517 0.56 5.966 1.186l0.724 0.329 1.089-6.689z"></path>
<path fill="#00579f" style="fill: var(--color11, #00579f)" d="M82.53 20.565c0.66-1.78 3.198-8.667 3.198-8.667-0.033 0.066 0.658-1.812 1.054-2.966l0.56 2.669c0 0 1.517 7.415 1.846 8.964-1.252 0-5.076 0-6.658 0zM92.417 0.563h-6.196c-1.91 0-3.362 0.56-4.186 2.57l-11.897 28.406h8.404c0 0 1.384-3.823 1.681-4.647 0.922 0 9.098 0 10.284 0 0.23 1.088 0.956 4.647 0.956 4.647h7.416l-6.462-30.976z"></path>
<path fill="#00579f" style="fill: var(--color11, #00579f)" d="M28.144 0.563l-7.844 21.123-0.857-4.284c-1.45-4.943-5.998-10.314-11.074-12.984l7.185 27.089h8.47l12.59-30.944h-8.47z"></path>
<path fill="#faa61a" style="fill: var(--color12, #faa61a)" d="M13.019 0.563h-12.887l-0.132 0.626c10.052 2.571 16.71 8.767 19.445 16.215l-2.801-14.237c-0.461-1.978-1.879-2.539-3.625-2.604z"></path>
</symbol>
</defs>
</svg>