<svg aria-hidden="true" style="position: absolute; width: 0; height: 0; overflow: hidden;" version="1.1" xmlns="http://www.w3.org/2000/svg" xmlns:xlink="http://www.w3.org/1999/xlink">
<defs>
<symbol id="icon-like" viewBox="0 0 32 32">
<path d="M28.651 4.64c-1.461-1.791-3.489-2.777-5.709-2.777-3.122 0-5.099 2.014-6.207 3.703-0.288 0.438-0.532 0.878-0.738 1.292-0.205-0.414-0.45-0.853-0.738-1.292-1.108-1.689-3.085-3.703-6.207-3.703-2.22 0-4.247 0.986-5.709 2.777-1.394 1.708-2.162 3.996-2.162 6.442 0 2.663 0.963 5.139 3.029 7.794 1.847 2.372 4.504 4.818 7.581 7.65 1.147 1.055 2.332 2.146 3.595 3.339l0.038 0.036c0.164 0.155 0.368 0.232 0.572 0.232s0.408-0.077 0.572-0.232l0.038-0.036c1.262-1.193 2.448-2.284 3.595-3.339 3.077-2.832 5.734-5.277 7.581-7.65 2.067-2.655 3.029-5.131 3.029-7.794 0-2.446-0.768-4.734-2.162-6.443zM19.077 25.099c-0.988 0.91-2.006 1.846-3.078 2.853-1.073-1.007-2.090-1.943-3.078-2.853-6.022-5.542-10-9.203-10-14.016 0-1.989 0.614-3.837 1.728-5.203 1.127-1.381 2.692-2.142 4.406-2.142 2.38 0 3.919 1.584 4.79 2.912 0.782 1.192 1.19 2.393 1.329 2.854 0.116 0.386 0.45 0.647 0.825 0.647s0.709-0.261 0.825-0.647c0.139-0.461 0.547-1.662 1.329-2.854 0.872-1.328 2.41-2.912 4.79-2.912 1.714 0 3.279 0.761 4.406 2.142 1.114 1.366 1.728 3.213 1.728 5.203 0 4.813-3.978 8.474-10 14.016z"></path>
</symbol>
<symbol id="icon-compare" viewBox="0 0 32 32">
<path d="M24.313 4.364c-0.459 0-0.831 0.372-0.831 0.831v3.036c-4.279-4.143-11.107-4.032-15.249 0.247-1.952 2.017-3.042 4.715-3.036 7.522 0 0.459 0.372 0.831 0.831 0.831s0.831-0.372 0.831-0.831c0.001-5.049 4.095-9.142 9.145-9.141 2.564 0 5.011 1.078 6.742 2.97l-3.682 1.228c-0.436 0.145-0.672 0.616-0.527 1.052s0.616 0.672 1.052 0.527l4.987-1.662c0.34-0.113 0.57-0.432 0.569-0.791v-4.987c0-0.459-0.372-0.831-0.831-0.831z"></path>
<path d="M25.975 15.168c-0.459 0-0.831 0.372-0.831 0.831-0.001 5.049-4.095 9.142-9.145 9.141-2.564-0-5.011-1.078-6.742-2.97l3.682-1.228c0.436-0.145 0.672-0.616 0.527-1.052s-0.616-0.672-1.052-0.527l-4.987 1.662c-0.34 0.113-0.57 0.432-0.569 0.791v4.987c0 0.459 0.372 0.831 0.831 0.831s0.831-0.372 0.831-0.831v-3.036c4.279 4.143 11.107 4.032 15.249-0.247 1.952-2.017 3.042-4.715 3.036-7.522 0-0.459-0.372-0.831-0.831-0.831z"></path>
</symbol>
</defs>
</svg>

