<svg aria-hidden="true" style="position: absolute; width: 0; height: 0; overflow: hidden;" version="1.1" xmlns="http://www.w3.org/2000/svg" xmlns:xlink="http://www.w3.org/1999/xlink">
<defs>
<symbol id="icon-facebook" viewBox="0 0 19 32">
<path fill="#3d549f" style="fill: var(--color1, #3d549f)" d="M12.022 31.595v-14.206h4.793l0.712-5.562h-5.505v-3.543c0-1.605 0.447-2.704 2.751-2.704h2.919v-4.959c-1.42-0.152-2.848-0.226-4.276-0.22-4.236 0-7.145 2.586-7.145 7.334v4.082h-4.761v5.562h4.772v14.217h5.741z"></path>
</symbol>
<symbol id="icon-instagram" viewBox="0 0 32 32">
<path fill="#db1844" style="fill: var(--color2, #db1844)" d="M16.004 0.865c-6.501 0-8.402 0.007-8.772 0.037-1.334 0.111-2.164 0.321-3.069 0.771-0.697 0.346-1.247 0.747-1.789 1.31-0.988 1.026-1.587 2.287-1.804 3.787-0.105 0.728-0.136 0.877-0.142 4.596-0.002 1.24 0 2.871 0 5.060 0 6.496 0.007 8.395 0.038 8.764 0.108 1.298 0.311 2.115 0.743 3.009 0.824 1.71 2.398 2.994 4.252 3.473 0.642 0.165 1.351 0.256 2.261 0.299 0.386 0.017 4.316 0.029 8.249 0.029s7.866-0.005 8.242-0.024c1.054-0.050 1.666-0.132 2.343-0.307 0.919-0.236 1.776-0.669 2.51-1.27s1.329-1.355 1.741-2.21c0.423-0.872 0.637-1.72 0.734-2.95 0.021-0.268 0.030-4.545 0.030-8.817s-0.010-8.541-0.031-8.81c-0.098-1.25-0.313-2.091-0.749-2.98-0.358-0.727-0.756-1.271-1.333-1.826-1.030-0.984-2.29-1.583-3.791-1.799-0.727-0.105-0.872-0.136-4.595-0.143h-5.068z"></path>
<path fill="#f2f2f2" style="fill: var(--color3, #f2f2f2)" d="M15.998 4.936c-3.122 0-3.514 0.014-4.741 0.069-1.224 0.056-2.059 0.25-2.79 0.534-0.756 0.294-1.398 0.686-2.037 1.326s-1.032 1.28-1.327 2.036c-0.285 0.731-0.479 1.567-0.534 2.79-0.055 1.226-0.069 1.618-0.069 4.741s0.014 3.513 0.069 4.739c0.056 1.224 0.25 2.059 0.534 2.79 0.294 0.756 0.687 1.398 1.326 2.037s1.28 1.033 2.036 1.327c0.732 0.284 1.567 0.478 2.791 0.534 1.226 0.056 1.618 0.070 4.74 0.070s3.513-0.014 4.74-0.070c1.224-0.056 2.060-0.25 2.792-0.534 0.756-0.294 1.396-0.687 2.035-1.327s1.032-1.281 1.327-2.036c0.282-0.731 0.477-1.567 0.534-2.79 0.055-1.226 0.070-1.617 0.070-4.74s-0.014-3.514-0.070-4.741c-0.057-1.224-0.252-2.059-0.534-2.79-0.295-0.756-0.687-1.398-1.327-2.037s-1.279-1.032-2.036-1.326c-0.733-0.284-1.569-0.478-2.793-0.534-1.226-0.056-1.617-0.069-4.74-0.069h0.003zM14.966 7.008c0.306-0 0.648 0 1.031 0 3.070 0 3.434 0.011 4.646 0.066 1.121 0.051 1.729 0.239 2.135 0.396 0.537 0.208 0.919 0.457 1.321 0.86s0.651 0.786 0.86 1.322c0.157 0.405 0.345 1.013 0.396 2.134 0.055 1.212 0.067 1.576 0.067 4.644s-0.012 3.432-0.067 4.644c-0.051 1.121-0.239 1.729-0.396 2.134-0.208 0.537-0.458 0.919-0.86 1.321s-0.785 0.652-1.321 0.86c-0.405 0.158-1.014 0.345-2.135 0.396-1.212 0.055-1.576 0.067-4.646 0.067s-3.434-0.012-4.646-0.067c-1.121-0.052-1.729-0.239-2.135-0.396-0.537-0.208-0.92-0.457-1.322-0.86s-0.651-0.785-0.86-1.321c-0.157-0.405-0.345-1.013-0.396-2.134-0.055-1.212-0.066-1.576-0.066-4.646s0.011-3.432 0.066-4.644c0.051-1.121 0.239-1.729 0.396-2.135 0.208-0.537 0.458-0.92 0.86-1.322s0.786-0.652 1.322-0.86c0.405-0.158 1.014-0.345 2.135-0.396 1.061-0.048 1.472-0.062 3.614-0.065v0.003zM22.135 8.917c-0.273 0-0.54 0.081-0.767 0.233s-0.404 0.367-0.508 0.619-0.132 0.53-0.078 0.797c0.053 0.268 0.185 0.513 0.378 0.706s0.439 0.324 0.706 0.377c0.268 0.053 0.545 0.026 0.797-0.079s0.468-0.281 0.619-0.508c0.151-0.227 0.232-0.494 0.232-0.767 0-0.762-0.618-1.38-1.38-1.38v0zM15.998 10.529c-3.261 0-5.904 2.644-5.904 5.904s2.644 5.903 5.904 5.903c3.261 0 5.904-2.642 5.904-5.903s-2.643-5.904-5.904-5.904h0zM15.998 12.6c2.116 0 3.832 1.716 3.832 3.832s-1.716 3.832-3.832 3.832c-2.117 0-3.832-1.716-3.832-3.832s1.716-3.832 3.832-3.832z"></path>
</symbol>
<symbol id="icon-telegram" viewBox="0 0 37 32">
<path fill="#249ce0" style="fill: var(--color4, #249ce0)" d="M33.181 1.274l-31.52 12.155c-2.151 0.864-2.139 2.064-0.395 2.599l8.092 2.524 18.724-11.813c0.885-0.539 1.694-0.249 1.029 0.341l-15.17 13.692-0.558 8.341c0.818 0 1.179-0.375 1.637-0.818l3.931-3.822 8.176 6.039c1.508 0.83 2.59 0.404 2.965-1.396l5.367-25.294c0.549-2.203-0.841-3.2-2.279-2.549z"></path>
</symbol>
</defs>
</svg>