<svg aria-hidden="true" style="position: absolute; width: 0; height: 0; overflow: hidden;" version="1.1" xmlns="http://www.w3.org/2000/svg" xmlns:xlink="http://www.w3.org/1999/xlink">
<defs>
<symbol id="icon-basket" viewBox="0 0 32 32">
<path d="M30.625 12h-4.765l-3.508-10.523c-0.555-1.666-2.772-2.009-3.802-0.58-0.411 0.57-0.519 1.279-0.297 1.946l3.052 9.157h-10.613l3.052-9.157c0.467-1.401-0.573-2.843-2.049-2.843-0.931 0-1.755 0.594-2.049 1.477l-3.508 10.523h-4.765c-0.758 0-1.375 0.617-1.375 1.375v2.25c0 0.639 0.438 1.177 1.029 1.331l0.879 13.177c0.070 1.047 0.946 1.867 1.996 1.867h6.538c0.535 0 1.118 0.702 1.357 0.224 0.069-0.138 0.208-0.224 0.362-0.224h7.882c0.154 0 0.293 0.086 0.362 0.224 0.239 0.479 0.62-0.224 1.155-0.224h6.538c1.049 0 1.926-0.82 1.996-1.867l0.878-13.177c0.591-0.154 1.029-0.692 1.029-1.331v-2.25c0-0.758-0.617-1.375-1.375-1.375zM19.203 2.527c-0.251-0.752 0.308-1.527 1.101-1.527 0.5 0 0.942 0.319 1.101 0.793l3.402 10.207h-2.446l-3.158-9.473zM10.596 1.793c0.298-0.895 1.489-1.079 2.042-0.311 0.221 0.306 0.279 0.687 0.159 1.045l-3.158 9.473h-2.446l3.402-10.207zM29.094 30.067c-0.035 0.523-0.473 0.933-0.998 0.933h-6.538c-0.154 0 0 0-0.348 0-0.807 0-0.634 0-1.169 0h-7.882c-0.535 0-0.64 0-1.357 0-0.248 0-0.208 0-0.362 0h-6.538c-0.525 0-0.963-0.41-0.998-0.933l-0.871-13.067h27.931l-0.871 13.067zM31 15.625c0 0.207-0.168 0.375-0.375 0.375-1.281 0-28.003 0-29.25 0-0.207 0-0.375-0.168-0.375-0.375v-2.25c0-0.207 0.168-0.375 0.375-0.375h29.25c0.207 0 0.375 0.168 0.375 0.375v2.25z"></path>
<path d="M16 28.5c0.827 0 1.5-0.673 1.5-1.5v-6.5c0-0.827-0.673-1.5-1.5-1.5s-1.5 0.673-1.5 1.5v6.5c0 0.827 0.673 1.5 1.5 1.5zM15.5 20.5c0-0.276 0.224-0.5 0.5-0.5s0.5 0.224 0.5 0.5v6.5c0 0.276-0.224 0.5-0.5 0.5s-0.5-0.224-0.5-0.5v-6.5z"></path>
<path d="M21.058 28.5c0.792 0 1.449-0.62 1.496-1.41l0.383-6.503c0.051-0.86-0.635-1.586-1.496-1.586-0.792 0-1.449 0.619-1.496 1.41l-0.382 6.503c-0.051 0.86 0.634 1.586 1.496 1.586zM20.561 26.973l0.382-6.503c0.015-0.263 0.234-0.469 0.497-0.469 0.286 0 0.514 0.24 0.497 0.527l-0.382 6.503c-0.015 0.263-0.234 0.469-0.497 0.469-0.286 0-0.514-0.24-0.497-0.527z"></path>
<path d="M26.058 28.5c0.792 0 1.449-0.62 1.496-1.41l0.382-6.503c0.051-0.86-0.634-1.586-1.496-1.586-0.792 0-1.449 0.619-1.496 1.41l-0.382 6.503c-0.051 0.86 0.634 1.586 1.496 1.586zM25.561 26.973l0.383-6.503c0.015-0.263 0.234-0.469 0.497-0.469 0.286 0 0.514 0.24 0.497 0.527l-0.383 6.503c-0.015 0.263-0.234 0.469-0.497 0.469-0.286 0-0.514-0.24-0.497-0.527z"></path>
<path d="M9.445 27.090c0.077 1.307 1.688 1.892 2.586 0.94 0.282-0.299 0.43-0.706 0.406-1.116l-0.383-6.503c-0.077-1.307-1.688-1.893-2.586-0.94-0.282 0.299-0.43 0.706-0.406 1.116l0.383 6.503zM10.196 20.157c0.299-0.317 0.834-0.122 0.86 0.313l0.383 6.503c0.008 0.138-0.040 0.27-0.135 0.371-0.299 0.317-0.834 0.122-0.86-0.313l-0.383-6.503c-0.008-0.138 0.040-0.27 0.135-0.371z"></path>
<path d="M4.445 27.090c0.077 1.307 1.688 1.892 2.586 0.94 0.282-0.299 0.43-0.706 0.406-1.116l-0.383-6.503c-0.077-1.307-1.688-1.893-2.586-0.94-0.282 0.299-0.43 0.706-0.406 1.116l0.383 6.503zM5.196 20.157c0.299-0.317 0.834-0.122 0.86 0.313l0.383 6.503c0.008 0.138-0.040 0.27-0.135 0.371-0.299 0.317-0.834 0.122-0.86-0.313l-0.383-6.503c-0.008-0.138 0.040-0.27 0.135-0.371z"></path>
</symbol>
<symbol id="icon-compare" viewBox="0 0 32 32">
<path d="M32 14.002c0-0.001 0-0.002 0-0.002 0-0.003-0-0.006-0-0.009-0-0.013-0.001-0.026-0.002-0.039-0.001-0.007-0.002-0.013-0.003-0.019-0.001-0.010-0.003-0.019-0.004-0.029s-0.004-0.019-0.007-0.029c-0.002-0.006-0.003-0.012-0.005-0.018-0.004-0.013-0.008-0.025-0.013-0.037-0.001-0.003-0.002-0.006-0.003-0.008l-0.001-0.003c-0-0.001-0.001-0.003-0.002-0.004l-4.497-10.993c-0.017-0.041-0.038-0.077-0.064-0.111 0.365-0.274 0.601-0.71 0.601-1.2 0-0.827-0.673-1.5-1.5-1.5-0.802 0-1.459 0.633-1.498 1.425l-7.275 2.065c-0.449-0.768-1.378-1.168-2.273-0.914-0.514 0.146-0.94 0.483-1.201 0.95-0.177 0.317-0.262 0.668-0.253 1.022l-7.289 2.069c-0.273-0.373-0.714-0.616-1.211-0.616-0.827 0-1.5 0.673-1.5 1.5 0 0.471 0.218 0.892 0.559 1.167l-4.519 11.137c-0 0.001-0.001 0.002-0.001 0.003l-0.002 0.005c-0.001 0.003-0.002 0.007-0.004 0.010-0.004 0.012-0.009 0.023-0.012 0.035-0.002 0.007-0.003 0.013-0.005 0.019-0.002 0.009-0.005 0.018-0.007 0.028s-0.003 0.019-0.004 0.029c-0.001 0.006-0.002 0.013-0.003 0.019-0.001 0.012-0.002 0.025-0.002 0.037-0 0.004-0.001 0.007-0.001 0.011 0 0.001 0 0.002 0 0.003 0 0.002 0 0.005 0 0.007 0.006 3.028 2.471 5.49 5.5 5.49s5.495-2.462 5.5-5.491c0-0.002 0-0.004 0-0.007 0-0.001 0-0.002 0-0.002 0-0.003-0-0.006-0.001-0.009-0-0.013-0.001-0.026-0.002-0.039-0.001-0.007-0.002-0.013-0.003-0.019-0.001-0.010-0.002-0.019-0.004-0.029s-0.005-0.019-0.007-0.029c-0.002-0.006-0.003-0.012-0.005-0.018-0.004-0.013-0.008-0.025-0.013-0.037-0.001-0.003-0.002-0.006-0.003-0.008l-0.001-0.003c-0.001-0.001-0.001-0.003-0.002-0.004l-4.497-10.993c-0.017-0.041-0.038-0.077-0.064-0.111 0.346-0.26 0.576-0.666 0.599-1.125l7.275-2.065c0.072 0.123 0.157 0.235 0.251 0.337-0.015 0.048-0.024 0.099-0.024 0.153v20.5c-0.827 0-1.5 0.673-1.5 1.5v1h-2.5c-0.827 0-1.5 0.673-1.5 1.5v1c0 0.276 0.224 0.5 0.5 0.5h13c0.276 0 0.5-0.224 0.5-0.5v-1c0-0.827-0.673-1.5-1.5-1.5h-2.5v-1c0-0.827-0.673-1.5-1.5-1.5v-20.5c0-0.053-0.008-0.103-0.023-0.151 0.103-0.113 0.194-0.238 0.27-0.375 0.177-0.317 0.262-0.668 0.253-1.022l7.289-2.069c0.077 0.106 0.168 0.201 0.27 0.284l-4.519 11.137c-0 0.001-0.001 0.002-0.001 0.003l-0.002 0.005c-0.001 0.003-0.002 0.007-0.004 0.010-0.004 0.012-0.009 0.023-0.012 0.035-0.002 0.007-0.003 0.013-0.005 0.019-0.002 0.009-0.005 0.018-0.007 0.028s-0.003 0.019-0.004 0.029c-0.001 0.006-0.002 0.013-0.003 0.019-0.001 0.012-0.002 0.025-0.002 0.037-0 0.004-0 0.007-0 0.011 0 0.001 0 0.002 0 0.003 0 0.002 0 0.005 0 0.007 0.006 3.028 2.471 5.49 5.5 5.49s5.495-2.462 5.5-5.491c0-0.002 0-0.004 0-0.007zM26.5 1c0.276 0 0.5 0.224 0.5 0.5s-0.224 0.5-0.5 0.5c-0.276 0-0.5-0.224-0.5-0.5s0.224-0.5 0.5-0.5zM15.127 4.013c0.13-0.233 0.343-0.402 0.6-0.475 0.091-0.026 0.182-0.038 0.273-0.038 0.436 0 0.837 0.287 0.962 0.727 0 0 0 0 0 0s0 0 0 0c0.073 0.257 0.041 0.527-0.089 0.76s-0.343 0.402-0.6 0.475c-0.53 0.151-1.084-0.159-1.235-0.689 0-0 0-0-0-0s0-0 0-0c-0.073-0.257-0.041-0.527 0.089-0.76zM5.5 7c0.276 0 0.5 0.224 0.5 0.5s-0.224 0.5-0.5 0.5c-0.276 0-0.5-0.224-0.5-0.5s0.224-0.5 0.5-0.5zM9.755 19.5h-0.255c-0.276 0-0.5 0.224-0.5 0.5s0.224 0.5 0.5 0.5h0.472c-0.25 2.247-2.16 4-4.472 4s-4.223-1.753-4.472-4h6.472c0.276 0 0.5-0.224 0.5-0.5s-0.224-0.5-0.5-0.5h-6.258l4.258-10.493c0.001 0.061 0.012 0.122 0.037 0.182l4.218 10.311zM18 28v1.499c0 0 0 0 0 0.001 0 0.276 0.224 0.5 0.5 0.5h3c0.276 0 0.5 0.224 0.5 0.5v0.5h-12v-0.5c0-0.276 0.224-0.5 0.5-0.5h6c0.276 0 0.5-0.224 0.5-0.5s-0.224-0.5-0.5-0.5h-2.5v-1c0-0.276 0.224-0.5 0.5-0.5h3c0.276 0 0.5 0.224 0.5 0.5zM15.5 26.5v-20.065c0.162 0.042 0.33 0.065 0.501 0.065 0.165 0 0.333-0.022 0.499-0.065v20.065h-1zM26.5 18.5c-2.312 0-4.223-1.753-4.472-4h6.472c0.276 0 0.5-0.224 0.5-0.5s-0.224-0.5-0.5-0.5h-6.257l4.258-10.493c0.001 0.061 0.012 0.122 0.037 0.182l4.218 10.311h-0.255c-0.276 0-0.5 0.224-0.5 0.5s0.224 0.5 0.5 0.5h0.472c-0.25 2.247-2.16 4-4.472 4z"></path>
</symbol>
<symbol id="icon-favourite" viewBox="0 0 35 32">
<path d="M25.217 0.058c-3.116 0.005-6.035 1.525-7.826 4.074-1.791-2.55-4.71-4.069-7.826-4.074-5.096 0-9.565 4.741-9.565 10.145 0 5.267 2.974 10.691 8.601 15.687 2.607 2.31 5.467 4.319 8.525 5.987 0.167 0.086 0.365 0.086 0.532 0 3.057-1.669 5.916-3.677 8.522-5.987 5.63-4.996 8.603-10.42 8.603-15.687 0-5.404-4.47-10.145-9.565-10.145v0zM17.391 30.704c-2.129-1.175-16.232-9.384-16.232-20.5 0-4.787 3.927-8.986 8.406-8.986 3.034 0.005 5.831 1.642 7.321 4.285 0.112 0.17 0.302 0.273 0.505 0.273s0.393-0.102 0.505-0.273c1.491-2.643 4.287-4.279 7.321-4.285 4.478 0 8.406 4.199 8.406 8.986 0 11.116-14.103 19.325-16.232 20.5z"></path>
</symbol>
<symbol id="icon-sale" viewBox="0 0 24 32">
<path d="M22.619 12.803c-0.215-0.502-0.96-0.345-0.96 0.193-0.001 0.056-0.039 1.215-1.372 1.792 0.127-1.023 0.208-2.887-0.397-5.047-1.060-3.784-3.918-7.36-9.539-9.701-0.369-0.154-0.761 0.167-0.683 0.56 0.464 2.322 0.668 5.886-0.332 6.54-0.473 0.309-1.289-0.127-1.891-0.548-0.207-0.145-0.489-0.113-0.658 0.075-0.048 0.053-1.187 1.33-2.022 3.192-1.044 2.328-1.136 4.537-0.276 6.424-1.091 0.384-1.867-0.475-2.383-1.505-0.203-0.407-0.803-0.351-0.928 0.086-0.042 0.146-1.019 3.602-1.019 6.637 0 6.181 4.122 10.5 12 10.5 7.88 0 12-4.319 12-10.5 0-5.045-1.477-8.55-1.54-8.697zM12.16 31c-6.888 0-11-3.551-11-9.5 0-1.882 0.411-3.993 0.701-5.249 0.459 0.567 0.985 0.922 1.571 1.061 1.112 0.263 1.991-0.385 2.028-0.412 0.2-0.15 0.258-0.424 0.137-0.643-0.953-1.715-0.929-3.722 0.071-5.966 0.534-1.198 1.22-2.152 1.593-2.627 1.067 0.648 1.948 0.754 2.623 0.312 1.583-1.035 1.2-4.776 0.923-6.645 4.321 1.999 7.047 4.9 8.108 8.633 0.844 2.969 0.265 5.391 0.259 5.415-0.089 0.356 0.223 0.684 0.583 0.612 1.224-0.245 1.968-0.842 2.396-1.473 0.429 1.433 1.006 3.931 1.006 6.983 0 5.948-4.112 9.5-11 9.5z"></path>
<path d="M9.66 21.5c1.103 0 2-0.897 2-2s-0.897-2-2-2-2 0.897-2 2c0 1.103 0.897 2 2 2zM9.66 18.5c0.551 0 1 0.449 1 1s-0.449 1-1 1-1-0.449-1-1c0-0.551 0.449-1 1-1z"></path>
<path d="M14.66 22.5c-1.103 0-2 0.897-2 2s0.897 2 2 2c1.103 0 2-0.897 2-2s-0.897-2-2-2zM14.66 25.5c-0.551 0-1-0.449-1-1s0.448-1 1-1c0.551 0 1 0.448 1 1s-0.449 1-1 1z"></path>
<path d="M15.806 17.646l-8 8c-0.195 0.195-0.195 0.512 0 0.707s0.512 0.195 0.707 0l8-8c0.195-0.195 0.195-0.512 0-0.707s-0.512-0.195-0.707 0z"></path>
</symbol>
</defs>
</svg>
