<svg width="190" height="75" viewBox="0 0 190 75" fill="none" xmlns="http://www.w3.org/2000/svg">
<path d="M5.31377 74.6201C4.50516 74.6201 3.77355 74.5174 3.11895 74.312C2.46436 74.1067 1.90603 73.7986 1.44396 73.3879C0.981893 72.9772 0.622507 72.4574 0.365803 71.8284C0.121934 71.1995 0 70.4615 0 69.6144V61.4512H4.10085V69.4411C4.10085 69.8903 4.19069 70.2369 4.37039 70.4807C4.56291 70.7118 4.87738 70.8273 5.31377 70.8273C5.75017 70.8273 6.05822 70.7118 6.23791 70.4807C6.43044 70.2369 6.5267 69.8903 6.5267 69.4411V61.4512H10.6468V69.6144C10.6468 70.4615 10.5184 71.1995 10.2617 71.8284C10.0179 72.4574 9.65849 72.9772 9.18359 73.3879C8.72152 73.7986 8.16319 74.1067 7.50859 74.312C6.854 74.5174 6.12239 74.6201 5.31377 74.6201ZM5.31377 72.3098C3.38849 72.3098 2.42585 71.3664 2.42585 69.4796V62.9914H1.92528V69.4796C1.92528 70.5577 2.21407 71.3856 2.79166 71.9632C3.38208 72.528 4.22278 72.8103 5.31377 72.8103C6.40477 72.8103 7.24547 72.528 7.83589 71.9632C8.42631 71.3856 8.72152 70.5577 8.72152 69.4796V62.9914H8.2017V69.4796C8.2017 71.3664 7.23906 72.3098 5.31377 72.3098Z" fill="#1F1F1F"/>
<path d="M31.1932 61.4512H35.3518V64.4161L37.7776 61.4512H42.8026L38.2782 67.3233L43.0336 74.2928H38.0857L35.3518 70.3267V74.2928H31.1932V61.4512ZM33.619 72.7526V70.1534L35.6213 67.6698L39.1253 72.7526H39.7221L35.9678 67.2655L39.4141 62.9914H38.798L33.619 69.3833V62.9914H33.1184V72.7526H33.619Z" fill="#1F1F1F"/>
<path d="M66.6716 69.8261C67.1721 69.8261 67.6599 69.7748 68.1348 69.6721L69.9638 72.7526H70.5606L68.6353 69.5181C69.3284 69.2742 69.8804 68.902 70.2911 68.4014C70.7018 67.888 70.9072 67.227 70.9072 66.4184C70.9072 65.8536 70.7981 65.3595 70.5799 64.9359C70.3617 64.5124 70.0601 64.1594 69.675 63.877C69.3028 63.5818 68.86 63.3636 68.3466 63.2224C67.8332 63.0684 67.2748 62.9914 66.6716 62.9914H64.5923V72.7526H65.0928V69.8261H66.6716ZM65.0928 69.3641V63.4535H66.6716C67.8396 63.4535 68.7509 63.7102 69.4055 64.2236C70.0729 64.737 70.4066 65.4686 70.4066 66.4184C70.4066 67.3682 70.0729 68.0998 69.4055 68.6132C68.7509 69.1138 67.8396 69.3641 66.6716 69.3641H65.0928ZM62.667 61.4512H67.0951C67.9166 61.4512 68.6739 61.5603 69.367 61.7785C70.0729 61.9967 70.6826 62.3175 71.196 62.7411C71.7094 63.1647 72.1073 63.6909 72.3896 64.3198C72.6849 64.9359 72.8325 65.6483 72.8325 66.4569C72.8325 67.0987 72.7426 67.6442 72.5629 68.0934C72.3832 68.5426 72.1843 68.9148 71.9661 69.2101C71.7094 69.5438 71.4206 69.8261 71.0997 70.0572L73.5063 74.2928H68.6931L66.7678 71.0391V74.2928H62.667V61.4512ZM66.7678 67.7661H66.9796C67.4673 67.7661 67.8781 67.657 68.2118 67.4388C68.5583 67.2206 68.7316 66.8548 68.7316 66.3414C68.7316 65.828 68.5583 65.4622 68.2118 65.244C67.8781 65.0258 67.4673 64.9167 66.9796 64.9167H66.7678V67.7661Z" fill="#1F1F1F"/>
<path d="M97.8212 61.4512H100.902L105.773 74.2928H101.73L101.306 73.1376H97.4169L96.9934 74.2928H92.9503L97.8212 61.4512ZM100.228 70.3075L99.3615 68.0549L98.4951 70.3075H100.228ZM95.8189 72.7526L96.1848 71.7899H102.538L102.904 72.7526H103.443L99.7273 62.9914H98.9957L95.2799 72.7526H95.8189ZM99.3615 63.4535L102.365 71.3279H96.358L99.3615 63.4535Z" fill="#1F1F1F"/>
<path d="M125.314 61.4512H129.665V74.2928H125.314V61.4512ZM127.74 72.7526V62.9914H127.239V72.7526H127.74Z" fill="#1F1F1F"/>
<path d="M150.263 61.4512H153.633L157.175 66.3991V61.4512H161.199V74.2928H157.811L154.287 69.3641V74.2928H150.263V61.4512ZM152.555 72.7526V63.8578L158.908 72.7526H159.409V62.9914H158.908V71.8862L152.555 62.9914H152.054V72.7526H152.555Z" fill="#1F1F1F"/>
<path d="M181.794 61.4512H189.36V64.8204H185.895V66.2451H189.302V69.4411H185.895V70.9236H189.495V74.2928H181.794V61.4512ZM188.07 72.7526V72.2905H184.22V68.0741H187.878V67.6121H184.22V63.4535H188.07V62.9914H183.719V72.7526H188.07Z" fill="#1F1F1F"/>
<path d="M0.562448 32.9916C1.579 33.3151 2.64175 33.5692 3.75071 33.754C4.67485 33.9851 5.7145 34.1699 6.86967 34.3085C8.07104 34.4471 9.27242 34.5164 10.4738 34.5164C12.5993 34.5164 13.6621 33.7309 13.6621 32.1599C13.6621 31.5592 13.3386 30.9585 12.6917 30.3578C12.0448 29.7109 11.2131 29.0178 10.1966 28.2785C9.22621 27.493 8.16346 26.6382 7.00829 25.7141C5.89933 24.7899 4.83657 23.7272 3.82002 22.5258C2.84968 21.3244 2.04106 19.9844 1.39417 18.5058C0.747275 16.981 0.423828 15.2482 0.423828 13.3075C0.423828 11.1358 0.816585 9.21824 1.6021 7.5548C2.38761 5.89136 3.47347 4.50516 4.85967 3.3962C6.24588 2.28723 7.86311 1.45551 9.71138 0.901032C11.6059 0.300344 13.6159 0 15.7414 0C16.8503 0 17.9593 0.0693112 19.0682 0.207932C20.1772 0.300345 21.1707 0.392756 22.0486 0.485169C23.0651 0.62379 24.0586 0.762411 25.0289 0.901032V13.862C24.6593 13.8158 24.2434 13.7696 23.7813 13.7234C23.4117 13.6772 22.9958 13.631 22.5338 13.5848C22.0717 13.5386 21.5865 13.5155 21.0782 13.5155C20.801 13.5155 20.4544 13.5386 20.0386 13.5848C19.6227 13.5848 19.23 13.631 18.8603 13.7234C18.4907 13.8158 18.1672 13.9775 17.89 14.2086C17.6127 14.4396 17.4741 14.7631 17.4741 15.1789C17.4741 15.5486 17.7745 16.0106 18.3751 16.5651C19.022 17.1196 19.7845 17.7665 20.6624 18.5058C21.5865 19.2451 22.58 20.0999 23.6427 21.0703C24.7517 22.0406 25.7451 23.1496 26.623 24.3972C27.5472 25.6447 28.3096 27.054 28.9103 28.6251C29.5572 30.1961 29.8806 31.952 29.8806 33.8926C29.8806 35.9257 29.5572 37.8433 28.9103 39.6454C28.2634 41.4012 27.2468 42.9492 25.8606 44.2892C24.5206 45.5829 22.7879 46.5995 20.6624 47.3388C18.5369 48.1243 16.0186 48.5171 13.1076 48.5171C11.3517 48.5171 9.71138 48.4247 8.18656 48.2398C6.70794 48.1012 5.39105 47.9164 4.23588 47.6853C2.89589 47.4543 1.67141 47.1771 0.562448 46.8536V32.9916Z" fill="#1F1F1F"/>
<path d="M42.7138 1.10896H58.3779L63.7148 17.2582L69.0517 1.10896H79.1709L84.5078 17.2582L89.8447 1.10896H105.509L90.2606 47.3388H78.7551L74.1113 33.3382L69.4675 47.3388H57.962L42.7138 1.10896Z" fill="#1F1F1F"/>
<path d="M122.851 1.10896H138.515V47.3388H122.851V1.10896Z" fill="#1F1F1F"/>
<path d="M165.747 13.2382H157.222V1.10896H189.52V13.2382H180.995V47.3388H165.747V13.2382Z" fill="#1F1F1F"/>
</svg>
