<?xml version="1.0" encoding="UTF-8" standalone="no"?>
<!-- Creator: CorelDRAW X8 -->

<svg
   xml:space="preserve"
   width="166.32016mm"
   height="59.549999mm"
   version="1.1"
   style="clip-rule:evenodd;fill-rule:evenodd;image-rendering:optimizeQuality;shape-rendering:geometricPrecision;text-rendering:geometricPrecision"
   viewBox="0 0 16632.016 5954.9999"
   id="svg42"
   sodipodi:docname="ADE_Company_CMYK.svg"
   inkscape:version="1.2.1 (9c6d41e410, 2022-07-14)"
   xmlns:inkscape="http://www.inkscape.org/namespaces/inkscape"
   xmlns:sodipodi="http://sodipodi.sourceforge.net/DTD/sodipodi-0.dtd"
   xmlns="http://www.w3.org/2000/svg"
   xmlns:svg="http://www.w3.org/2000/svg"><sodipodi:namedview
   id="namedview44"
   pagecolor="#ffffff"
   bordercolor="#000000"
   borderopacity="0.25"
   inkscape:showpageshadow="2"
   inkscape:pageopacity="0.0"
   inkscape:pagecheckerboard="0"
   inkscape:deskcolor="#d1d1d1"
   inkscape:document-units="mm"
   showgrid="false"
   inkscape:zoom="0.72515432"
   inkscape:cx="304.76272"
   inkscape:cy="119.28495"
   inkscape:window-width="1920"
   inkscape:window-height="1001"
   inkscape:window-x="-9"
   inkscape:window-y="-9"
   inkscape:window-maximized="1"
   inkscape:current-layer="Слой_x0020_1" />
 <defs
   id="defs26">
  <style
   type="text/css"
   id="style24">
   <![CDATA[
    .fil0 {fill:#E3000B}
   ]]>
  </style>
 </defs>
 <g
   id="Слой_x0020_1"
   inkscape:label="Слой 1"
   inkscape:groupmode="layer"
   transform="translate(-2444.4394,-11722)">
  <metadata
   id="CorelCorpID_0Corel-Layer" />
  <g
   id="Background">
  </g>
  <g
   id="Guides">
  </g>
  <g
   id="Foreground">
  </g>
  <g
   id="Ebene_1">
   <g
   id="g38">
    <path
   class="fil0"
   d="m 10401,13075 c 0,-143 118,-260 261,-260 h 764 c 144,0 324,98 404,220 l 184,293 c 75,121 140,336 140,481 v 1667 c 0,143 -73,356 -158,467 l -175,228 c -86,113 -274,206 -419,206 h -741 c -144,0 -261,-117 -261,-260 V 13075 Z M 8833,11983 c 0,-143 117,-261 260,-261 h 3540 c 143,0 329,98 404,216 l 509,764 c 80,121 143,336 143,481 v 2562 c 0,143 -68,355 -153,471 l -912,1246 c -86,117 -274,211 -419,211 H 9092 c -144,0 -261,-118 -261,-261 z"
   id="path32" />
    <path
   class="fil0"
   d="m 5130,13098 c 35,-140 183,-251 328,-251 h 966 c 143,0 260,117 260,260 v 2179 c 0,143 -117,261 -260,261 H 4747 c -143,0 -233,-113 -193,-251 z m -2480,4578 c -143,0 -233,-113 -198,-251 l 1137,-4430 c 35,-140 143,-341 242,-444 l 575,-625 c 98,-107 296,-193 441,-193 h 3141 c 143,0 260,118 260,261 v 5423 c 0,143 -117,260 -260,260 H 6918 c -143,0 -261,-117 -261,-260 v -670 c 0,-143 -117,-260 -261,-260 H 4496 c -143,0 -293,112 -333,251 l -188,687 c -36,140 -189,251 -333,251 z"
   id="path34" />
    <path
   class="fil0"
   d="m 13834,11952 c -73,-125 -10,-228 135,-228 h 3689 c 144,0 289,117 319,256 l 153,664 c 32,140 -58,256 -203,256 l -1734,10 c -144,0 -261,117 -261,260 v 720 c 0,143 117,260 261,260 h 939 c 143,0 293,113 333,251 l 140,486 c 41,140 -45,251 -188,251 l -1218,-9 c -143,0 -261,117 -261,260 v 719 c 0,144 118,261 261,261 h 2359 c 143,0 288,113 323,256 l 189,790 c 32,140 -58,256 -203,256 h -5177 c -143,0 -193,-95 -107,-211 l 544,-764 c 85,-118 152,-333 152,-477 v -3235 c 0,-144 -58,-364 -130,-490 z"
   id="path36" />
   </g>
  </g>
 </g>
</svg>
