<?xml version="1.0" encoding="UTF-8" standalone="no"?>
<!-- Generator: Adobe Illustrator 25.1.0, SVG Export Plug-In . SVG Version: 6.00 Build 0)  -->

<svg
   version="1.1"
   id="Слой_1"
   x="0px"
   y="0px"
   viewBox="0 0 79.6 37.099997"
   xml:space="preserve"
   sodipodi:docname="Bamix_Logo_black.svg"
   width="79.599998"
   height="37.099998"
   inkscape:version="1.2.1 (9c6d41e410, 2022-07-14)"
   xmlns:inkscape="http://www.inkscape.org/namespaces/inkscape"
   xmlns:sodipodi="http://sodipodi.sourceforge.net/DTD/sodipodi-0.dtd"
   xmlns="http://www.w3.org/2000/svg"
   xmlns:svg="http://www.w3.org/2000/svg"><defs
   id="defs106" /><sodipodi:namedview
   id="namedview104"
   pagecolor="#ffffff"
   bordercolor="#000000"
   borderopacity="0.25"
   inkscape:showpageshadow="2"
   inkscape:pageopacity="0.0"
   inkscape:pagecheckerboard="0"
   inkscape:deskcolor="#d1d1d1"
   showgrid="false"
   inkscape:zoom="0.96686064"
   inkscape:cx="27.925431"
   inkscape:cy="19.134091"
   inkscape:window-width="1920"
   inkscape:window-height="1001"
   inkscape:window-x="-9"
   inkscape:window-y="-9"
   inkscape:window-maximized="1"
   inkscape:current-layer="Слой_1" />
<style
   type="text/css"
   id="style55">
	.st0{fill:#020202;}
</style>
<g
   id="g101"
   transform="translate(-567.4,-402.4)">
	<path
   class="st0"
   d="m 621.1,402.4 c 0.6,0.2 1.2,0.5 1.6,1 0.8,1 0.9,2.3 0.2,3.3 -0.7,1 -2,1.5 -3.2,1.1 -1.1,-0.3 -2,-1.4 -2,-2.6 0,-1.2 0.8,-2.3 2,-2.7 0.1,0 0.2,-0.1 0.3,-0.1 0.4,0 0.7,0 1.1,0 z"
   id="path57" />
	<path
   class="st0"
   d="m 583,439.4 c -0.1,0 -0.2,-0.1 -0.3,-0.1 -1,-0.3 -1.6,-1.2 -1.6,-2.2 0.3,0 0.5,0 0.8,0 0.2,1.3 1.1,1.9 2.5,1.6 0.4,-0.1 0.7,-0.2 1,-0.4 0.9,-0.6 0.8,-1.8 -0.1,-2.3 -0.4,-0.2 -0.8,-0.3 -1.2,-0.5 -0.6,-0.3 -1.3,-0.4 -1.8,-0.8 -1.3,-0.8 -1.3,-2.7 0.1,-3.5 1.1,-0.7 2.3,-0.6 3.4,-0.1 0.6,0.3 0.9,0.9 1,1.6 -0.3,0 -0.5,0 -0.8,0 -0.3,-1 -1,-1.5 -2.2,-1.2 -0.3,0.1 -0.7,0.2 -0.9,0.4 -0.7,0.5 -0.8,1.5 -0.1,2.1 0.4,0.3 0.8,0.5 1.3,0.7 0.6,0.2 1.2,0.4 1.7,0.6 0.8,0.4 1.3,1 1.3,2 0,1 -0.6,1.7 -1.5,2 -0.3,0.1 -0.5,0.2 -0.8,0.2 -0.8,-0.1 -1.3,-0.1 -1.8,-0.1 z"
   id="path59" />
	<path
   class="st0"
   d="m 636.2,439.4 c -0.9,-0.3 -1.4,-0.9 -1.7,-1.8 -0.3,-1.1 -0.3,-2.1 0.2,-3.2 0.8,-1.6 2.8,-1.4 3.6,-0.6 0.1,0.1 0.2,0.2 0.3,0.4 0,-1.1 0,-2.2 0,-3.4 0.2,0 0.5,0 0.7,0 0,2.8 0,5.6 0,8.4 -0.2,0 -0.4,0 -0.7,0 0,-0.3 0,-0.5 -0.1,-0.9 -0.4,0.6 -0.9,0.9 -1.5,1 -0.2,0.1 -0.5,0.1 -0.8,0.1 z m -1.2,-3.1 c 0.1,0.5 0.2,1 0.3,1.4 0.2,0.6 0.6,1 1.2,1.1 0.7,0.1 1.3,-0.1 1.7,-0.8 0.6,-1 0.6,-2.2 0.1,-3.2 -0.3,-0.6 -0.9,-0.9 -1.6,-0.8 -0.7,0 -1.1,0.4 -1.4,1 -0.1,0.4 -0.2,0.8 -0.3,1.3 z"
   id="path61" />
	<path
   class="st0"
   d="m 611.3,439.4 c -0.1,0 -0.1,0 0,0 -1,-0.3 -1.6,-1 -1.8,-1.9 -0.2,-0.8 -0.2,-1.6 0,-2.4 0.4,-1.3 1.3,-2 2.7,-1.9 1.2,0.1 2.1,0.8 2.3,2.2 0.1,0.3 0.1,0.7 0.1,1.1 -1.5,0 -3,0 -4.4,0 -0.2,0.9 0.4,1.9 1.3,2.2 1,0.3 1.9,-0.1 2.2,-1.1 0.1,-0.2 0.1,-0.3 0.3,-0.2 0.1,0 0.3,0 0.4,0 0,0.9 -0.8,1.8 -1.8,2 -0.1,0 -0.1,0 -0.2,0.1 -0.4,-0.1 -0.8,-0.1 -1.1,-0.1 z m 2.4,-3.5 c 0.1,-1 -0.7,-1.9 -1.7,-1.9 -1,0 -1.9,0.8 -1.9,1.9 1.2,0 2.4,0 3.6,0 z"
   id="path63" />
	<path
   class="st0"
   d="m 623.3,439.4 c -0.1,0 -0.2,-0.1 -0.3,-0.1 -0.7,-0.3 -1.1,-0.8 -1.1,-1.6 0,-0.7 0.3,-1.3 0.9,-1.6 0.5,-0.3 1.1,-0.4 1.7,-0.4 0.4,0 0.8,0 1.2,0 0.2,-0.8 -0.1,-1.5 -0.8,-1.7 -1,-0.3 -1.7,0.1 -2,0.9 -0.2,0 -0.5,0 -0.7,0 0.1,-0.6 0.3,-1.1 0.8,-1.3 0.8,-0.4 1.7,-0.4 2.5,-0.1 0.6,0.3 0.9,0.8 0.9,1.5 0,1.2 0,2.3 0,3.5 0,0.2 0,0.5 0.1,0.8 -0.2,0 -0.5,0 -0.7,0 0,-0.2 0,-0.5 0,-0.6 -0.4,0.3 -0.9,0.5 -1.3,0.8 -0.4,-0.1 -0.8,-0.1 -1.2,-0.1 z m 2.5,-3.1 c -0.7,0 -1.2,0.1 -1.7,0.1 -0.3,0 -0.6,0.2 -0.9,0.3 -0.4,0.2 -0.5,0.6 -0.5,1 0,0.4 0.3,0.7 0.7,0.9 1,0.4 2,-0.1 2.2,-1.1 0.1,-0.3 0.1,-0.7 0.2,-1.2 z"
   id="path65" />
	<path
   class="st0"
   d="m 567.4,435.7 c 0.1,-0.2 0.1,-0.4 0.2,-0.7 0.4,-1.1 1.3,-1.8 2.5,-1.8 1.2,0 2.1,0.6 2.5,1.7 0.4,1.1 0.3,2.2 -0.3,3.3 -0.4,0.6 -1,0.9 -1.6,1.1 -0.4,0 -0.8,0 -1.1,0 0,0 -0.1,-0.1 -0.1,-0.1 -1,-0.3 -1.5,-0.9 -1.9,-1.9 0,-0.1 -0.1,-0.3 -0.2,-0.4 0,-0.3 0,-0.7 0,-1.2 z m 0.8,0.6 c 0,0.6 0.1,1.1 0.5,1.6 0.7,1.1 2.2,1.1 3,0 0.6,-0.9 0.6,-2.3 0,-3.3 -0.7,-1.1 -2.2,-1.1 -3,0 -0.4,0.6 -0.5,1.2 -0.5,1.7 z"
   id="path67" />
	<path
   class="st0"
   d="m 647,409.9 c 0,0.1 -0.1,0.2 -0.1,0.3 -0.4,1.3 -1.7,2.1 -3.1,2 -1.3,-0.2 -2.4,-1.3 -2.4,-2.6 -0.1,-1.3 0.8,-2.6 2.1,-2.9 1.5,-0.4 3.1,0.6 3.4,2.1 0,0.1 0,0.1 0.1,0.2 0,0.3 0,0.6 0,0.9 z m -5.1,-0.5 c 0,1.3 1,2.3 2.3,2.3 1.3,0 2.3,-1 2.3,-2.3 0,-1.3 -1,-2.3 -2.3,-2.3 -1.3,0 -2.3,1 -2.3,2.3 z"
   id="path69" />
	<path
   class="st0"
   d="m 601.9,439.4 c -0.7,-0.3 -0.8,-0.9 -0.8,-1.6 0,-1.2 0,-2.5 0,-3.8 -0.4,0 -0.8,0 -1.1,0 0,-0.2 0,-0.4 0,-0.7 0.4,0 0.7,0 1.1,0 0,-0.3 0,-0.5 0,-0.7 0,-0.7 0,-0.7 0.7,-0.8 0,0.5 0,1 0,1.5 0.4,0 0.9,0 1.3,0 0,0.2 0,0.4 0,0.7 -0.4,0 -0.8,0 -1.3,0 0,0.3 0,0.5 0,0.8 0,1 0,1.9 0,2.9 0,0.9 0.3,1.2 1.2,1 0,0 0.1,0 0.2,0 0,0.3 0.1,0.5 -0.1,0.7 -0.4,0 -0.8,0 -1.2,0 z"
   id="path71" />
	<path
   class="st0"
   d="m 609.4,426.4 c -1.7,0 -3.3,0 -4.9,0 0,-0.4 0,-0.9 0,-1.3 0,-2 0,-4 0,-6 0,-1.9 0,-3.9 0,-5.8 0,-0.8 -0.5,-1.2 -1.2,-1 -0.4,0.1 -0.7,0.5 -0.7,1 0,2.2 0,4.4 0,6.6 0,2 0,4.1 0,6.1 0,0.1 0,0.3 0,0.4 -1.7,0 -3.3,0 -5,0 0,-5.6 0,-11.2 0,-16.8 1.6,0 3.2,0 4.8,0 0,0.3 0,0.7 0,1.1 1,-0.9 2.1,-1.3 3.4,-1.2 1.3,0.1 2.3,0.6 3.2,1.6 0.6,-0.8 1.4,-1.3 2.4,-1.5 2,-0.4 3.8,0.4 4.7,2 0.2,0.4 0.3,0.8 0.3,1.2 0,4.4 0,8.9 0,13.3 0,0.1 0,0.2 0,0.3 -1.7,0 -3.4,0 -5.1,0 0,-0.1 0,-0.3 0,-0.4 0,-4.2 0,-8.5 0,-12.7 0,-0.4 -0.2,-0.8 -0.6,-0.9 -0.3,-0.2 -0.8,-0.1 -1,0.2 -0.2,0.2 -0.3,0.5 -0.3,0.8 0,1.1 0,2.1 0,3.2 0,3.1 0,6.3 0,9.4 0,0.1 0,0.2 0,0.4 z"
   id="path73" />
	<path
   class="st0"
   d="m 567.5,403.1 c 1.7,0 3.4,0 5.2,0 0,1.2 0,2.5 0,3.7 0,1.2 0,2.5 0,3.8 0.1,-0.1 0.2,-0.1 0.2,-0.2 2.9,-2.3 7.1,-0.8 7.9,2.8 0,0.1 0.1,0.3 0.1,0.4 0,2.6 0,5.2 0,7.8 0,1.2 -0.3,2.4 -0.9,3.4 -0.7,1.1 -1.7,1.7 -3,2 -1.9,0.4 -3.7,0.3 -5.6,0 -2,-0.4 -3.2,-1.6 -3.6,-3.6 -0.2,-0.8 -0.3,-1.7 -0.3,-2.6 0,-5.7 0,-11.5 0,-17.2 0,-0.1 0,-0.2 0,-0.3 z m 5.2,15.3 c 0,1.5 0,3.1 0,4.6 0,0.2 0,0.4 0,0.5 0.2,0.8 0.9,1.2 1.8,1 0.8,-0.1 1.3,-0.7 1.3,-1.4 0,-1 0,-2.1 0,-3.1 0,-2.1 0,-4.2 0,-6.3 0,-0.8 -0.4,-1.3 -1.1,-1.5 -1.2,-0.3 -2.1,0.4 -2.1,1.6 0.1,1.5 0.1,3 0.1,4.6 z"
   id="path75" />
	<path
   class="st0"
   d="m 587.5,415.8 c -1.7,0 -3.3,0 -5,0 -0.5,-2.6 0.5,-4.6 2.8,-5.6 0.5,-0.2 1.1,-0.4 1.7,-0.5 2.2,-0.4 4.3,-0.3 6.3,0.6 0.6,0.3 1.1,0.7 1.6,1.1 0.7,0.6 1,1.4 1,2.3 0,4.2 0,8.3 0,12.5 0,0.1 0,0.1 0,0.2 -1.7,0 -3.4,0 -5.1,0 0,-0.3 0,-0.6 0,-0.9 -0.1,0.1 -0.1,0.1 -0.2,0.1 -0.9,0.9 -2.1,1.2 -3.3,1.2 -0.8,0.1 -1.7,0.1 -2.5,-0.2 -1.6,-0.6 -2.7,-2.1 -2.8,-3.8 0,-0.7 0,-1.4 0,-2.2 0,-1.7 0.8,-2.9 2.4,-3.5 1.1,-0.4 2.3,-0.6 3.5,-0.9 0.7,-0.2 1.3,-0.3 2,-0.4 0.6,-0.1 0.9,-0.5 0.9,-1 0,-0.6 0,-1.3 0,-1.9 0,-0.9 -0.6,-1.4 -1.4,-1.4 -0.3,0 -0.6,0 -0.9,0.1 -0.7,0.1 -1,0.6 -1,1.3 0,0.9 0,1.9 0,2.9 z m 3.4,2.4 c -0.9,0.3 -1.9,0.6 -2.8,1 -0.5,0.2 -0.7,0.7 -0.8,1.2 0,0.8 -0.1,1.5 0,2.3 0,0.9 0.7,1.5 1.6,1.4 1.1,-0.1 1.9,-0.8 2,-1.8 0,-1.4 0,-2.8 0,-4.1 z"
   id="path77" />
	<path
   class="st0"
   d="m 623.9,409.6 c 0.2,0 0.3,0 0.4,0 1.6,0 3.2,0 4.7,0 0.2,0 0.4,0.1 0.5,0.3 0.7,1.1 1.4,2.1 2.2,3.2 0.1,-0.1 0.1,-0.2 0.2,-0.3 0.6,-1 1.3,-2 1.9,-3 0.1,-0.1 0.2,-0.2 0.4,-0.2 1.7,0 3.4,0 5.1,0 0.1,0 0.1,0 0.2,0 -0.1,0.1 -0.1,0.2 -0.2,0.3 -1.5,2.4 -3.1,4.9 -4.6,7.3 -0.1,0.2 -0.1,0.4 0,0.6 1.7,2.7 3.4,5.5 5.2,8.2 0.1,0.1 0.1,0.2 0.2,0.4 -0.5,0 -0.9,0 -1.3,0 -1.3,0 -2.6,0 -3.9,0 -0.3,0 -0.4,-0.1 -0.6,-0.3 -0.9,-1.4 -1.8,-2.8 -2.7,-4.2 -0.1,0.1 -0.1,0.2 -0.2,0.3 -0.8,1.3 -1.5,2.6 -2.3,3.9 -0.1,0.1 -0.2,0.3 -0.4,0.3 -1.8,0 -3.5,0 -5.4,0 0.1,-0.1 0.1,-0.3 0.2,-0.4 1.7,-2.7 3.3,-5.4 5,-8.1 0.2,-0.3 0.2,-0.5 0,-0.7 -1.6,-2.4 -3.1,-4.9 -4.7,-7.3 0.3,-0.1 0.2,-0.2 0.1,-0.3 z"
   id="path79" />
	<path
   class="st0"
   d="m 623.1,426.4 c -1.7,0 -3.3,0 -4.9,0 0,-5.6 0,-11.2 0,-16.8 1.6,0 3.3,0 4.9,0 0,5.6 0,11.2 0,16.8 z"
   id="path81" />
	<path
   class="st0"
   d="m 592.3,434.3 c -0.4,1 -0.7,1.9 -1,2.8 -0.2,0.7 -0.5,1.3 -0.7,2 -0.1,0.2 -0.2,0.3 -0.4,0.2 -0.2,0 -0.4,0.1 -0.5,-0.2 -0.6,-1.8 -1.3,-3.6 -2,-5.4 0,-0.1 0,-0.1 0,-0.2 0.7,-0.1 0.7,-0.1 1,0.6 0.5,1.3 1,2.7 1.4,4.1 0,0 0,0.1 0.1,0.2 0.2,-0.6 0.4,-1.2 0.6,-1.7 0.3,-0.9 0.7,-1.9 1,-2.8 0.1,-0.3 0.2,-0.4 0.5,-0.4 0.1,0 0.3,0 0.4,0 0.6,1.6 1.1,3.2 1.7,4.9 0.2,-0.7 0.4,-1.3 0.6,-1.9 0.3,-0.8 0.6,-1.7 0.9,-2.5 0.1,-0.4 0.3,-0.5 0.7,-0.5 0.1,0 0.2,0 0.3,0 -0.2,0.5 -0.4,1 -0.5,1.5 -0.5,1.4 -1,2.7 -1.5,4.1 -0.1,0.3 -0.3,0.3 -0.5,0.3 -0.3,0 -0.3,-0.1 -0.4,-0.3 -0.5,-1.7 -1.1,-3.2 -1.7,-4.8 z"
   id="path83" />
	<path
   class="st0"
   d="m 629,439.3 c -0.3,0 -0.5,0 -0.7,0 0,-1.9 0,-3.9 0,-5.8 0.2,0 0.4,0 0.7,0 0,0.2 0,0.5 0,0.7 0,0 0.1,0.1 0.1,0.1 0,-0.1 0,-0.2 0.1,-0.2 0.6,-0.7 1.5,-1 2.4,-0.7 0.8,0.3 1.2,1 1.2,1.8 0.1,1.3 0,2.6 0,4 0,0 0,0.1 0,0.1 -0.2,0 -0.4,0 -0.7,0 0,-0.2 0,-0.3 0,-0.5 0,-1.1 0,-2.2 0,-3.3 0,-0.8 -0.4,-1.3 -1.1,-1.5 -0.7,-0.2 -1.5,0.1 -1.8,0.8 -0.2,0.4 -0.2,0.8 -0.3,1.2 0,1 0,2 0,3 0.1,0 0.1,0.1 0.1,0.3 z"
   id="path85" />
	<path
   class="st0"
   d="m 608.2,433.5 c 0.1,0.4 0,0.7 -0.3,1.1 -0.9,1.2 -1.8,2.5 -2.7,3.7 -0.1,0.1 -0.2,0.2 -0.3,0.4 1.1,0 2.2,0 3.3,0 0,0.2 0,0.4 0,0.7 -1.4,0 -2.8,0 -4.2,0 -0.1,-0.3 -0.1,-0.6 0.1,-0.9 1,-1.3 2,-2.7 3,-4 0,-0.1 0.1,-0.1 0.2,-0.3 -1.1,0 -2.2,0 -3.3,0 0,-0.2 0,-0.4 0,-0.7 1.4,0 2.8,0 4.2,0 z"
   id="path87" />
	<path
   class="st0"
   d="m 575.5,433.4 c 0.5,0 0.9,0 1.3,0 0,0.2 0,0.4 0,0.6 -0.4,0 -0.8,0 -1.3,0 0,1.7 0,3.4 0,5.2 -0.3,0 -0.5,0 -0.7,0 0,-1.7 0,-3.4 0,-5.2 -0.4,0 -0.8,0 -1.2,0 0,-0.2 0,-0.4 0,-0.7 0.4,0 0.7,0 1.2,0 0,-0.3 0,-0.5 0,-0.8 0,-0.2 0,-0.4 0,-0.7 0,-1 0.6,-1.3 1.5,-1.3 0.2,0 0.4,0.1 0.6,0.1 0,0.2 0,0.4 0,0.6 -0.2,0 -0.5,0 -0.7,0 -0.4,0 -0.6,0.2 -0.6,0.7 -0.2,0.6 -0.1,1.1 -0.1,1.5 z"
   id="path89" />
	<path
   class="st0"
   d="m 620.6,439.3 c -0.2,0 -0.4,0 -0.7,0 0,-2.8 0,-5.6 0,-8.4 0.2,0 0.4,0 0.7,0 0,2.8 0,5.6 0,8.4 z"
   id="path91" />
	<path
   class="st0"
   d="m 616.8,439.3 c -0.3,0 -0.5,0 -0.7,0 0,-1.9 0,-3.9 0,-5.8 0.2,0 0.4,0 0.7,0 0,0.2 0,0.4 0.1,0.8 0.5,-0.9 1.2,-1 2,-0.9 0,0.2 0,0.4 0,0.6 0,0 -0.1,0 -0.1,0 -1.2,-0.1 -1.9,0.5 -1.9,1.6 0,1.1 0,2.2 0,3.2 -0.1,0.2 -0.1,0.3 -0.1,0.5 z"
   id="path93" />
	<path
   class="st0"
   d="m 598.1,433.5 c 0.2,0 0.4,0 0.7,0 0,1.9 0,3.9 0,5.8 -0.2,0 -0.4,0 -0.7,0 0,-2 0,-3.9 0,-5.8 z"
   id="path95" />
	<path
   class="st0"
   d="m 598,431.8 c 0,-0.3 0,-0.6 0,-0.9 0.3,0 0.5,0 0.8,0 0,0.3 0,0.6 0,0.9 -0.3,0 -0.5,0 -0.8,0 z"
   id="path97" />
	<path
   class="st0"
   d="m 643.1,407.7 c 0.4,0 0.9,0 1.3,0 0.5,0 0.8,0.2 1,0.6 0.1,0.5 0,0.7 -0.5,1.1 0.6,0.4 0.3,1.1 0.6,1.6 -0.3,0 -0.5,0 -0.7,0 0,-0.2 -0.1,-0.4 -0.1,-0.6 -0.1,-0.8 -0.2,-0.9 -1.1,-0.8 0,0.4 0,0.9 0,1.4 -0.2,0 -0.4,0 -0.5,0 0,-1.1 0,-2.2 0,-3.3 z m 0.5,1.3 c 0.3,0 0.5,0 0.8,0 0.2,0 0.4,-0.2 0.4,-0.4 0,-0.3 -0.2,-0.3 -0.4,-0.3 -0.2,0 -0.5,0 -0.7,0 -0.1,0.2 -0.1,0.5 -0.1,0.7 z"
   id="path99" />
</g>
</svg>
