<?xml version="1.0" encoding="UTF-8" standalone="no"?>
<!-- Creator: CorelDRAW X8 -->

<svg
   xml:space="preserve"
   width="158.71001mm"
   height="158.71001mm"
   version="1.1"
   style="clip-rule:evenodd;fill-rule:evenodd;image-rendering:optimizeQuality;shape-rendering:geometricPrecision;text-rendering:geometricPrecision"
   viewBox="0 0 15871.001 15871.001"
   id="svg160"
   sodipodi:docname="logoBORMIOLI.svg"
   inkscape:version="1.2.1 (9c6d41e410, 2022-07-14)"
   xmlns:inkscape="http://www.inkscape.org/namespaces/inkscape"
   xmlns:sodipodi="http://sodipodi.sourceforge.net/DTD/sodipodi-0.dtd"
   xmlns="http://www.w3.org/2000/svg"
   xmlns:svg="http://www.w3.org/2000/svg"><sodipodi:namedview
   id="namedview162"
   pagecolor="#ffffff"
   bordercolor="#000000"
   borderopacity="0.25"
   inkscape:showpageshadow="2"
   inkscape:pageopacity="0.0"
   inkscape:pagecheckerboard="0"
   inkscape:deskcolor="#d1d1d1"
   inkscape:document-units="mm"
   showgrid="false"
   inkscape:zoom="0.72515432"
   inkscape:cx="299.24665"
   inkscape:cy="79.293467"
   inkscape:window-width="1920"
   inkscape:window-height="1001"
   inkscape:window-x="-9"
   inkscape:window-y="-9"
   inkscape:window-maximized="1"
   inkscape:current-layer="Слой_x0020_1" />
 <defs
   id="defs85">
  <style
   type="text/css"
   id="style83">
   <![CDATA[
    .str0 {stroke:white;stroke-width:1.44}
    .str1 {stroke:white;stroke-width:2.16}
    .fil2 {fill:none}
    .fil0 {fill:#E1251B}
    .fil1 {fill:white}
   ]]>
  </style>
 </defs>
 <g
   id="Слой_x0020_1"
   inkscape:label="Слой 1"
   inkscape:groupmode="layer"
   transform="translate(-2605,-6948)">
  <metadata
   id="CorelCorpID_0Corel-Layer" />
  <g
   id="_2257026001568">
   <g
   id="g156">
    <g
   id="g154">
     <rect
   class="fil0"
   x="2605"
   y="6948"
   width="15871"
   height="15871"
   id="rect88" />
     <g
   id="g92">
      <path
   class="fil1"
   d="m 7967,18573 c 0,128 -43,257 -86,386 -43,128 -129,214 -215,343 -85,86 -171,128 -257,171 -86,43 -214,43 -343,43 -129,0 -215,0 -300,-43 -86,-43 -172,-85 -258,-171 -86,-86 -171,-215 -214,-300 -43,-129 -86,-258 -86,-386 0,-129 0,-258 43,-387 43,-128 128,-214 214,-300 86,-86 172,-128 258,-171 86,-43 214,-86 343,-86 129,0 214,0 343,43 86,43 172,86 257,171 86,86 172,215 215,301 43,128 86,257 86,386 z m -300,0 c 0,-129 0,-215 -43,-344 -43,-85 -86,-214 -172,-257 -43,-43 -86,-86 -172,-86 -42,-43 -128,-43 -214,-43 -86,0 -172,0 -215,43 -42,43 -128,86 -171,129 -43,86 -129,128 -129,257 -43,86 -43,215 -43,300 0,129 0,215 43,344 43,85 86,171 172,257 43,43 86,86 171,86 43,43 129,43 172,43 86,0 129,0 214,-43 86,-43 129,-86 172,-129 86,-86 129,-171 172,-257 43,-86 43,-172 43,-300 z"
   id="path90" />
     </g>
     <path
   class="fil2 str0"
   d="m 7967,18573 c 0,128 -43,257 -86,386 -43,128 -129,214 -215,343 -85,86 -171,128 -257,171 -86,43 -214,43 -343,43 -129,0 -215,0 -300,-43 -86,-43 -172,-85 -258,-171 -86,-86 -171,-215 -214,-300 -43,-129 -86,-258 -86,-386 0,-129 0,-258 43,-387 43,-128 128,-214 214,-300 86,-86 172,-128 258,-171 86,-43 214,-86 343,-86 129,0 214,0 343,43 86,43 172,86 257,171 86,86 172,215 215,301 43,128 86,257 86,386 z m -300,0 c 0,-129 0,-215 -43,-344 -43,-85 -86,-214 -172,-257 -43,-43 -86,-86 -172,-86 -42,-43 -128,-43 -214,-43 -86,0 -172,0 -215,43 -42,43 -128,86 -171,129 -43,86 -129,128 -129,257 -43,86 -43,215 -43,300 0,129 0,215 43,344 43,85 86,171 172,257 43,43 86,86 171,86 43,43 129,43 172,43 86,0 129,0 214,-43 86,-43 129,-86 172,-129 86,-86 129,-171 172,-257 43,-86 43,-172 43,-300 z"
   id="path94" />
     <path
   class="fil1"
   d="m 13071,17329 h -300 v -301 h 300 z m 0,2144 h -300 c 0,0 0,-128 0,-343 0,-214 0,-386 0,-514 0,-129 0,-258 0,-387 0,-128 0,-300 0,-514 h 300 c 0,171 0,343 0,472 0,128 0,300 0,386 0,257 0,514 0,686 0,129 0,214 0,214 z"
   id="path96" />
     <path
   class="fil2 str0"
   d="m 13071,17329 h -300 v -301 h 300 z m 0,2144 h -300 c 0,0 0,-128 0,-343 0,-214 0,-386 0,-514 0,-129 0,-258 0,-387 0,-128 0,-300 0,-514 h 300 c 0,171 0,343 0,472 0,128 0,300 0,386 0,257 0,514 0,686 0,129 0,214 0,214 z"
   id="path98" />
     <g
   id="g102">
      <path
   class="fil1"
   d="m 15259,18573 c 0,128 -43,257 -86,386 -43,128 -128,214 -214,343 -86,86 -172,128 -258,171 -86,43 -214,43 -343,43 -128,0 -214,0 -300,-43 -86,-43 -172,-85 -257,-171 -86,-86 -172,-215 -215,-300 -43,-129 -86,-258 -86,-386 0,-129 0,-258 43,-387 43,-128 129,-214 215,-300 85,-86 171,-128 257,-171 86,-43 215,-86 343,-86 129,0 215,0 343,43 86,43 172,86 258,171 86,86 171,215 214,301 86,128 86,257 86,386 z m -300,0 c 0,-129 0,-215 -43,-344 -43,-85 -86,-214 -172,-257 -43,-43 -86,-86 -171,-86 -43,-43 -129,-43 -215,-43 -86,0 -171,0 -214,43 -43,43 -129,86 -172,129 -43,86 -129,128 -129,257 -42,86 -42,215 -42,300 0,129 0,215 42,344 43,85 86,171 172,257 43,43 86,86 172,86 43,43 128,43 171,43 86,0 129,0 215,-43 86,-43 128,-86 171,-129 86,-86 129,-171 172,-257 43,-86 43,-172 43,-300 z"
   id="path100" />
     </g>
     <path
   class="fil2 str0"
   d="m 15259,18573 c 0,128 -43,257 -86,386 -43,128 -128,214 -214,343 -86,86 -172,128 -258,171 -86,43 -214,43 -343,43 -128,0 -214,0 -300,-43 -86,-43 -172,-85 -257,-171 -86,-86 -172,-215 -215,-300 -43,-129 -86,-258 -86,-386 0,-129 0,-258 43,-387 43,-128 129,-214 215,-300 85,-86 171,-128 257,-171 86,-43 215,-86 343,-86 129,0 215,0 343,43 86,43 172,86 258,171 86,86 171,215 214,301 86,128 86,257 86,386 z m -300,0 c 0,-129 0,-215 -43,-344 -43,-85 -86,-214 -172,-257 -43,-43 -86,-86 -171,-86 -43,-43 -129,-43 -215,-43 -86,0 -171,0 -214,43 -43,43 -129,86 -172,129 -43,86 -129,128 -129,257 -42,86 -42,215 -42,300 0,129 0,215 42,344 43,85 86,171 172,257 43,43 86,86 172,86 43,43 128,43 171,43 86,0 129,0 215,-43 86,-43 128,-86 171,-129 86,-86 129,-171 172,-257 43,-86 43,-172 43,-300 z"
   id="path104" />
     <path
   class="fil1"
   d="m 16889,17329 h -300 v -301 h 300 z m -43,2144 h -300 c 0,0 0,-128 0,-343 0,-214 0,-386 0,-514 0,-129 0,-258 0,-387 0,-128 0,-300 0,-514 h 300 c 0,171 0,343 0,472 0,128 0,300 0,386 0,257 0,514 0,686 0,129 0,214 0,214 z"
   id="path106" />
     <path
   class="fil2 str0"
   d="m 16889,17329 h -300 v -301 h 300 z m -43,2144 h -300 c 0,0 0,-128 0,-343 0,-214 0,-386 0,-514 0,-129 0,-258 0,-387 0,-128 0,-300 0,-514 h 300 c 0,171 0,343 0,472 0,128 0,300 0,386 0,257 0,514 0,686 0,129 0,214 0,214 z"
   id="path108" />
     <g
   id="g112">
      <path
   class="fil1"
   d="m 5865,18787 c 0,129 -43,215 -86,300 -43,86 -129,172 -257,215 -86,43 -215,86 -343,128 -129,43 -258,43 -429,43 -129,0 -258,0 -344,0 -128,0 -171,0 -214,0 0,-214 0,-429 0,-643 v -601 c 0,-343 0,-643 0,-815 v -300 h 214 c 129,0 215,0 344,0 128,0 214,0 343,43 86,0 171,43 257,86 129,43 172,86 258,171 42,86 85,172 85,301 0,128 -43,214 -128,343 -86,86 -172,171 -258,171 v 0 c 86,0 172,43 258,43 86,43 128,86 214,129 43,43 86,86 129,172 -86,43 -43,128 -43,214 z m -300,0 c 0,-43 0,-129 -43,-171 -43,-43 -43,-86 -86,-129 -43,-43 -86,-86 -172,-86 -86,-43 -128,-43 -214,-43 -86,0 -129,0 -172,0 -43,0 -128,0 -171,0 l -43,-214 c 86,0 257,0 300,-43 86,0 129,-43 171,-86 43,-43 86,-86 129,-129 43,-43 43,-128 43,-171 0,-86 0,-129 -43,-172 -43,-43 -86,-86 -129,-129 -42,-43 -128,-43 -171,-43 -86,0 -172,0 -258,0 -42,0 -128,0 -171,0 h -86 c 0,172 0,344 0,558 v 429 c 0,215 0,429 0,601 v 343 h 86 c 43,0 86,0 129,0 128,0 257,0 386,-43 128,0 214,-43 300,-86 86,-43 129,-86 171,-129 1,-128 44,-171 44,-257 z"
   id="path110" />
     </g>
     <path
   class="fil2 str0"
   d="m 5865,18787 c 0,129 -43,215 -86,300 -43,86 -129,172 -257,215 -86,43 -215,86 -343,128 -129,43 -258,43 -429,43 -129,0 -258,0 -344,0 -128,0 -171,0 -214,0 0,-214 0,-429 0,-643 v -601 c 0,-343 0,-643 0,-815 v -300 h 214 c 129,0 215,0 344,0 128,0 214,0 343,43 86,0 171,43 257,86 129,43 172,86 258,171 42,86 85,172 85,301 0,128 -43,214 -128,343 -86,86 -172,171 -258,171 v 0 c 86,0 172,43 258,43 86,43 128,86 214,129 43,43 86,86 129,172 -86,43 -43,128 -43,214 z m -300,0 c 0,-43 0,-129 -43,-171 -43,-43 -43,-86 -86,-129 -43,-43 -86,-86 -172,-86 -86,-43 -128,-43 -214,-43 -86,0 -129,0 -172,0 -43,0 -128,0 -171,0 l -43,-214 c 86,0 257,0 300,-43 86,0 129,-43 171,-86 43,-43 86,-86 129,-129 43,-43 43,-128 43,-171 0,-86 0,-129 -43,-172 -43,-43 -86,-86 -129,-129 -42,-43 -128,-43 -171,-43 -86,0 -172,0 -258,0 -42,0 -128,0 -171,0 h -86 c 0,172 0,344 0,558 v 429 c 0,215 0,429 0,601 v 343 h 86 c 43,0 86,0 129,0 128,0 257,0 386,-43 128,0 214,-43 300,-86 86,-43 129,-86 171,-129 1,-128 44,-171 44,-257 z"
   id="path114" />
     <path
   class="fil1"
   d="m 9425,17886 c -43,0 -128,43 -257,86 -129,43 -258,86 -472,215 0,0 0,43 0,171 0,86 0,215 0,300 0,129 0,301 0,515 0,172 0,300 0,300 h -300 c 0,0 0,-85 0,-214 0,-129 0,-300 0,-558 0,-128 0,-257 0,-472 0,-214 0,-386 0,-557 h 257 v 257 0 c 129,-128 258,-171 386,-214 129,-43 215,-86 300,-129 z"
   id="path116" />
     <path
   class="fil2 str0"
   d="m 9425,17886 c -43,0 -128,43 -257,86 -129,43 -258,86 -472,215 0,0 0,43 0,171 0,86 0,215 0,300 0,129 0,301 0,515 0,172 0,300 0,300 h -300 c 0,0 0,-85 0,-214 0,-129 0,-300 0,-558 0,-128 0,-257 0,-472 0,-214 0,-386 0,-557 h 257 v 257 0 c 129,-128 258,-171 386,-214 129,-43 215,-86 300,-129 z"
   id="path118" />
     <path
   class="fil1"
   d="m 12256,19473 h -300 c 0,0 0,-85 0,-257 0,-172 0,-300 0,-429 0,-43 0,-129 0,-257 0,-129 0,-215 0,-258 0,-129 -43,-257 -86,-300 -43,-43 -128,-86 -257,-86 -86,0 -129,0 -215,43 -86,43 -171,86 -300,129 v 43 c 0,0 0,42 0,85 0,86 0,215 0,301 0,85 0,171 0,300 0,214 0,343 0,515 0,128 0,214 0,214 h -300 c 0,0 0,-86 0,-214 0,-129 0,-300 0,-472 0,-43 0,-172 0,-257 0,-129 0,-215 0,-258 0,-43 0,-86 0,-128 0,-43 -43,-86 -43,-129 -43,-43 -43,-86 -86,-86 -43,0 -86,-43 -171,-43 -86,0 -129,0 -215,43 -86,43 -172,86 -300,172 0,0 0,85 0,214 0,129 0,215 0,300 0,129 0,301 0,515 0,215 0,300 0,300 h -300 c 0,0 0,-85 0,-214 0,-129 0,-343 0,-643 0,-86 0,-215 0,-387 0,-171 0,-343 0,-557 h 257 v 214 0 c 86,-43 172,-128 300,-171 129,-43 215,-86 300,-86 129,0 215,43 301,86 86,43 128,128 171,171 v 0 c 129,-86 258,-128 386,-171 129,-43 215,-86 301,-86 171,0 300,43 386,129 86,85 128,214 128,386 0,128 0,214 0,300 0,86 0,171 0,257 0,215 0,386 0,515 43,172 43,257 43,257 z"
   id="path120" />
     <path
   class="fil2 str0"
   d="m 12256,19473 h -300 c 0,0 0,-85 0,-257 0,-172 0,-300 0,-429 0,-43 0,-129 0,-257 0,-129 0,-215 0,-258 0,-129 -43,-257 -86,-300 -43,-43 -128,-86 -257,-86 -86,0 -129,0 -215,43 -86,43 -171,86 -300,129 v 43 c 0,0 0,42 0,85 0,86 0,215 0,301 0,85 0,171 0,300 0,214 0,343 0,515 0,128 0,214 0,214 h -300 c 0,0 0,-86 0,-214 0,-129 0,-300 0,-472 0,-43 0,-172 0,-257 0,-129 0,-215 0,-258 0,-43 0,-86 0,-128 0,-43 -43,-86 -43,-129 -43,-43 -43,-86 -86,-86 -43,0 -86,-43 -171,-43 -86,0 -129,0 -215,43 -86,43 -172,86 -300,172 0,0 0,85 0,214 0,129 0,215 0,300 0,129 0,301 0,515 0,215 0,300 0,300 h -300 c 0,0 0,-85 0,-214 0,-129 0,-343 0,-643 0,-86 0,-215 0,-387 0,-171 0,-343 0,-557 h 257 v 214 0 c 86,-43 172,-128 300,-171 129,-43 215,-86 300,-86 129,0 215,43 301,86 86,43 128,128 171,171 v 0 c 129,-86 258,-128 386,-171 129,-43 215,-86 301,-86 171,0 300,43 386,129 86,85 128,214 128,386 0,128 0,214 0,300 0,86 0,171 0,257 0,215 0,386 0,515 43,172 43,257 43,257 z"
   id="path122" />
     <path
   class="fil1"
   d="m 16031,19473 h -300 c 0,0 0,-171 0,-514 0,-343 0,-601 0,-815 0,-129 0,-301 0,-515 0,-215 0,-472 0,-729 h 300 c 0,171 0,386 0,643 0,257 0,429 0,601 0,343 0,686 0,943 0,215 0,386 0,386 z"
   id="path124" />
     <path
   class="fil2 str0"
   d="m 16031,19473 h -300 c 0,0 0,-171 0,-514 0,-343 0,-601 0,-815 0,-129 0,-301 0,-515 0,-215 0,-472 0,-729 h 300 c 0,171 0,386 0,643 0,257 0,429 0,601 0,343 0,686 0,943 0,215 0,386 0,386 z"
   id="path126" />
     <path
   class="fil1"
   d="m 11699,21146 -129,129 c 0,0 -86,-86 -172,-172 -85,-128 -257,-257 -471,-514 v 0 c 43,0 86,-43 128,-43 43,-43 86,-43 129,-86 43,-43 43,-43 86,-86 0,-43 43,-86 43,-129 0,-42 0,-85 -43,-128 -43,-43 -86,-86 -129,-86 -43,0 -86,-43 -128,-43 -43,0 -86,0 -129,0 -43,0 -43,0 -43,0 h -43 c 0,129 0,258 0,343 v 215 c 0,86 0,214 0,386 0,171 0,257 0,300 h -172 c 0,-43 0,-129 0,-257 0,-129 0,-258 0,-472 v -215 c 0,-85 0,-257 0,-514 0,0 43,0 129,0 86,0 129,0 172,0 85,0 128,0 171,0 43,0 129,43 172,43 86,42 128,85 171,128 43,43 86,129 86,215 0,86 -43,171 -86,257 -43,86 -128,129 -171,172 v 0 c 86,128 214,214 343,343 0,129 86,214 86,214 z"
   id="path128" />
     <path
   class="fil2 str1"
   d="m 11699,21146 -129,129 c 0,0 -86,-86 -172,-172 -85,-128 -257,-257 -471,-514 v 0 c 43,0 86,-43 128,-43 43,-43 86,-43 129,-86 43,-43 43,-43 86,-86 0,-43 43,-86 43,-129 0,-42 0,-85 -43,-128 -43,-43 -86,-86 -129,-86 -43,0 -86,-43 -128,-43 -43,0 -86,0 -129,0 -43,0 -43,0 -43,0 h -43 c 0,129 0,258 0,343 v 215 c 0,86 0,214 0,386 0,171 0,257 0,300 h -172 c 0,-43 0,-129 0,-257 0,-129 0,-258 0,-472 v -215 c 0,-85 0,-257 0,-514 0,0 43,0 129,0 86,0 129,0 172,0 85,0 128,0 171,0 43,0 129,43 172,43 86,42 128,85 171,128 43,43 86,129 86,215 0,86 -43,171 -86,257 -43,86 -128,129 -171,172 v 0 c 86,128 214,214 343,343 0,129 86,214 86,214 z"
   id="path130" />
     <g
   id="g134">
      <path
   class="fil1"
   d="m 13028,20674 c 0,86 0,172 -42,258 -43,86 -86,129 -129,214 -43,43 -86,86 -172,86 -43,43 -128,43 -214,43 -86,0 -129,0 -215,-43 -86,-43 -128,-43 -171,-86 -43,-43 -86,-128 -129,-214 -43,-86 -43,-172 -43,-258 0,-85 0,-171 43,-214 43,-86 86,-129 129,-172 43,-43 128,-85 171,-128 86,-43 129,-43 215,-43 86,0 171,0 214,43 86,43 129,43 172,128 43,43 86,129 129,215 0,43 42,86 42,171 z m -214,43 c 0,-85 0,-128 -43,-214 -43,-86 -43,-129 -86,-172 -43,-43 -86,-43 -86,-43 -43,0 -85,-43 -128,-43 -43,0 -86,0 -129,43 -43,0 -86,43 -129,86 -43,43 -85,86 -85,172 -43,43 -43,128 -43,171 0,86 0,129 43,215 42,43 42,129 128,171 43,43 43,43 86,43 43,0 86,0 129,0 43,0 86,0 128,-43 43,0 86,-42 129,-85 43,-43 86,-86 86,-172 0,0 0,-86 0,-129 z"
   id="path132" />
     </g>
     <path
   class="fil2 str1"
   d="m 13028,20674 c 0,86 0,172 -42,258 -43,86 -86,129 -129,214 -43,43 -86,86 -172,86 -43,43 -128,43 -214,43 -86,0 -129,0 -215,-43 -86,-43 -128,-43 -171,-86 -43,-43 -86,-128 -129,-214 -43,-86 -43,-172 -43,-258 0,-85 0,-171 43,-214 43,-86 86,-129 129,-172 43,-43 128,-85 171,-128 86,-43 129,-43 215,-43 86,0 171,0 214,43 86,43 129,43 172,128 43,43 86,129 129,215 0,43 42,86 42,171 z m -214,43 c 0,-85 0,-128 -43,-214 -43,-86 -43,-129 -86,-172 -43,-43 -86,-43 -86,-43 -43,0 -85,-43 -128,-43 -43,0 -86,0 -129,43 -43,0 -86,43 -129,86 -43,43 -85,86 -85,172 -43,43 -43,128 -43,171 0,86 0,129 43,215 42,43 42,129 128,171 43,43 43,43 86,43 43,0 86,0 129,0 43,0 86,0 128,-43 43,0 86,-42 129,-85 43,-43 86,-86 86,-172 0,0 0,-86 0,-129 z"
   id="path136" />
     <path
   class="fil1"
   d="m 14230,21103 v 129 h -43 -43 c -86,0 -215,0 -300,-43 -86,0 -172,-43 -215,-86 -86,-43 -172,-128 -214,-214 -43,-86 -86,-172 -86,-258 0,-85 43,-171 86,-257 42,-86 128,-129 171,-172 86,-43 172,-85 258,-85 85,-43 214,-43 300,-43 h 43 43 v 129 0 0 c -86,0 -172,0 -215,0 -43,0 -129,43 -172,43 -85,42 -128,85 -171,128 -43,43 -86,129 -86,215 0,86 43,171 43,214 43,43 86,86 172,129 42,43 128,43 171,43 86,0 129,0 215,0 h 43 z"
   id="path138" />
     <path
   class="fil2 str1"
   d="m 14230,21103 v 129 h -43 -43 c -86,0 -215,0 -300,-43 -86,0 -172,-43 -215,-86 -86,-43 -172,-128 -214,-214 -43,-86 -86,-172 -86,-258 0,-85 43,-171 86,-257 42,-86 128,-129 171,-172 86,-43 172,-85 258,-85 85,-43 214,-43 300,-43 h 43 43 v 129 0 0 c -86,0 -172,0 -215,0 -43,0 -129,43 -172,43 -85,42 -128,85 -171,128 -43,43 -86,129 -86,215 0,86 43,171 43,214 43,43 86,86 172,129 42,43 128,43 171,43 86,0 129,0 215,0 h 43 z"
   id="path140" />
     <path
   class="fil1"
   d="m 15474,21103 v 129 h -43 -43 c -86,0 -215,0 -300,-43 -86,0 -172,-43 -215,-86 -86,-43 -172,-128 -214,-214 -43,-86 -86,-172 -86,-258 0,-85 43,-171 86,-257 42,-86 128,-129 171,-172 86,-43 172,-85 258,-85 85,-43 214,-43 300,-43 h 43 43 v 129 0 0 c -86,0 -172,0 -215,0 -43,0 -129,43 -171,43 -86,42 -129,85 -172,128 -43,43 -86,129 -86,215 0,86 0,171 43,214 43,43 86,86 172,129 43,43 128,43 171,43 86,0 129,0 215,0 h 43 z"
   id="path142" />
     <path
   class="fil2 str1"
   d="m 15474,21103 v 129 h -43 -43 c -86,0 -215,0 -300,-43 -86,0 -172,-43 -215,-86 -86,-43 -172,-128 -214,-214 -43,-86 -86,-172 -86,-258 0,-85 43,-171 86,-257 42,-86 128,-129 171,-172 86,-43 172,-85 258,-85 85,-43 214,-43 300,-43 h 43 43 v 129 0 0 c -86,0 -172,0 -215,0 -43,0 -129,43 -171,43 -86,42 -129,85 -172,128 -43,43 -86,129 -86,215 0,86 0,171 43,214 43,43 86,86 172,129 43,43 128,43 171,43 86,0 129,0 215,0 h 43 z"
   id="path144" />
     <g
   id="g148">
      <path
   class="fil1"
   d="m 16932,20674 c 0,86 0,172 -43,258 -43,86 -86,129 -129,214 -42,43 -85,86 -171,86 -43,43 -129,43 -215,43 -85,0 -128,0 -214,-43 -43,-43 -129,-43 -172,-86 -43,-43 -86,-128 -128,-214 -43,-86 -43,-172 -43,-258 0,-85 0,-171 43,-214 43,-86 86,-129 128,-172 43,-43 129,-85 172,-128 86,-43 129,-43 214,-43 86,0 129,0 215,43 86,43 129,43 171,128 43,43 86,129 129,215 43,43 43,86 43,171 z m -172,43 c 0,-85 0,-128 -43,-214 -42,-86 -42,-129 -85,-172 -43,-43 -86,-43 -86,-43 -43,0 -86,-43 -129,-43 -43,0 -86,0 -129,43 -42,0 -85,43 -128,86 -43,43 -86,86 -86,172 -43,43 -43,128 -43,171 0,86 0,129 43,215 43,43 43,129 129,171 43,43 43,43 85,43 43,0 86,0 129,0 43,0 86,0 129,-43 43,0 86,-42 128,-85 43,-43 86,-86 86,-172 -42,0 0,-86 0,-129 z"
   id="path146" />
     </g>
     <path
   class="fil2 str1"
   d="m 16932,20674 c 0,86 0,172 -43,258 -43,86 -86,129 -129,214 -42,43 -85,86 -171,86 -43,43 -129,43 -215,43 -85,0 -128,0 -214,-43 -43,-43 -129,-43 -172,-86 -43,-43 -86,-128 -128,-214 -43,-86 -43,-172 -43,-258 0,-85 0,-171 43,-214 43,-86 86,-129 128,-172 43,-43 129,-85 172,-128 86,-43 129,-43 214,-43 86,0 129,0 215,43 86,43 129,43 171,128 43,43 86,129 129,215 43,43 43,86 43,171 z m -172,43 c 0,-85 0,-128 -43,-214 -42,-86 -42,-129 -85,-172 -43,-43 -86,-43 -86,-43 -43,0 -86,-43 -129,-43 -43,0 -86,0 -129,43 -42,0 -85,43 -128,86 -43,43 -86,86 -86,172 -43,43 -43,128 -43,171 0,86 0,129 43,215 43,43 43,129 129,171 43,43 43,43 85,43 43,0 86,0 129,0 43,0 86,0 129,-43 43,0 86,-42 128,-85 43,-43 86,-86 86,-172 -42,0 0,-86 0,-129 z"
   id="path150" />
     <polygon
   class="fil1"
   points="8567,11452 11441,11881 10498,6948 10541,6948 11699,11366 12428,9093 11956,11881 18476,10122 18476,10122 12385,12224 14830,12867 11999,12481 12814,16814 11699,12825 10927,15527 11398,12481 2605,14926 2605,14884 11012,12181 "
   id="polygon152" />
    </g>
   </g>
  </g>
 </g>
</svg>
