<?xml version="1.0" encoding="UTF-8" standalone="no"?>
<!-- Generator: Adobe Illustrator 25.1.0, SVG Export Plug-In . SVG Version: 6.00 Build 0)  -->

<svg
   version="1.1"
   id="Слой_1"
   x="0px"
   y="0px"
   viewBox="0 0 317.80237 37.099998"
   xml:space="preserve"
   sodipodi:docname="Fiskars_black.svg"
   width="317.80237"
   height="37.099998"
   inkscape:version="1.2.1 (9c6d41e410, 2022-07-14)"
   xmlns:inkscape="http://www.inkscape.org/namespaces/inkscape"
   xmlns:sodipodi="http://sodipodi.sourceforge.net/DTD/sodipodi-0.dtd"
   xmlns="http://www.w3.org/2000/svg"
   xmlns:svg="http://www.w3.org/2000/svg"><defs
   id="defs50" /><sodipodi:namedview
   id="namedview48"
   pagecolor="#ffffff"
   bordercolor="#000000"
   borderopacity="0.25"
   inkscape:showpageshadow="2"
   inkscape:pageopacity="0.0"
   inkscape:pagecheckerboard="0"
   inkscape:deskcolor="#d1d1d1"
   showgrid="false"
   inkscape:zoom="1.1044776"
   inkscape:cx="154.82432"
   inkscape:cy="195.11486"
   inkscape:window-width="1920"
   inkscape:window-height="1001"
   inkscape:window-x="-9"
   inkscape:window-y="-9"
   inkscape:window-maximized="1"
   inkscape:current-layer="Слой_1" />
<style
   type="text/css"
   id="style27">
	.st0{fill:#232021;}
</style>
<g
   id="g45"
   transform="translate(-32.4,87.6)">
	<rect
   x="79.599998"
   y="-86.800003"
   class="st0"
   width="8.6000004"
   height="35.599998"
   id="rect29" />
	<path
   class="st0"
   d="m 278.9,-51.3 h 10.4 l -14.1,-14.9 c 5,-0.4 11.9,-2.4 11.9,-10.3 0,-9.2 -9.5,-10.4 -14.2,-10.4 -3.7,0 -28,0 -28,0 -2.2,0 -4,1.8 -4,4 v 31.6 h 8.6 v -14.8 c 3.7,0 10.1,0 15.4,0 l 14,14.8 M 249.5,-81 c 6.2,0 20.4,0 22.8,0 3,0 6.3,0.9 6.3,4.5 0,3.6 -3.3,4.5 -6.3,4.5 -2.3,0 -16.5,0 -22.8,0 z"
   id="path31" />
	<path
   class="st0"
   d="m 217.6,-82.8 c -2.1,-2.9 -3.6,-4.4 -6.9,-4.4 -3.2,0 -4.7,1.4 -6.8,4.4 -1.6,2.2 -13.5,19.4 -19,27.5 l -17.3,-18.4 19.6,-13 H 175.3 L 148.6,-69 V -86.8 H 140 v 35.6 h 8.6 v -9.9 l 12.2,-8.1 16.9,18 h 14.2 l 5.3,-7.7 h 27.2 l 5.2,7.7 h 9.8 c -0.1,-0.1 -19.7,-28.7 -21.8,-31.6 m -16.5,18 9.6,-14 9.6,14 z"
   id="path33" />
	<path
   class="st0"
   d="m 36.4,-86.8 c -2.2,0 -4,1.8 -4,4 v 31.6 H 41 V -66.1 H 75.2 V -72 H 41 v -9 h 34.2 v -5.9 H 36.4"
   id="path35" />
	<path
   class="st0"
   d="m 322.5,-71.8 -17.8,-1.5 c -5.2,-0.4 -6.6,-1.4 -6.6,-3.3 0,-4.8 10.3,-5.2 14.3,-5.2 5.7,0 13.3,1.4 18.5,3.7 l 2.1,-6 c -5.7,-2.4 -14.2,-3.4 -20.4,-3.4 -7.9,0 -23.2,1.4 -23.2,11.8 0,5.1 4.3,8.1 12.8,8.8 l 17.8,1.5 c 5.2,0.4 7.1,1.7 7.1,4 0,4.8 -10.5,5.2 -14.9,5.2 -7.7,0 -15.7,-2.3 -20.9,-5.3 l -2.1,6.3 c 5.9,2.9 14.9,4.7 23.5,4.7 7.9,0 23.1,-1.4 23.1,-11.8 0,-6.4 -5.6,-8.8 -13.3,-9.5"
   id="path37" />
	<path
   class="st0"
   d="m 124.4,-71.8 -17.8,-1.5 c -5.2,-0.4 -6.6,-1.4 -6.6,-3.3 0,-4.8 10.3,-5.2 14.3,-5.2 5.7,0 13.2,1.4 18.5,3.6 l 2.1,-6 c -5.7,-2.4 -14.2,-3.4 -20.4,-3.4 -7.9,0 -23.2,1.4 -23.2,11.8 0,5.1 4.3,8.1 12.8,8.8 l 17.8,1.5 c 5.2,0.4 7.1,1.7 7.1,4 0,4.8 -10.5,5.2 -14.9,5.2 -7.7,0 -15.7,-2.3 -20.9,-5.3 l -2.1,6.3 c 5.9,2.9 14.9,4.7 23.5,4.7 7.9,0 23.2,-1.4 23.2,-11.8 -0.1,-6.3 -5.7,-8.7 -13.4,-9.4"
   id="path39" />
	<path
   class="st0"
   d="m 343.4,-87.5 c -3.8,0 -6.8,3 -6.8,6.8 0,3.8 3,6.8 6.8,6.8 3.8,0 6.8,-3.1 6.8,-6.8 0.1,-3.8 -3,-6.8 -6.8,-6.8 m 0,12.6 c -3.2,0 -5.8,-2.6 -5.8,-5.8 0,-3.2 2.6,-5.8 5.8,-5.8 3.2,0 5.8,2.6 5.8,5.8 0,3.2 -2.6,5.8 -5.8,5.8 z"
   id="path41" />
	<path
   class="st0"
   d="m 345.5,-77.4 h 2 l -2.7,-2.9 c 1,-0.1 2.3,-0.5 2.3,-2 0,-1.8 -1.8,-2 -2.8,-2 -0.7,0 -3.6,0 -3.6,0 -0.4,0 -0.8,0.4 -0.8,0.8 v 6.1 h 1.7 v -2.9 c 0.7,0 0.2,0 1.2,0 l 2.7,2.9 m -3.8,-5.8 c 1.2,0 2.1,0 2.5,0 0.6,0 1.2,0.2 1.2,0.9 0,0.7 -0.6,0.9 -1.2,0.9 -0.5,0 -1.3,0 -2.5,0 z"
   id="path43" />
</g>
</svg>
