<?xml version="1.0" encoding="utf-8"?>
<!-- Generator: Adobe Illustrator 22.1.0, SVG Export Plug-In . SVG Version: 6.00 Build 0)  -->
<svg version="1.1" id="Ebene_1" xmlns="http://www.w3.org/2000/svg" xmlns:xlink="http://www.w3.org/1999/xlink" x="0px" y="0px"
	 viewBox="0 0 745 268" style="enable-background:new 0 0 745 268;" xml:space="preserve">
<style type="text/css">
	.st0{fill:#464E4D;}
</style>
<g>
	<path class="st0" d="M45.9,138.1c0-67,64.5-92,103-92c74.3,0,396.4,0,396.4,0v120.4c0,0-0.6,5.9,3.5,9.1c2.5,2,9.3,2.7,9.3,2.7
		h28.3l0-132.2h47.4v172.3h-93.3c0,0-15.2,1.2-28.4-11.3c-13.3-12.5-13.6-22.1-13.8-31.5c-0.2-13.6,0-87.6,0-87.6h-84.4v26.5h68.7
		l0,40.5h-68.7v63.3h-47.2V88h-89.5v26.5H345V155h-67.8v23.2h68.3v40.1h-116V88h-71c0,0-53.8,0.5-53.8,48.7
		c0,37.8,33.7,44.6,43,45.3c7.9,0.6,14.7,0.5,14.7,0.5l-0.5-27.9l-18.6,0v-40.1h62.2l0.2,101c0,0-29.5,6.7-63.9,6.7
		S45.9,203.8,45.9,138.1z"/>
	<g>
		<path class="st0" d="M673.5,43.9c4.1,0,8.1,1.1,12,3.2c3.9,2.1,6.9,5.1,9.1,9c2.2,3.9,3.3,8,3.3,12.2c0,4.2-1.1,8.2-3.2,12.1
			s-5.2,6.9-9,9c-3.9,2.1-7.9,3.2-12.1,3.2c-4.2,0-8.3-1.1-12.1-3.2c-3.9-2.1-6.9-5.2-9-9c-2.2-3.9-3.2-7.9-3.2-12.1
			c0-4.2,1.1-8.3,3.3-12.2c2.2-3.9,5.2-6.9,9.1-9C665.4,45,669.4,43.9,673.5,43.9z M673.5,47.9c-3.4,0-6.8,0.9-10,2.6
			c-3.2,1.8-5.8,4.3-7.6,7.5c-1.8,3.3-2.7,6.7-2.7,10.2c0,3.5,0.9,6.9,2.7,10.1c1.8,3.2,4.3,5.7,7.6,7.5s6.6,2.7,10.1,2.7
			c3.5,0,6.9-0.9,10.1-2.7c3.2-1.8,5.7-4.3,7.5-7.5c1.8-3.2,2.7-6.6,2.7-10.1c0-3.5-0.9-6.9-2.7-10.2c-1.8-3.3-4.4-5.8-7.6-7.5
			C680.2,48.8,676.9,47.9,673.5,47.9z M662.8,81.8V55.5h9c3.1,0,5.3,0.2,6.7,0.7c1.4,0.5,2.5,1.3,3.3,2.5c0.8,1.2,1.2,2.5,1.2,3.8
			c0,1.9-0.7,3.6-2.1,5c-1.4,1.4-3.2,2.2-5.5,2.4c0.9,0.4,1.7,0.9,2.2,1.4c1.1,1,2.3,2.8,3.9,5.2l3.2,5.1h-5.2l-2.3-4.1
			c-1.8-3.3-3.3-5.3-4.4-6.1c-0.8-0.6-1.9-0.9-3.4-0.9H667v11.2H662.8z M667,67h5.1c2.5,0,4.1-0.4,5-1.1c0.9-0.7,1.3-1.7,1.3-2.9
			c0-0.8-0.2-1.5-0.6-2.1c-0.4-0.6-1-1.1-1.8-1.4c-0.8-0.3-2.2-0.5-4.3-0.5H667V67z"/>
	</g>
</g>
</svg>
