<?xml version="1.0" encoding="UTF-8" standalone="no"?>
<!-- Generator: Adobe Illustrator 25.1.0, SVG Export Plug-In . SVG Version: 6.00 Build 0)  -->

<svg
   version="1.1"
   id="Слой_1"
   x="0px"
   y="0px"
   viewBox="0 0 150.97 30.139999"
   xml:space="preserve"
   sodipodi:docname="valera-logo-1.svg"
   width="150.97"
   height="30.139999"
   inkscape:version="1.2.1 (9c6d41e410, 2022-07-14)"
   xmlns:inkscape="http://www.inkscape.org/namespaces/inkscape"
   xmlns:sodipodi="http://sodipodi.sourceforge.net/DTD/sodipodi-0.dtd"
   xmlns="http://www.w3.org/2000/svg"
   xmlns:svg="http://www.w3.org/2000/svg"><defs
   id="defs252" /><sodipodi:namedview
   id="namedview250"
   pagecolor="#ffffff"
   bordercolor="#000000"
   borderopacity="0.25"
   inkscape:showpageshadow="2"
   inkscape:pageopacity="0.0"
   inkscape:pagecheckerboard="0"
   inkscape:deskcolor="#d1d1d1"
   showgrid="false"
   inkscape:zoom="10.103481"
   inkscape:cx="75.815455"
   inkscape:cy="30.929934"
   inkscape:window-width="1920"
   inkscape:window-height="1001"
   inkscape:window-x="-9"
   inkscape:window-y="-9"
   inkscape:window-maximized="1"
   inkscape:current-layer="Слой_1" />
<style
   type="text/css"
   id="style128">
	.st0{fill:#FFFFFF;}
	.st1{fill-rule:evenodd;clip-rule:evenodd;fill:#C4211A;}
	.st2{fill:#C4211A;}
	.st3{font-family:'MyriadPro-Regular';}
	.st4{font-size:3.1427px;}
	.st5{fill-rule:evenodd;clip-rule:evenodd;fill:url(#SVGID_1_);}
	.st6{fill:url(#SVGID_2_);}
	.st7{fill:url(#SVGID_3_);}
	.st8{fill:url(#SVGID_4_);}
	.st9{fill-rule:evenodd;clip-rule:evenodd;fill:url(#SVGID_5_);}
	.st10{fill:url(#SVGID_6_);}
	.st11{fill-rule:evenodd;clip-rule:evenodd;fill:#FEFEFE;}
	.st12{fill:url(#SVGID_7_);}
	.st13{fill:url(#SVGID_8_);}
	.st14{fill:url(#SVGID_9_);}
	.st15{fill:url(#SVGID_10_);}
	.st16{fill:url(#SVGID_11_);}
	.st17{fill:none;}
	.st18{fill:#E2E0E0;}
	.st19{fill:#D9DADA;}
</style>
<g
   id="g247"
   transform="translate(-3.95,-3.48)">
	
	<g
   id="Слой_x0020_1">
		<g
   id="_362427024">
			<g
   id="g144">
				<path
   class="st1"
   d="m 3.95,3.53 c 0,0 0.92,6.45 2.13,14.31 l 2.13,14.27 3.11,0.05 c 1.7,0 3.93,0 5,-0.05 h 1.94 l 0.48,-0.82 c 0.29,-0.48 1.12,-1.85 1.89,-3.11 C 24.91,21.2 34.52,5.29 35,4.46 l 0.58,-0.92 h -4.22 c -2.28,0 -4.22,0 -4.22,0 C 27.09,3.59 24.52,8.2 21.32,13.83 15.4,24.3 15.4,24.3 15.35,23.91 15.3,23.86 15.21,22.99 15.11,21.97 14.67,18.52 12.98,3.92 12.92,3.73 L 12.87,3.49 H 8.42 C 5.94,3.48 3.95,3.53 3.95,3.53 Z"
   id="path132" />
				<path
   class="st1"
   d="m 54.03,3.68 c 0,0.05 -1.41,6.5 -3.15,14.22 -1.7,7.76 -3.15,14.12 -3.15,14.17 0,0.1 0.14,0.1 3.88,0.14 2.13,0 3.88,-0.05 3.93,-0.05 0,-0.05 6.31,-28.49 6.31,-28.63 0,0 -1.07,-0.05 -3.88,-0.05 h -3.88 z"
   id="path134" />
				<path
   class="st1"
   d="m 71.2,11.3 c -2.67,0.24 -5.39,1.36 -7.47,3.06 -1.85,1.41 -3.3,3.54 -3.88,5.58 -1.46,5.1 -1.26,8.35 0.63,10.58 0.48,0.53 1.55,1.21 2.62,1.6 0.63,0.24 1.55,0.48 2.43,0.63 0.68,0.1 0.92,0.1 2.81,0.1 2.28,0 2.57,0 3.84,-0.29 3.49,-0.73 6.5,-2.77 7.96,-5.34 0.24,-0.39 0.63,-1.21 0.63,-1.31 0,0 -1.26,-0.05 -3.54,-0.05 h -3.54 l -0.2,0.34 c -0.44,0.97 -1.41,1.89 -2.38,2.28 -0.87,0.34 -2.38,0.44 -3.15,0.24 -1.12,-0.29 -1.75,-0.97 -1.94,-1.99 -0.14,-0.68 -0.1,-1.79 0.14,-2.91 l 0.1,-0.39 7.62,0.05 h 7.62 l 0.05,-0.24 c 0.29,-1.36 0.44,-2.57 0.48,-3.84 0.05,-2.47 -0.34,-4.03 -1.31,-5.34 -1.21,-1.65 -3.25,-2.57 -6.21,-2.77 -0.74,-0.09 -2.72,-0.04 -3.31,0.01 z m 1.75,3.59 c 0.53,0.14 0.92,0.34 1.31,0.68 0.63,0.63 0.97,1.7 0.92,2.96 -0.05,0.53 -0.1,0.92 -0.14,0.97 0,0 -1.79,0.05 -3.88,0 h -3.88 l 0.2,-0.63 c 0.68,-1.99 1.85,-3.35 3.2,-3.78 0.82,-0.26 1.64,-0.35 2.27,-0.2 z"
   id="path136" />
				<path
   class="st1"
   d="m 39.81,11.49 c -1.46,0.1 -2.33,0.24 -3.49,0.44 -1.26,0.29 -2.86,0.78 -3.54,1.12 -1.46,0.73 -2.77,1.99 -3.45,3.25 -0.2,0.44 -0.44,1.12 -0.53,1.46 l -0.05,0.2 h 3.69 c 1.99,-0.05 3.64,-0.05 3.64,-0.1 0,0 0.05,-0.14 0.1,-0.29 0.2,-0.63 0.73,-1.46 1.12,-1.89 0.73,-0.63 1.41,-0.92 2.38,-0.92 0.87,0 1.41,0.2 1.79,0.58 0.58,0.63 0.63,1.31 0.24,3.06 -0.1,0.53 -0.2,0.97 -0.2,0.97 0,0 -0.58,0 -1.26,0 -1.99,-0.05 -4.08,0.1 -5.53,0.29 -3.45,0.53 -6.26,1.79 -7.67,3.59 -0.87,1.07 -1.41,2.23 -1.65,3.64 0,0.2 -0.05,0.73 -0.05,1.16 0,1.89 0.39,2.77 1.55,3.64 0.68,0.53 1.46,0.82 2.67,1.07 0.53,0.1 0.78,0.1 1.89,0.1 1.41,0 1.65,-0.05 2.71,-0.29 1.85,-0.53 3.69,-1.65 4.85,-2.96 0.2,-0.24 0.34,-0.39 0.34,-0.39 0,0.05 -0.1,0.68 -0.34,1.99 -0.05,0.29 -0.1,0.63 -0.1,0.78 v 0.24 h 3.74 3.74 l -0.05,-0.2 c 0,-0.1 -0.05,-0.24 -0.05,-0.29 -0.05,-0.14 0.05,-0.87 0.2,-1.75 0.1,-0.39 0.73,-3.4 1.41,-6.69 0.68,-3.25 1.31,-6.07 1.31,-6.21 0.05,-0.34 0.05,-1.31 -0.05,-1.65 -0.2,-0.68 -0.63,-1.41 -1.07,-1.85 -0.48,-0.44 -1.51,-1.07 -2.19,-1.31 -0.78,-0.29 -1.94,-0.53 -3.15,-0.68 -0.62,-0.06 -2.42,-0.11 -2.95,-0.11 z m 0.87,11.06 c 0,0.05 -0.1,0.68 -0.29,1.41 -0.58,2.23 -1.55,3.69 -2.91,4.32 -0.92,0.44 -1.99,0.53 -2.86,0.24 -1.02,-0.34 -1.6,-1.31 -1.46,-2.47 0.14,-1.12 0.78,-1.99 2.04,-2.67 0.92,-0.53 1.7,-0.73 3.01,-0.82 0.68,-0.05 2.42,-0.05 2.47,-0.01 z"
   id="path138" />
				<path
   class="st1"
   d="m 111.09,11.54 c -2.38,0.14 -5.04,0.73 -6.6,1.46 -1.51,0.73 -2.91,2.09 -3.59,3.49 -0.2,0.44 -0.48,1.21 -0.48,1.41 0,0.05 0.44,0.05 3.64,0.05 1.99,-0.05 3.64,-0.05 3.69,-0.1 0,0 0.05,-0.14 0.1,-0.29 0.1,-0.44 0.48,-1.12 0.78,-1.51 0.68,-0.82 1.65,-1.31 2.67,-1.31 0.44,0 1.16,0.14 1.41,0.24 0.24,0.14 0.58,0.53 0.73,0.78 0.29,0.58 0.29,1.21 -0.1,2.86 -0.1,0.39 -0.2,0.73 -0.2,0.73 0,0 -0.87,0 -1.94,0 -2.04,0 -2.91,0.05 -4.27,0.24 -2.67,0.34 -4.85,1.02 -6.55,2.13 -1.75,1.12 -2.91,2.91 -3.3,5 -0.14,0.97 -0.05,2.62 0.2,3.35 0.24,0.63 0.78,1.26 1.46,1.75 0.68,0.48 1.21,0.68 2.38,0.87 0.58,0.14 0.73,0.14 1.94,0.14 1.21,0 1.41,0 1.89,-0.1 2.43,-0.48 4.42,-1.6 5.87,-3.35 0.14,-0.14 0.24,-0.2 0.24,-0.2 0,0.05 -0.1,0.48 -0.14,0.92 -0.24,1.21 -0.29,1.7 -0.29,1.89 v 0.2 h 3.69 c 2.04,0 3.74,0 3.74,-0.05 0,0 0,-0.1 -0.05,-0.29 -0.1,-0.63 0,-1.31 1.55,-8.54 0.68,-3.15 1.26,-5.92 1.31,-6.11 0.1,-0.48 0.05,-1.41 -0.1,-1.89 -0.24,-0.92 -0.82,-1.7 -1.65,-2.23 -1.07,-0.73 -1.94,-1.07 -3.49,-1.36 -1.24,-0.18 -3.18,-0.28 -4.54,-0.18 z m 1.07,11.01 c 0.2,0 0.2,0.05 0,0.92 -0.68,3.01 -1.94,4.61 -3.84,5.1 -1.51,0.34 -2.81,-0.1 -3.3,-1.16 -0.34,-0.58 -0.34,-1.26 -0.1,-1.99 0.34,-1.02 1.36,-1.89 2.81,-2.47 0.44,-0.14 1.36,-0.34 2.13,-0.39 0.7,-0.05 2.1,-0.05 2.3,-0.01 z"
   id="path140" />
				<path
   class="st1"
   d="m 98.77,11.59 c -0.97,0.1 -1.89,0.34 -2.77,0.78 -1.36,0.63 -2.28,1.55 -2.91,2.81 -0.14,0.24 -0.24,0.48 -0.29,0.48 -0.1,0 -0.2,-0.14 -0.2,-0.24 0,-0.1 0.1,-0.78 0.2,-1.55 0.1,-0.77 0.2,-1.46 0.2,-1.51 0,0 -1.46,-0.05 -3.98,-0.05 h -3.98 l -0.1,0.63 c -0.29,1.65 -0.73,3.69 -2.28,11.11 -0.97,4.37 -1.75,8.01 -1.75,8.06 0,0.1 0.2,0.1 3.84,0.1 2.13,0 3.88,-0.05 3.88,-0.05 0.05,-0.05 0.48,-2.04 1.02,-4.46 1.07,-5.04 1.16,-5.43 1.65,-6.41 0.58,-1.16 1.55,-2.13 2.71,-2.71 0.44,-0.24 1.31,-0.48 2.04,-0.63 0.53,-0.1 0.78,-0.1 1.85,-0.1 h 1.26 l 0.68,-3.11 c 0.34,-1.65 0.68,-3.11 0.68,-3.15 0,-0.05 -0.05,-0.05 -0.68,-0.05 -0.39,0 -0.83,0 -1.07,0.05 z"
   id="path142" />
			</g>
			<path
   class="st2"
   d="m 119.14,6.54 c 0.48,0 0.92,0.2 1.26,0.48 0.34,0.34 0.53,0.78 0.53,1.26 0,0.53 -0.2,0.97 -0.53,1.26 -0.34,0.34 -0.78,0.53 -1.26,0.53 -0.48,0 -0.92,-0.2 -1.26,-0.53 -0.34,-0.29 -0.53,-0.73 -0.53,-1.26 0,-0.48 0.2,-0.92 0.53,-1.26 0.34,-0.28 0.78,-0.48 1.26,-0.48 z m 1.07,0.68 c -0.24,-0.29 -0.63,-0.44 -1.07,-0.44 -0.44,0 -0.78,0.14 -1.07,0.44 -0.29,0.29 -0.44,0.68 -0.44,1.07 0,0.44 0.14,0.82 0.44,1.12 0.29,0.24 0.63,0.44 1.07,0.44 0.44,0 0.82,-0.2 1.07,-0.44 0.29,-0.29 0.48,-0.68 0.48,-1.12 0.01,-0.39 -0.19,-0.78 -0.48,-1.07 z"
   id="path146" />
			<g
   transform="matrix(0.999999,0,0,0.999999,888.483,1120.46)"
   id="g150">
				<text
   transform="translate(-770.2141,-1111.1273)"
   class="st2 st3 st4"
   id="text148">R</text>
			</g>
			
				<radialGradient
   id="SVGID_1_"
   cx="2180.3308"
   cy="1001.2855"
   r="10.2423"
   gradientTransform="matrix(1.7949,1.0418,-1.0748,1.8518,-2706.3037,-4116.9414)"
   gradientUnits="userSpaceOnUse">
				<stop
   offset="0"
   style="stop-color:#5B595E"
   id="stop152" />
				<stop
   offset="1"
   style="stop-color:#09090C"
   id="stop154" />
			</radialGradient>
			<path
   class="st5"
   d="m 140.4,33.13 v 0 c 2.86,-0.05 5.68,-0.58 7.71,-1.7 0.58,-0.34 0.39,-0.29 0.78,-0.53 0.73,-0.48 1.46,-1.21 1.94,-1.89 1.02,-1.41 1.7,-3.15 2.19,-4.9 v 0 c 0,0 0,-0.05 0,-0.1 0.24,-0.87 0.44,-1.7 0.63,-2.52 0.1,-0.34 0.2,-0.97 0.34,-1.7 0.14,-0.97 0.29,-1.99 0.34,-2.96 0.05,-0.29 0.05,-0.97 0.05,-1.51 v 0 c 0,-0.39 0,-0.73 0,-0.82 0,-1.94 -0.68,-4.46 -1.79,-5.97 -0.68,-0.87 -1.51,-1.6 -2.47,-2.13 v 0 c 0,0 -0.48,-0.39 -1.6,-0.82 -0.58,-0.29 -1.12,-0.48 -1.75,-0.63 -1.55,-0.44 -3.64,-0.82 -6.36,-0.92 v 0 h -0.1 -0.14 v 0 c -2.71,0.1 -4.8,0.48 -6.31,0.92 -0.68,0.14 -1.21,0.34 -1.79,0.63 -1.12,0.44 -1.6,0.82 -1.6,0.82 v 0 c -0.97,0.53 -1.75,1.26 -2.43,2.13 -1.12,1.51 -1.85,4.03 -1.85,5.97 0,0.1 0,0.44 0,0.82 v 0 c 0,0.53 0,1.21 0.05,1.51 0.05,0.97 0.2,1.99 0.39,2.96 0.1,0.73 0.2,1.36 0.29,1.7 0.2,0.82 0.39,1.65 0.63,2.52 0,0.05 0,0.1 0,0.1 v 0 c 0.48,1.75 1.16,3.49 2.19,4.9 0.53,0.68 1.21,1.41 1.94,1.89 0.39,0.24 0.2,0.2 0.78,0.53 2.09,1.12 4.85,1.65 7.71,1.7 v 0 0 0 c 0.05,0 0.1,0 0.14,0 v 0 c -0.01,0 0.04,0 0.09,0 z"
   id="path157"
   style="fill:url(#SVGID_1_)" />
			
				<linearGradient
   id="SVGID_2_"
   gradientUnits="userSpaceOnUse"
   x1="101.5958"
   y1="388.95859"
   x2="101.3038"
   y2="386.1969"
   gradientTransform="matrix(0.9437,0,0,0.9437,44.4751,-335.8705)">
				<stop
   offset="0"
   style="stop-color:#2B2A29"
   id="stop159" />
				<stop
   offset="1"
   style="stop-color:#FEFEFE"
   id="stop161" />
			</linearGradient>
			<path
   class="st6"
   d="m 136.47,31.33 -0.44,-0.05 h -0.05 v -0.05 l 0.14,-2.28 c 0,0.05 -0.05,0.05 -0.1,0.05 -0.05,0.05 -0.14,0.1 -0.24,0.14 -0.05,0.05 -0.14,0.05 -0.24,0.1 -0.05,0 -0.14,0.05 -0.2,0.05 l -0.1,0.05 v -0.1 l 0.05,-0.34 v -0.05 h 0.05 c 0.1,-0.05 0.24,-0.1 0.34,-0.14 0.1,-0.04 0.2,-0.1 0.29,-0.2 v 0 c 0.1,-0.05 0.14,-0.1 0.24,-0.2 0.05,-0.05 0.1,-0.1 0.14,-0.14 v -0.05 h 0.05 l 0.24,0.05 h 0.05 v 0.05 l -0.2,3.06 v 0.05 z m -0.39,-0.14 0.34,0.05 0.2,-2.96 -0.2,-0.05 c -0.05,0.1 -0.1,0.14 -0.14,0.2 -0.05,0.05 -0.14,0.14 -0.24,0.2 v 0 c -0.1,0.05 -0.2,0.14 -0.29,0.2 -0.1,0.05 -0.24,0.1 -0.34,0.1 v 0.29 c 0.05,-0.05 0.1,-0.05 0.14,-0.05 0.05,-0.05 0.14,-0.05 0.24,-0.1 0.05,-0.05 0.14,-0.1 0.2,-0.14 0.1,0 0.14,-0.05 0.2,-0.1 l 0.1,-0.05 v 0.1 z m 1.55,-0.53 0.39,-0.05 h 0.05 v 0.05 c 0,0.1 0.05,0.14 0.1,0.24 0,0.05 0.05,0.1 0.1,0.1 0,0.05 0.05,0.1 0.14,0.1 0.05,0 0.1,0.05 0.2,0.05 0.05,0 0.1,0 0.14,-0.05 0.05,0 0.1,0 0.14,-0.05 v 0 c 0.05,0 0.1,-0.05 0.14,-0.05 v 0 c 0.05,-0.05 0.05,-0.1 0.1,-0.1 v 0 c 0,-0.05 0.05,-0.1 0.1,-0.14 0,-0.1 0.05,-0.14 0.05,-0.2 v 0 c 0.05,-0.1 0.05,-0.14 0.05,-0.24 0,-0.05 0.05,-0.1 0.05,-0.14 -0.05,0 -0.05,0.05 -0.1,0.05 -0.05,0.05 -0.1,0.1 -0.2,0.14 v 0 c -0.1,0 -0.14,0.05 -0.24,0.05 -0.1,0.05 -0.2,0.05 -0.24,0.05 -0.14,0 -0.29,-0.05 -0.44,-0.1 -0.1,-0.05 -0.24,-0.14 -0.34,-0.24 -0.1,-0.1 -0.14,-0.2 -0.2,-0.34 -0.05,-0.14 -0.1,-0.29 -0.1,-0.44 0.05,-0.14 0.05,-0.29 0.1,-0.44 0.1,-0.14 0.14,-0.24 0.29,-0.34 0.1,-0.1 0.24,-0.14 0.34,-0.2 0.14,-0.05 0.29,-0.1 0.48,-0.05 0.1,0 0.2,0 0.29,0.05 v 0 c 0.14,0 0.24,0.05 0.34,0.14 0.1,0.05 0.14,0.1 0.24,0.2 0.05,0.1 0.1,0.2 0.14,0.29 v 0 c 0.05,0.1 0.1,0.24 0.1,0.39 0.05,0.14 0.05,0.29 0.05,0.48 0,0.2 -0.05,0.39 -0.05,0.53 -0.05,0.14 -0.1,0.29 -0.14,0.44 -0.05,0.1 -0.1,0.2 -0.2,0.29 -0.1,0.1 -0.14,0.2 -0.29,0.24 -0.1,0.05 -0.2,0.1 -0.29,0.14 -0.14,0 -0.24,0 -0.39,0 -0.14,0 -0.24,0 -0.39,-0.05 -0.1,-0.05 -0.2,-0.1 -0.29,-0.2 v 0 c -0.1,-0.05 -0.14,-0.14 -0.2,-0.24 -0.05,-0.1 -0.1,-0.24 -0.1,-0.34 v -0.05 z m 0.34,0.09 h -0.29 c 0,0.1 0.05,0.14 0.1,0.24 0.05,0.1 0.1,0.14 0.14,0.24 v 0 c 0.1,0.05 0.2,0.1 0.29,0.14 0.1,0.05 0.24,0.05 0.34,0.05 0.14,0 0.24,0 0.34,-0.05 0.1,0 0.2,-0.05 0.29,-0.1 0.1,-0.05 0.2,-0.14 0.24,-0.2 0.1,-0.1 0.14,-0.2 0.2,-0.29 0.05,-0.1 0.1,-0.24 0.1,-0.39 0.05,-0.14 0.05,-0.34 0.1,-0.53 0,-0.2 0,-0.34 -0.05,-0.48 0,-0.14 -0.05,-0.24 -0.1,-0.34 v 0 c -0.05,-0.1 -0.1,-0.2 -0.14,-0.29 -0.05,-0.05 -0.14,-0.14 -0.24,-0.2 -0.05,-0.05 -0.14,-0.1 -0.24,-0.1 v 0 c -0.1,-0.05 -0.2,-0.05 -0.34,-0.05 -0.14,0 -0.24,0 -0.39,0.05 -0.14,0.05 -0.24,0.1 -0.34,0.2 -0.1,0.1 -0.2,0.2 -0.24,0.29 -0.05,0.1 -0.05,0.24 -0.05,0.39 -0.05,0.14 0,0.29 0.05,0.39 0.05,0.14 0.1,0.24 0.2,0.34 0.1,0.1 0.2,0.14 0.29,0.2 0.09,0.06 0.24,0.05 0.39,0.1 0.05,0 0.14,-0.05 0.24,-0.05 0.05,0 0.14,-0.05 0.2,-0.05 v 0 c 0.1,-0.05 0.14,-0.1 0.2,-0.14 0.05,-0.05 0.1,-0.1 0.14,-0.14 l 0.1,-0.1 v 0.14 0.05 0 0 0.05 c 0,0.05 0,0.14 -0.05,0.2 0,0.1 0,0.2 -0.05,0.24 v 0 c 0,0.1 -0.05,0.14 -0.05,0.24 -0.05,0.05 -0.1,0.1 -0.1,0.14 v 0 c -0.05,0.05 -0.1,0.1 -0.14,0.1 v 0 c -0.05,0.05 -0.1,0.1 -0.14,0.1 v 0 c -0.05,0.05 -0.1,0.05 -0.2,0.1 -0.05,0 -0.1,0 -0.2,0 -0.05,0 -0.14,0 -0.2,-0.05 -0.05,0 -0.14,-0.05 -0.2,-0.1 -0.05,-0.05 -0.1,-0.1 -0.1,-0.2 -0.05,-0.04 -0.05,-0.09 -0.1,-0.14 z m 1.36,-1.35 c 0,-0.1 0,-0.2 -0.05,-0.29 0,-0.05 -0.05,-0.14 -0.1,-0.2 -0.05,-0.05 -0.14,-0.1 -0.2,-0.14 -0.05,0 -0.14,-0.05 -0.24,-0.05 -0.1,0 -0.14,0 -0.24,0.05 v 0 c -0.05,0.05 -0.14,0.1 -0.2,0.14 -0.1,0.05 -0.14,0.14 -0.14,0.2 -0.05,0.1 -0.05,0.2 -0.1,0.29 0,0.1 0.05,0.14 0.05,0.24 0.05,0.05 0.1,0.14 0.14,0.2 0.05,0.05 0.1,0.1 0.2,0.14 0.05,0 0.14,0.05 0.24,0.05 0.1,0 0.2,0 0.24,-0.05 0.1,0 0.14,-0.05 0.2,-0.1 v 0 c 0.1,-0.05 0.1,-0.14 0.14,-0.2 0.06,-0.09 0.06,-0.19 0.06,-0.28 z m 0.1,-0.3 c 0,0.1 0,0.2 0,0.29 0,0.14 0,0.24 -0.05,0.29 -0.05,0.1 -0.1,0.2 -0.14,0.24 v 0 c -0.1,0.1 -0.14,0.14 -0.24,0.14 -0.1,0.05 -0.2,0.05 -0.29,0.05 -0.09,0 -0.2,-0.05 -0.29,-0.05 -0.1,-0.05 -0.14,-0.1 -0.24,-0.2 -0.05,-0.05 -0.1,-0.14 -0.14,-0.2 0,-0.1 -0.05,-0.2 -0.05,-0.29 0,-0.14 0.05,-0.24 0.1,-0.34 0.05,-0.1 0.1,-0.14 0.14,-0.24 0.1,-0.05 0.2,-0.1 0.24,-0.14 v 0 c 0.1,-0.05 0.2,-0.05 0.29,-0.05 0.09,0 0.2,0.05 0.29,0.05 0.1,0.05 0.14,0.1 0.24,0.2 0.04,0.06 0.09,0.16 0.14,0.25 z m 0.78,1.56 h 0.44 0.05 v 0.05 c 0.05,0.1 0.05,0.14 0.1,0.24 0.05,0.05 0.1,0.1 0.14,0.14 0.05,0.05 0.1,0.1 0.14,0.1 v 0 c 0.1,0 0.14,0.05 0.24,0.05 0.1,0 0.2,-0.05 0.24,-0.05 v 0 c 0.1,-0.05 0.14,-0.1 0.24,-0.14 0.05,-0.1 0.1,-0.14 0.14,-0.24 0,-0.1 0.05,-0.2 0.05,-0.29 0,-0.1 -0.05,-0.2 -0.05,-0.24 -0.05,-0.1 -0.1,-0.14 -0.14,-0.2 -0.05,-0.1 -0.14,-0.1 -0.2,-0.14 -0.1,-0.05 -0.2,-0.05 -0.29,-0.05 -0.1,0 -0.14,0 -0.2,0 -0.05,0.05 -0.1,0.05 -0.14,0.1 -0.05,0 -0.1,0.05 -0.14,0.1 -0.05,0 -0.1,0.05 -0.1,0.1 h -0.05 v 0 l -0.39,-0.05 h -0.1 l 0.05,-0.05 0.29,-1.6 h 0.05 v 0 l 1.75,-0.05 h 0.05 v 0.1 0.34 0.05 h -0.05 -1.36 l -0.14,0.68 c 0.1,-0.05 0.14,-0.05 0.24,-0.1 0.1,-0.05 0.24,-0.05 0.34,-0.05 0.14,0 0.29,0 0.44,0.05 0.14,0.05 0.24,0.14 0.34,0.24 0.14,0.1 0.2,0.2 0.24,0.34 0.1,0.1 0.1,0.24 0.1,0.44 0,0.14 0,0.24 -0.05,0.39 -0.05,0.14 -0.14,0.24 -0.24,0.34 -0.1,0.14 -0.24,0.24 -0.39,0.29 -0.14,0.1 -0.34,0.1 -0.53,0.1 -0.14,0 -0.29,0 -0.44,-0.05 -0.14,-0.05 -0.24,-0.1 -0.34,-0.2 -0.14,-0.1 -0.2,-0.2 -0.29,-0.29 -0.05,-0.1 -0.1,-0.24 -0.1,-0.34 v -0.1 z m 0.38,0.09 h -0.34 c 0.05,0.14 0.05,0.2 0.1,0.29 0.05,0.1 0.14,0.2 0.24,0.24 0.1,0.1 0.2,0.14 0.34,0.2 0.1,0.05 0.24,0.05 0.39,0.05 0.2,0 0.34,-0.05 0.48,-0.1 0.14,-0.05 0.29,-0.14 0.39,-0.24 v 0 c 0.05,-0.1 0.14,-0.24 0.2,-0.34 0.05,-0.1 0.05,-0.24 0.05,-0.34 0,-0.14 -0.05,-0.29 -0.1,-0.39 -0.05,-0.14 -0.1,-0.24 -0.2,-0.29 -0.1,-0.1 -0.2,-0.2 -0.34,-0.2 -0.1,-0.05 -0.24,-0.1 -0.39,-0.1 -0.1,0 -0.2,0 -0.29,0.05 -0.14,0.05 -0.24,0.1 -0.34,0.14 l -0.1,0.05 0.05,-0.1 0.14,-0.82 0.05,-0.05 v 0 h 1.36 v -0.24 h -1.65 l -0.29,1.46 0.29,0.05 c 0.05,-0.05 0.1,-0.05 0.14,-0.1 0,-0.05 0.1,-0.1 0.14,-0.1 0.05,-0.05 0.1,-0.05 0.2,-0.1 0.05,0 0.1,0 0.2,0 0.1,0 0.2,0 0.29,0.05 0.1,0.05 0.2,0.1 0.24,0.14 0.1,0.05 0.14,0.14 0.2,0.24 0.05,0.1 0.05,0.2 0.05,0.29 0,0.14 0,0.24 -0.05,0.34 -0.05,0.1 -0.1,0.2 -0.2,0.24 v 0 c -0.05,0.1 -0.14,0.14 -0.24,0.2 v 0 c -0.1,0 -0.2,0.05 -0.29,0.05 -0.09,0 -0.2,0 -0.24,-0.05 v 0 c -0.1,0 -0.14,-0.05 -0.24,-0.1 -0.05,-0.05 -0.1,-0.14 -0.14,-0.2 -0.05,-0.07 -0.05,-0.12 -0.1,-0.22 z m 2.23,-0.14 0.44,-0.05 h 0.05 v 0.05 c 0.05,0.1 0.05,0.14 0.1,0.24 0.05,0.05 0.1,0.1 0.14,0.14 v 0 c 0.05,0.05 0.1,0.05 0.2,0.1 0.05,0 0.14,0 0.2,0 0.1,0 0.2,0 0.29,-0.05 0.05,-0.05 0.14,-0.1 0.2,-0.14 0.14,-0.14 0.2,-0.29 0.2,-0.53 -0.05,-0.1 -0.05,-0.2 -0.1,-0.24 0,-0.1 -0.05,-0.14 -0.14,-0.2 -0.05,-0.05 -0.1,-0.1 -0.2,-0.14 v 0 c -0.1,0 -0.2,0 -0.29,0 -0.05,0 -0.14,0 -0.2,0 -0.05,0.05 -0.1,0.05 -0.14,0.1 v 0 c -0.05,0 -0.1,0.05 -0.14,0.1 v 0 c 0,0 -0.05,0.05 -0.1,0.1 v 0.05 l -0.05,-0.05 h -0.39 -0.05 v -0.05 l 0.24,-1.6 0.05,-0.05 h 0.05 l 1.7,-0.1 h 0.05 v 0.05 0.39 0.05 h -0.05 l -1.31,0.05 -0.14,0.68 c 0.1,-0.05 0.14,-0.1 0.24,-0.1 v 0 c 0.1,-0.05 0.2,-0.05 0.34,-0.05 0.14,-0.05 0.29,0 0.44,0.05 0.14,0.05 0.24,0.1 0.34,0.2 0.14,0.1 0.24,0.2 0.29,0.34 0.05,0.1 0.1,0.24 0.1,0.39 0,0.15 0,0.29 -0.05,0.44 -0.05,0.1 -0.1,0.24 -0.2,0.34 v 0 c -0.14,0.14 -0.24,0.24 -0.39,0.29 -0.2,0.1 -0.34,0.14 -0.53,0.14 -0.2,0 -0.34,0 -0.44,-0.05 -0.14,-0.05 -0.29,-0.1 -0.39,-0.2 v 0 c -0.1,-0.05 -0.2,-0.14 -0.24,-0.24 -0.1,-0.1 -0.1,-0.24 -0.14,-0.39 v -0.05 z m 0.39,0.05 -0.34,0.05 c 0.05,0.1 0.1,0.2 0.14,0.29 0.04,0.09 0.1,0.14 0.2,0.24 v 0 c 0.1,0.05 0.24,0.1 0.34,0.14 0.14,0.05 0.24,0.05 0.44,0.05 0.14,0 0.34,-0.05 0.48,-0.14 0.1,-0.05 0.24,-0.14 0.34,-0.24 v 0 c 0.1,-0.1 0.14,-0.24 0.2,-0.34 0,-0.1 0.05,-0.24 0.05,-0.39 0,-0.14 -0.05,-0.24 -0.1,-0.34 -0.05,-0.14 -0.14,-0.24 -0.24,-0.29 -0.1,-0.1 -0.2,-0.14 -0.34,-0.2 -0.1,-0.05 -0.24,-0.05 -0.39,-0.05 -0.1,0 -0.2,0 -0.29,0.05 v 0 c -0.14,0.05 -0.24,0.1 -0.34,0.14 l -0.1,0.1 0.05,-0.14 0.14,-0.82 v -0.05 h 0.05 l 1.31,-0.05 v -0.24 l -1.65,0.05 -0.24,1.51 h 0.34 c 0,-0.05 0.05,-0.05 0.1,-0.1 v 0 c 0.05,-0.05 0.1,-0.1 0.14,-0.1 v 0 c 0.05,-0.05 0.1,-0.05 0.2,-0.1 0.05,0 0.1,0 0.2,0 0.1,-0.05 0.2,0 0.29,0 v 0 c 0.1,0.05 0.2,0.1 0.29,0.14 0.05,0.1 0.14,0.14 0.14,0.24 0.05,0.1 0.1,0.2 0.1,0.29 0,0.24 -0.05,0.44 -0.2,0.58 v 0 c -0.1,0.1 -0.2,0.14 -0.24,0.2 -0.1,0.05 -0.2,0.05 -0.34,0.05 -0.05,0.05 -0.14,0 -0.24,0 -0.05,-0.05 -0.14,-0.05 -0.2,-0.1 v 0 c -0.1,-0.05 -0.14,-0.14 -0.2,-0.2 -0.04,-0.09 -0.04,-0.14 -0.09,-0.23 z"
   id="path164"
   style="fill:url(#SVGID_2_)" />
			
				<linearGradient
   id="SVGID_3_"
   gradientUnits="userSpaceOnUse"
   x1="101.5331"
   y1="364.91351"
   x2="101.2637"
   y2="362.56601"
   gradientTransform="matrix(0.9437,0,0,0.9437,44.4751,-335.8705)">
				<stop
   offset="0"
   style="stop-color:#2B2A29"
   id="stop166" />
				<stop
   offset="1"
   style="stop-color:#FEFEFE"
   id="stop168" />
			</linearGradient>
			<path
   class="st7"
   d="m 133.32,8.53 0.34,-0.1 0.05,-0.05 0.05,0.05 c 0,0.1 0.05,0.14 0.1,0.2 v 0 c 0,0.05 0.05,0.1 0.1,0.14 v 0 c 0.05,0 0.1,0.05 0.14,0.05 0.05,0.05 0.1,0.05 0.2,0.1 v 0 c 0.05,0 0.14,0 0.2,0 0.1,0 0.14,-0.05 0.24,-0.05 0.1,-0.05 0.14,-0.05 0.2,-0.1 0.05,0 0.14,-0.05 0.2,-0.1 0.05,0 0.05,-0.05 0.1,-0.1 0.05,-0.05 0.05,-0.05 0.05,-0.1 0.05,-0.05 0.05,-0.1 0.05,-0.14 0,-0.04 0,-0.05 0,-0.1 -0.05,-0.05 -0.05,-0.1 -0.05,-0.1 -0.05,-0.05 -0.05,-0.1 -0.1,-0.1 v 0 C 135.11,8 135.11,8 135.06,8 c -0.05,-0.05 -0.1,-0.05 -0.2,-0.05 -0.05,0 -0.1,0 -0.2,0 -0.1,0 -0.2,0 -0.34,0 -0.14,0 -0.29,0 -0.39,0 -0.09,0 -0.2,-0.05 -0.24,-0.05 v 0 c -0.1,0 -0.2,-0.05 -0.24,-0.05 -0.05,-0.05 -0.14,-0.1 -0.2,-0.14 -0.05,-0.05 -0.1,-0.1 -0.14,-0.14 0,-0.1 -0.05,-0.14 -0.05,-0.24 -0.05,-0.05 -0.05,-0.14 -0.05,-0.24 0,-0.05 0,-0.14 0.05,-0.24 0.05,-0.05 0.05,-0.14 0.1,-0.2 0.05,-0.1 0.14,-0.14 0.2,-0.2 v 0 c 0.1,-0.05 0.2,-0.1 0.24,-0.14 0.1,-0.05 0.2,-0.1 0.29,-0.1 0.14,-0.05 0.24,-0.05 0.34,-0.1 0.1,0 0.2,0 0.29,0.05 v 0 c 0.1,0 0.2,0 0.29,0.05 0.1,0.05 0.14,0.1 0.24,0.14 v 0 c 0.05,0.05 0.1,0.14 0.14,0.2 0.05,0.1 0.1,0.2 0.1,0.24 l 0.05,0.05 -0.05,0.05 -0.39,0.1 -0.05,0.05 V 6.98 c -0.05,-0.1 -0.1,-0.14 -0.14,-0.24 -0.05,-0.05 -0.1,-0.1 -0.14,-0.1 v 0 c -0.05,-0.05 -0.14,-0.05 -0.24,-0.05 -0.1,0 -0.2,0 -0.29,0.05 -0.1,0 -0.2,0.05 -0.29,0.1 -0.05,0.05 -0.1,0.1 -0.14,0.14 -0.05,0.05 -0.05,0.1 -0.1,0.14 0,0.05 0,0.1 0,0.14 0.05,0.05 0.05,0.1 0.1,0.14 0,0 0.05,0.05 0.1,0.05 0,0.05 0.1,0.05 0.2,0.05 0.1,0 0.24,0 0.39,0 v 0 c 0.2,0 0.34,0 0.44,0 0.14,0 0.24,0 0.29,0.05 v 0 c 0.1,0 0.2,0.05 0.29,0.05 0.05,0.05 0.14,0.1 0.2,0.14 0.05,0.05 0.14,0.1 0.14,0.2 0.05,0.05 0.1,0.14 0.1,0.2 0.05,0.1 0.05,0.2 0.05,0.29 0,0.05 0,0.14 -0.05,0.24 -0.05,0.1 -0.05,0.14 -0.1,0.24 -0.1,0.1 -0.14,0.14 -0.24,0.2 -0.05,0.1 -0.14,0.14 -0.24,0.2 -0.1,0.05 -0.2,0.05 -0.29,0.1 -0.14,0.05 -0.24,0.05 -0.39,0.05 -0.1,0.05 -0.24,0.05 -0.34,0 v 0 c -0.1,0 -0.2,-0.05 -0.29,-0.05 -0.1,-0.05 -0.2,-0.1 -0.24,-0.2 -0.1,-0.05 -0.14,-0.14 -0.2,-0.24 -0.05,-0.05 -0.1,-0.14 -0.14,-0.24 V 8.57 Z m 0.33,0 -0.24,0.1 c 0,0.1 0.05,0.14 0.1,0.2 0.05,0.1 0.1,0.14 0.14,0.24 v 0 c 0.1,0.05 0.14,0.1 0.24,0.14 0.1,0 0.14,0.05 0.24,0.05 v 0 c 0.1,0 0.24,0.05 0.34,0 0.1,0 0.24,0 0.34,-0.05 0.14,-0.05 0.2,-0.05 0.29,-0.1 0.1,-0.05 0.2,-0.1 0.24,-0.14 0.1,-0.1 0.14,-0.14 0.2,-0.2 0.05,-0.1 0.05,-0.14 0.1,-0.24 0,-0.05 0.05,-0.14 0.05,-0.2 0,-0.1 0,-0.14 -0.05,-0.24 0,-0.1 -0.05,-0.14 -0.05,-0.2 -0.05,-0.05 -0.1,-0.1 -0.14,-0.14 v 0 c -0.05,-0.05 -0.14,-0.1 -0.2,-0.14 -0.1,0 -0.14,-0.05 -0.24,-0.05 v 0 c -0.1,0 -0.14,-0.05 -0.29,-0.05 -0.1,0 -0.24,0 -0.44,0.05 -0.14,0 -0.29,0 -0.39,-0.05 -0.14,0 -0.2,0 -0.24,-0.05 -0.05,0 -0.1,-0.05 -0.14,-0.1 -0.05,-0.05 -0.05,-0.1 -0.1,-0.14 0,-0.1 0,-0.14 0,-0.2 0,-0.1 0.05,-0.14 0.1,-0.2 0.05,-0.1 0.1,-0.14 0.2,-0.2 0.1,-0.05 0.2,-0.1 0.34,-0.1 0.1,-0.05 0.2,-0.05 0.29,-0.05 0.1,0 0.2,0 0.29,0.05 v 0 c 0.05,0.05 0.14,0.1 0.2,0.14 0.05,0.05 0.1,0.1 0.1,0.2 l 0.29,-0.1 c 0,-0.05 -0.05,-0.1 -0.1,-0.2 -0.05,-0.05 -0.1,-0.1 -0.14,-0.14 v 0 c -0.05,-0.05 -0.1,-0.1 -0.2,-0.14 -0.05,-0.05 -0.14,-0.05 -0.24,-0.05 v 0 c -0.1,-0.05 -0.2,-0.05 -0.29,0 -0.1,0 -0.2,0 -0.29,0.05 -0.1,0 -0.2,0.05 -0.29,0.1 -0.05,0 -0.14,0.05 -0.2,0.14 v 0 c -0.1,0.05 -0.14,0.1 -0.2,0.14 -0.05,0.05 -0.05,0.14 -0.1,0.2 0,0.1 -0.05,0.14 -0.05,0.24 0,0.05 0,0.1 0.05,0.2 0,0.05 0.05,0.1 0.05,0.14 0.05,0.1 0.1,0.14 0.14,0.14 v 0 c 0.05,0.05 0.1,0.1 0.14,0.14 0.05,0 0.14,0.05 0.2,0.05 v 0 c 0.05,0 0.14,0.05 0.24,0.05 0.1,0 0.24,0 0.39,0 0.14,0 0.24,0 0.34,0 0.1,0 0.14,0 0.2,0 0.1,0 0.14,0 0.2,0.05 0.1,0 0.14,0 0.14,0.05 v 0 c 0.05,0.05 0.1,0.05 0.14,0.1 0,0.05 0.05,0.1 0.05,0.14 0,0.04 0,0.1 0,0.14 0,0.05 0,0.14 -0.05,0.2 0,0.05 -0.05,0.1 -0.05,0.14 -0.05,0.05 -0.1,0.05 -0.14,0.1 -0.05,0.05 -0.14,0.1 -0.2,0.1 -0.05,0.05 -0.14,0.1 -0.2,0.1 -0.1,0 -0.2,0.05 -0.29,0.05 -0.05,0 -0.14,0 -0.24,0 v 0 c -0.05,-0.05 -0.14,-0.05 -0.2,-0.1 -0.05,0 -0.14,-0.05 -0.2,-0.1 v 0 c -0.05,-0.05 -0.05,-0.1 -0.1,-0.14 v 0 C 133.7,8.63 133.7,8.58 133.65,8.53 Z m 3.31,0.24 -1.07,-2.96 v -0.1 h 0.05 l 0.44,-0.05 h 0.05 v 0.05 l 0.63,1.99 v 0 c 0.05,0.1 0.05,0.2 0.1,0.29 v 0.1 l 0.05,-0.2 c 0,-0.1 0,-0.14 0,-0.14 v 0 l 0.44,-2.13 V 5.57 h 0.05 l 0.48,-0.05 h 0.05 v 0.05 l 0.58,1.51 c 0.05,0.2 0.1,0.39 0.14,0.58 0.05,0.05 0.05,0.14 0.1,0.24 0,-0.14 0.05,-0.29 0.05,-0.44 v 0 l 0.34,-1.99 V 5.43 h 0.05 0.39 0.1 l -0.05,0.05 -0.58,3.11 v 0.05 h -0.05 l -0.39,0.05 h -0.05 V 8.63 l -0.82,-2.28 -0.05,-0.14 c 0,0.05 -0.05,0.1 -0.05,0.14 v 0 l -0.44,2.38 v 0.05 h -0.05 L 137,8.81 h -0.05 V 8.77 Z m -0.93,-2.96 1.02,2.91 0.34,-0.05 0.44,-2.33 v 0 c 0,-0.05 0,-0.1 0.05,-0.2 0,-0.05 0,-0.1 0,-0.2 l 0.05,-0.2 0.05,0.2 h 0.05 c 0,0.05 0.05,0.14 0.1,0.34 l 0.82,2.23 h 0.29 l 0.58,-3.01 h -0.29 l -0.34,1.99 v 0 c 0,0.24 -0.05,0.48 -0.1,0.68 v 0.29 l -0.1,-0.29 c -0.05,-0.2 -0.1,-0.34 -0.14,-0.53 -0.05,-0.14 -0.1,-0.34 -0.14,-0.53 l -0.58,-1.46 h -0.39 l -0.39,2.09 v 0 c 0,0 -0.05,0.1 -0.05,0.2 0,0.1 -0.05,0.24 -0.05,0.39 l -0.05,0.24 -0.1,-0.24 c 0,-0.1 -0.05,-0.2 -0.05,-0.29 C 137,7.9 136.95,7.8 136.95,7.7 v 0 l -0.63,-1.89 z m 4.46,2.77 0.05,-3.06 V 5.47 h 0.05 0.39 0.05 v 0.05 3.06 0.05 h -0.05 -0.39 -0.1 z m 0.15,-3.01 v 2.96 h 0.29 V 5.57 c 0.01,0 -0.29,0 -0.29,0 z m 1.02,1.94 0.39,0.05 h 0.05 V 7.6 c 0,0.05 0,0.14 0.05,0.2 0,0.05 0,0.1 0.05,0.14 v 0 c 0,0.05 0.05,0.1 0.1,0.14 v 0 c 0.05,0.05 0.1,0.1 0.14,0.1 v 0 c 0.05,0.05 0.14,0.1 0.2,0.1 0.1,0.05 0.14,0.05 0.24,0.05 0.1,0.05 0.14,0.05 0.2,0.05 0.1,-0.05 0.14,-0.05 0.2,-0.05 0.05,0 0.1,-0.05 0.14,-0.05 0.05,-0.05 0.1,-0.05 0.14,-0.1 0,-0.05 0.05,-0.05 0.05,-0.1 0,-0.05 0.05,-0.1 0.05,-0.14 0,0 0,-0.05 0,-0.1 -0.05,-0.05 -0.05,-0.05 -0.05,-0.1 -0.05,-0.05 -0.05,-0.1 -0.1,-0.1 -0.05,-0.05 -0.1,-0.05 -0.14,-0.1 -0.05,-0.05 -0.1,-0.05 -0.2,-0.1 -0.1,-0.05 -0.2,-0.05 -0.34,-0.1 -0.14,-0.05 -0.24,-0.1 -0.34,-0.14 -0.1,-0.05 -0.14,-0.1 -0.24,-0.14 v 0 c -0.05,-0.05 -0.1,-0.1 -0.14,-0.14 v 0 c -0.05,-0.05 -0.1,-0.14 -0.14,-0.2 v 0 c -0.05,-0.05 -0.05,-0.14 -0.05,-0.2 0,-0.1 0,-0.14 0,-0.24 0,-0.05 0,-0.14 0.05,-0.2 0.05,-0.1 0.1,-0.14 0.14,-0.24 v 0 c 0.05,-0.05 0.1,-0.1 0.2,-0.14 0.05,-0.05 0.14,-0.1 0.24,-0.1 0.1,-0.05 0.2,-0.05 0.29,-0.05 0.1,-0.05 0.2,-0.05 0.29,0 0.1,0 0.24,0 0.34,0.05 0.1,0.05 0.2,0.1 0.24,0.14 v 0 c 0.1,0.05 0.2,0.1 0.24,0.14 0.05,0.05 0.1,0.14 0.14,0.24 v 0 c 0.05,0.05 0.1,0.14 0.1,0.24 0,0.1 0,0.2 0,0.24 v 0.05 h -0.05 -0.39 -0.05 V 6.62 c 0,-0.1 0,-0.2 -0.05,-0.24 0,-0.05 -0.05,-0.14 -0.1,-0.2 v 0 c -0.05,-0.05 -0.1,-0.1 -0.2,-0.1 -0.05,-0.05 -0.14,-0.05 -0.29,-0.1 -0.1,0 -0.2,0 -0.29,0 -0.09,0 -0.14,0.05 -0.2,0.1 -0.05,0 -0.1,0.05 -0.14,0.1 -0.05,0.05 -0.05,0.1 -0.05,0.14 0,0.05 0,0.1 0,0.14 v 0 c 0,0.05 0.05,0.05 0.05,0.1 0.05,0.05 0.1,0.1 0.2,0.14 v 0 c 0.1,0 0.24,0.1 0.39,0.14 0.14,0.05 0.29,0.1 0.39,0.14 0.14,0.05 0.2,0.1 0.29,0.1 v 0 c 0.05,0.1 0.14,0.14 0.2,0.2 0.05,0.05 0.1,0.14 0.14,0.2 v 0 c 0.05,0.1 0.1,0.14 0.1,0.24 v 0 c 0,0.1 0,0.14 0,0.24 0,0.1 -0.05,0.14 -0.05,0.24 -0.05,0.1 -0.1,0.14 -0.14,0.24 -0.1,0.05 -0.14,0.1 -0.24,0.14 -0.05,0.05 -0.14,0.1 -0.24,0.14 -0.1,0 -0.2,0.05 -0.29,0.05 -0.09,0 -0.2,0 -0.34,0 -0.14,0 -0.24,-0.05 -0.39,-0.1 -0.1,0 -0.2,-0.05 -0.29,-0.1 -0.1,-0.1 -0.2,-0.14 -0.24,-0.2 -0.05,-0.1 -0.14,-0.2 -0.2,-0.24 v 0 c 0,-0.1 -0.05,-0.2 -0.05,-0.29 -0.05,-0.1 -0.05,-0.2 -0.05,-0.34 V 7.51 Z M 142,7.66 h -0.29 c 0,0.05 0,0.14 0.05,0.2 0,0.1 0.05,0.2 0.05,0.29 v 0 c 0.05,0.05 0.1,0.14 0.2,0.2 0.05,0.1 0.1,0.14 0.2,0.2 0.1,0.05 0.2,0.1 0.29,0.1 0.1,0.05 0.24,0.05 0.39,0.1 0.1,0 0.2,0 0.29,0 0.09,0 0.2,-0.05 0.24,-0.05 0.1,-0.05 0.2,-0.1 0.24,-0.1 0.1,-0.05 0.14,-0.14 0.2,-0.2 0.05,-0.05 0.1,-0.1 0.14,-0.2 0,-0.05 0.05,-0.14 0.05,-0.2 0,-0.1 0,-0.14 0,-0.24 v 0 C 144,7.71 144,7.62 143.95,7.56 v 0 c 0,-0.05 -0.05,-0.1 -0.1,-0.14 -0.1,-0.1 -0.14,-0.14 -0.24,-0.2 v 0 c -0.05,0 -0.1,-0.05 -0.24,-0.1 -0.1,-0.05 -0.24,-0.1 -0.39,-0.14 -0.14,-0.05 -0.29,-0.14 -0.39,-0.2 v 0 c -0.1,-0.05 -0.14,-0.1 -0.2,-0.14 -0.05,0 -0.1,-0.1 -0.1,-0.14 v 0 c 0,-0.05 0,-0.1 0,-0.14 0,-0.1 0,-0.14 0.05,-0.2 0.05,-0.05 0.1,-0.1 0.2,-0.14 0.05,-0.05 0.14,-0.1 0.24,-0.1 0.1,0 0.2,0 0.34,0 0.1,0 0.2,0.05 0.29,0.1 0.1,0.05 0.14,0.1 0.24,0.14 v 0 c 0.05,0.05 0.1,0.14 0.1,0.2 0.05,0.1 0.05,0.14 0.05,0.24 h 0.29 c 0,-0.05 0,-0.1 0,-0.2 0,-0.05 -0.05,-0.14 -0.1,-0.2 v 0 c 0,-0.1 -0.05,-0.14 -0.1,-0.2 -0.1,-0.1 -0.14,-0.14 -0.24,-0.2 v 0 c -0.05,0 -0.14,-0.05 -0.24,-0.1 -0.1,0 -0.2,-0.05 -0.29,-0.05 -0.09,0 -0.2,0 -0.29,0 -0.09,0 -0.2,0 -0.29,0.05 -0.05,0 -0.14,0.05 -0.2,0.1 -0.05,0 -0.14,0.05 -0.2,0.14 v 0 c -0.05,0.05 -0.05,0.1 -0.1,0.14 -0.05,0.1 -0.05,0.14 -0.05,0.24 0,0.05 0,0.1 0,0.2 0,0.05 0.05,0.1 0.05,0.14 v 0 c 0.05,0.05 0.05,0.1 0.1,0.14 v 0 c 0.05,0.05 0.1,0.1 0.2,0.14 v 0 c 0.05,0.05 0.1,0.1 0.2,0.14 0.1,0.05 0.2,0.05 0.34,0.14 0.14,0.05 0.24,0.05 0.34,0.1 0.1,0.05 0.14,0.1 0.2,0.1 0.05,0.05 0.1,0.05 0.14,0.1 0.05,0.05 0.1,0.1 0.14,0.14 v 0 c 0,0.05 0.05,0.1 0.05,0.14 0,0.05 0,0.1 0,0.14 0,0.04 -0.05,0.1 -0.05,0.14 0,0.05 -0.05,0.1 -0.1,0.1 -0.05,0.05 -0.1,0.1 -0.14,0.14 -0.05,0 -0.1,0.05 -0.14,0.05 -0.1,0 -0.14,0.05 -0.2,0.05 -0.1,0 -0.2,0 -0.24,0 -0.1,-0.05 -0.2,-0.05 -0.24,-0.1 -0.1,0 -0.2,-0.05 -0.24,-0.1 v 0 c -0.05,0 -0.14,-0.05 -0.2,-0.1 v 0 c -0.05,-0.05 -0.05,-0.14 -0.1,-0.2 v 0 C 142.05,7.87 142.05,7.82 142.05,7.72 142,7.75 142,7.7 142,7.66 Z m 2.62,0.24 0.39,0.05 h 0.05 V 8 c 0,0.1 0,0.14 0,0.24 0,0.05 0,0.1 0,0.14 v 0 c 0.05,0.05 0.05,0.1 0.1,0.14 0.05,0.05 0.1,0.1 0.14,0.14 v 0 c 0.05,0.05 0.14,0.1 0.2,0.1 0.05,0.05 0.14,0.05 0.24,0.1 0.05,0 0.14,0 0.2,0 0.05,0.05 0.14,0 0.2,0 0.05,0 0.1,0 0.14,-0.05 0.05,0 0.1,0 0.1,-0.05 0.05,-0.05 0.1,-0.05 0.1,-0.1 v 0 c 0.05,-0.05 0.05,-0.05 0.05,-0.1 0,-0.05 0,-0.1 0,-0.14 0,-0.05 0,-0.05 0,-0.1 v 0 c -0.05,-0.05 -0.05,-0.05 -0.1,-0.1 -0.05,-0.05 -0.1,-0.1 -0.14,-0.1 0,-0.05 -0.1,-0.1 -0.14,-0.14 -0.1,0 -0.2,-0.1 -0.34,-0.14 -0.1,-0.05 -0.24,-0.14 -0.34,-0.2 -0.05,-0.05 -0.14,-0.1 -0.2,-0.14 -0.05,-0.05 -0.1,-0.1 -0.14,-0.14 -0.05,-0.1 -0.1,-0.14 -0.1,-0.2 v 0 c -0.05,-0.1 -0.05,-0.14 -0.05,-0.24 0,-0.05 0,-0.14 0,-0.2 0.05,-0.1 0.05,-0.14 0.1,-0.24 0.05,-0.05 0.1,-0.14 0.14,-0.2 v 0 c 0.05,-0.05 0.14,-0.1 0.24,-0.14 0.05,-0.05 0.14,-0.05 0.24,-0.05 0.1,-0.05 0.2,-0.05 0.29,-0.05 0.09,0 0.2,0.05 0.29,0.05 0.1,0.05 0.24,0.05 0.34,0.1 0.1,0.05 0.14,0.1 0.24,0.14 v 0 c 0.1,0.1 0.14,0.14 0.2,0.2 0.05,0.1 0.1,0.14 0.14,0.24 v 0 c 0,0.1 0.05,0.2 0.05,0.29 0,0.05 0,0.14 0,0.24 l -0.05,0.05 h -0.05 L 146.76,7.3 h -0.05 l 0.05,-0.05 c 0,-0.1 0,-0.2 -0.05,-0.24 v 0 c 0,-0.1 -0.05,-0.14 -0.05,-0.2 v 0 c -0.05,-0.1 -0.14,-0.14 -0.2,-0.14 v 0 c -0.1,-0.05 -0.2,-0.1 -0.29,-0.1 -0.1,-0.05 -0.2,-0.05 -0.29,-0.05 -0.09,0 -0.14,0 -0.2,0.05 -0.1,0 -0.14,0.05 -0.14,0.1 -0.05,0.05 -0.1,0.1 -0.1,0.14 0,0.05 0,0.05 0,0.1 0,0.05 0.05,0.1 0.05,0.14 0.05,0.05 0.1,0.05 0.2,0.14 0.05,0.05 0.2,0.1 0.34,0.2 v 0 c 0.14,0.05 0.29,0.14 0.39,0.2 0.1,0.05 0.2,0.1 0.24,0.14 v 0 c 0.05,0.05 0.14,0.14 0.2,0.2 0.05,0.05 0.1,0.14 0.14,0.2 v 0 c 0,0.1 0.05,0.2 0.05,0.24 0,0.1 0,0.2 -0.05,0.24 0,0.1 -0.05,0.2 -0.1,0.24 -0.05,0.1 -0.1,0.14 -0.14,0.2 -0.05,0.1 -0.14,0.14 -0.24,0.2 -0.05,0.05 -0.14,0.05 -0.24,0.1 -0.1,0 -0.2,0 -0.34,0 -0.1,0 -0.2,0 -0.29,-0.05 -0.14,0 -0.24,-0.05 -0.39,-0.1 -0.1,-0.05 -0.2,-0.1 -0.29,-0.2 -0.1,-0.05 -0.14,-0.1 -0.2,-0.2 v 0 c -0.1,-0.1 -0.14,-0.2 -0.14,-0.29 v 0 c -0.05,-0.1 -0.1,-0.2 -0.1,-0.29 0,-0.1 0,-0.2 0.05,-0.29 V 7.9 Z M 144.91,8.04 144.67,8 c 0,0.1 -0.05,0.2 0,0.24 0,0.1 0,0.2 0.05,0.29 v 0 c 0,0.05 0.05,0.14 0.1,0.24 v 0 c 0.05,0.05 0.14,0.1 0.2,0.2 0.1,0.05 0.2,0.1 0.29,0.14 0.09,0.04 0.24,0.05 0.34,0.1 0.14,0.05 0.24,0.05 0.34,0.05 0.1,0 0.14,0 0.24,-0.05 0.1,0 0.2,0 0.24,-0.05 0.1,-0.05 0.14,-0.1 0.2,-0.14 0.1,-0.05 0.14,-0.14 0.14,-0.2 0.05,-0.05 0.1,-0.14 0.1,-0.2 0,-0.1 0.05,-0.14 0,-0.24 0,-0.05 0,-0.1 0,-0.2 v 0 c -0.05,-0.05 -0.1,-0.1 -0.14,-0.2 -0.05,-0.05 -0.1,-0.1 -0.2,-0.14 v 0 c -0.05,-0.05 -0.1,-0.1 -0.2,-0.14 -0.1,-0.1 -0.24,-0.14 -0.39,-0.2 v 0 c -0.14,-0.1 -0.29,-0.14 -0.39,-0.24 -0.1,-0.05 -0.14,-0.1 -0.2,-0.14 0,-0.05 -0.05,-0.1 -0.05,-0.14 0,-0.05 0,-0.14 0,-0.2 0,-0.05 0.05,-0.14 0.1,-0.2 0.05,-0.05 0.1,-0.1 0.2,-0.1 0.05,-0.05 0.14,-0.05 0.24,-0.05 0.1,0 0.2,0 0.34,0 0.1,0.05 0.2,0.1 0.29,0.14 v 0 c 0.1,0.05 0.14,0.1 0.2,0.14 v 0 c 0.05,0.1 0.1,0.14 0.14,0.24 v 0 c 0,0.1 0,0.14 0,0.24 l 0.29,0.05 c 0,-0.1 0,-0.14 0,-0.2 0,-0.1 -0.05,-0.2 -0.05,-0.24 v 0 c -0.05,-0.1 -0.1,-0.14 -0.14,-0.2 -0.05,-0.1 -0.1,-0.14 -0.14,-0.2 v 0 c -0.1,-0.05 -0.14,-0.1 -0.24,-0.14 -0.1,-0.05 -0.2,-0.05 -0.29,-0.1 -0.1,0 -0.2,-0.05 -0.29,-0.05 -0.09,0 -0.2,0 -0.29,0.05 -0.1,0 -0.14,0 -0.24,0.05 -0.05,0.05 -0.1,0.1 -0.14,0.14 v 0 c -0.05,0.05 -0.1,0.1 -0.14,0.14 -0.05,0.05 -0.05,0.14 -0.1,0.2 0,0.1 0,0.14 0,0.2 0,0.05 0,0.14 0.05,0.2 v 0 c 0,0.05 0.05,0.1 0.05,0.14 0.05,0.05 0.1,0.14 0.2,0.2 v 0 c 0,0 0.1,0.05 0.2,0.1 0.05,0.1 0.2,0.14 0.29,0.2 0.14,0.05 0.24,0.14 0.34,0.14 0.1,0.05 0.14,0.1 0.2,0.14 0.05,0.05 0.1,0.05 0.14,0.1 0.05,0.05 0.05,0.1 0.1,0.14 v 0 c 0,0.05 0,0.1 0,0.14 0.05,0.05 0,0.1 0,0.14 0,0.04 0,0.1 -0.05,0.14 v 0 c -0.05,0.05 -0.05,0.1 -0.1,0.14 -0.05,0 -0.1,0.05 -0.14,0.05 -0.05,0.05 -0.1,0.05 -0.2,0.05 -0.05,0.05 -0.14,0.05 -0.2,0.05 -0.1,0 -0.14,-0.05 -0.24,-0.05 -0.1,-0.05 -0.14,-0.05 -0.24,-0.1 -0.05,0 -0.14,-0.05 -0.2,-0.1 v 0 c -0.1,-0.05 -0.14,-0.1 -0.2,-0.14 0,-0.1 -0.05,-0.14 -0.1,-0.2 v 0 c 0,-0.05 0,-0.14 -0.05,-0.2 -0.02,0.02 -0.02,-0.03 -0.02,-0.13 z"
   id="path171"
   style="fill:url(#SVGID_3_)" />
			
				<linearGradient
   id="SVGID_4_"
   gradientUnits="userSpaceOnUse"
   x1="107.6279"
   y1="392.3396"
   x2="96.749901"
   y2="358.4379"
   gradientTransform="matrix(0.9437,0,0,0.9437,44.4751,-335.8705)">
				<stop
   offset="0"
   style="stop-color:#C4C4C4"
   id="stop173" />
				<stop
   offset="0.4118"
   style="stop-color:#4F4D4D"
   id="stop175" />
				<stop
   offset="1"
   style="stop-color:#FEFEFE"
   id="stop177" />
			</linearGradient>
			<path
   class="st8"
   d="m 140.3,33.52 h -0.29 v 0 h -0.24 v 0 c -1.36,-0.05 -2.71,-0.2 -3.93,-0.48 -1.31,-0.29 -2.52,-0.73 -3.54,-1.26 -0.39,-0.2 -0.48,-0.29 -0.58,-0.39 v 0 c -0.05,0 -0.1,-0.05 -0.24,-0.14 -0.39,-0.24 -0.73,-0.53 -1.07,-0.87 -0.39,-0.34 -0.73,-0.78 -1.02,-1.16 -0.53,-0.73 -0.97,-1.51 -1.31,-2.38 -0.34,-0.78 -0.58,-1.55 -0.82,-2.33 -0.05,-0.2 -0.1,-0.34 -0.1,-0.39 -0.14,-0.44 -0.24,-0.87 -0.34,-1.26 -0.1,-0.44 -0.2,-0.87 -0.29,-1.26 -0.05,-0.2 -0.1,-0.44 -0.14,-0.78 -0.05,-0.29 -0.1,-0.63 -0.2,-0.97 v 0 c -0.05,-0.48 -0.14,-0.97 -0.2,-1.46 -0.05,-0.53 -0.14,-1.02 -0.14,-1.51 -0.05,-0.2 -0.05,-0.44 -0.05,-0.73 0,-0.24 0,-0.58 0,-0.82 v 0 0 0 c 0,-0.24 0,-0.44 0,-0.58 0,-0.05 0,-0.14 0,-0.24 v 0 c 0,-1.02 0.2,-2.23 0.53,-3.35 0.34,-1.07 0.78,-2.09 1.36,-2.86 0.34,-0.44 0.73,-0.87 1.16,-1.26 0.44,-0.34 0.87,-0.68 1.36,-0.97 0.14,-0.1 0.68,-0.44 1.7,-0.87 0.29,-0.14 0.58,-0.24 0.87,-0.34 0.29,-0.1 0.58,-0.2 0.92,-0.29 v 0 c 0.78,-0.24 1.7,-0.44 2.77,-0.58 0.97,-0.14 2.09,-0.29 3.3,-0.34 v 0 h 0.53 0.48 v 0 c 1.21,0.05 2.33,0.2 3.3,0.34 1.07,0.14 1.99,0.34 2.77,0.58 v 0 c 0.34,0.1 0.63,0.2 0.92,0.29 0.29,0.1 0.58,0.2 0.87,0.34 1.02,0.44 1.55,0.78 1.7,0.87 0.48,0.29 0.92,0.63 1.36,0.97 0.44,0.39 0.82,0.82 1.16,1.26 0.58,0.78 1.02,1.79 1.36,2.86 0.34,1.12 0.53,2.33 0.53,3.35 v 0 c 0,0.1 0,0.2 0,0.24 0,0.14 0,0.34 0,0.58 v 0 0 0 c 0,0.24 0,0.58 0,0.82 0,0.29 0,0.53 -0.05,0.73 0,0.48 -0.05,0.97 -0.14,1.51 -0.05,0.48 -0.14,0.97 -0.2,1.46 v 0 c -0.1,0.34 -0.14,0.68 -0.2,0.97 -0.05,0.34 -0.1,0.58 -0.14,0.78 -0.1,0.39 -0.2,0.82 -0.29,1.26 -0.05,0.2 -0.34,1.31 -0.44,1.65 -0.24,0.78 -0.48,1.55 -0.82,2.33 -0.34,0.87 -0.78,1.65 -1.31,2.38 -0.29,0.39 -0.63,0.82 -1.02,1.16 -0.34,0.34 -0.68,0.63 -1.07,0.87 -0.14,0.1 -0.2,0.14 -0.24,0.14 v 0 c -0.1,0.1 -0.14,0.2 -0.53,0.39 -1.07,0.53 -2.28,0.97 -3.54,1.26 -1.26,0.29 -2.62,0.44 -3.98,0.48 v 0 h -0.24 v 0 z m 0.49,-0.78 c 1.31,-0.05 2.57,-0.2 3.78,-0.48 1.21,-0.29 2.38,-0.68 3.35,-1.16 0.29,-0.2 0.39,-0.24 0.44,-0.29 v 0 c 0.05,-0.05 0.14,-0.14 0.29,-0.24 0.34,-0.2 0.68,-0.44 0.97,-0.73 0.34,-0.34 0.63,-0.73 0.87,-1.07 0.53,-0.68 0.92,-1.46 1.26,-2.23 0.34,-0.82 0.63,-1.7 0.87,-2.57 l 0.05,-0.14 c 0.1,-0.39 0.2,-0.78 0.29,-1.16 0.1,-0.44 0.2,-0.82 0.29,-1.26 0.05,-0.14 0.1,-0.39 0.14,-0.73 0.05,-0.24 0.1,-0.58 0.2,-0.97 v 0 c 0.05,-0.48 0.14,-0.97 0.2,-1.46 0.05,-0.44 0.1,-0.97 0.14,-1.46 v 0 -0.05 c 0.05,-0.1 0.05,-0.34 0.05,-0.58 0,-0.24 0,-0.58 0,-0.82 v 0 0 0 c 0,-0.24 0,-0.44 0,-0.58 0,-0.14 0,-0.2 0,-0.24 v 0 c 0,-0.97 -0.2,-2.09 -0.53,-3.11 -0.29,-1.02 -0.68,-1.94 -1.21,-2.62 -0.34,-0.44 -0.68,-0.78 -1.07,-1.12 -0.39,-0.34 -0.78,-0.68 -1.26,-0.92 L 149.67,6.61 V 6.56 c -0.24,-0.1 -0.63,-0.34 -1.31,-0.63 v 0 c -0.29,-0.1 -0.53,-0.24 -0.82,-0.34 -0.29,-0.1 -0.58,-0.2 -0.87,-0.24 h -0.05 c -0.73,-0.24 -1.65,-0.44 -2.67,-0.58 -1.02,-0.14 -2.23,-0.29 -3.54,-0.34 h -0.1 -0.05 -0.1 c -1.31,0.05 -2.52,0.2 -3.54,0.34 -1.02,0.14 -1.94,0.34 -2.67,0.58 h -0.05 c -0.29,0.05 -0.58,0.14 -0.87,0.24 -0.29,0.1 -0.53,0.24 -0.82,0.34 v 0 c -0.63,0.29 -1.07,0.53 -1.31,0.63 V 6.6 l -0.24,0.14 c -0.44,0.24 -0.87,0.58 -1.26,0.92 -0.39,0.34 -0.73,0.68 -1.07,1.12 -0.48,0.68 -0.92,1.6 -1.21,2.62 -0.34,1.02 -0.53,2.13 -0.53,3.11 v 0 c 0,0.05 0,0.1 0,0.24 0,0.14 0,0.34 0,0.58 v 0 0 0 c 0,0.24 0,0.58 0,0.82 0,0.24 0,0.48 0.05,0.58 v 0.05 0 c 0.05,0.48 0.1,1.02 0.14,1.46 0.05,0.48 0.14,0.97 0.24,1.46 v 0 c 0.05,0.39 0.1,0.73 0.14,0.97 0.05,0.34 0.1,0.58 0.14,0.73 0.1,0.44 0.2,0.82 0.29,1.26 0.1,0.39 0.2,0.78 0.29,1.16 l 0.05,0.14 c 0.24,0.87 0.53,1.75 0.87,2.57 0.34,0.78 0.73,1.55 1.26,2.23 0.24,0.34 0.53,0.73 0.87,1.07 0.29,0.29 0.63,0.53 0.97,0.73 0.14,0.1 0.24,0.2 0.29,0.24 v 0 c 0.1,0.05 0.14,0.1 0.44,0.29 0.97,0.48 2.13,0.87 3.35,1.16 1.21,0.29 2.47,0.44 3.78,0.48 v 0 h 0.39 v 0 h 0.1 0.05 v 0 0 h 0.1 v 0 h 0.39 z"
   id="path180"
   style="fill:url(#SVGID_4_)" />
			
				<radialGradient
   id="SVGID_5_"
   cx="1688.2531"
   cy="1135.2528"
   r="15.8931"
   gradientTransform="matrix(1.4651,0.6121,-0.6315,1.5116,-1619.0085,-2733.291)"
   gradientUnits="userSpaceOnUse">
				<stop
   offset="0"
   style="stop-color:#FF3700"
   id="stop182" />
				<stop
   offset="0.6588"
   style="stop-color:#C4211A"
   id="stop184" />
				<stop
   offset="1"
   style="stop-color:#991108"
   id="stop186" />
			</radialGradient>
			<path
   class="st9"
   d="m 140.49,27.31 v 0 c 1.7,-0.05 3.4,-0.39 4.61,-1.02 0.34,-0.2 0.24,-0.2 0.44,-0.34 0.48,-0.29 0.87,-0.73 1.21,-1.12 0.58,-0.87 0.97,-1.89 1.31,-2.96 v 0 c 0,0 0,0 0,-0.05 0.14,-0.53 0.24,-1.02 0.39,-1.51 0,-0.2 0.1,-0.58 0.14,-1.02 0.1,-0.58 0.2,-1.21 0.24,-1.79 0.05,-0.2 0.05,-0.58 0.05,-0.92 v 0 c 0,-0.2 -0.05,-0.39 -0.05,-0.48 0,-1.16 -0.39,-2.67 -1.07,-3.54 -0.39,-0.58 -0.87,-0.97 -1.46,-1.31 v 0 c 0,0 -0.34,-0.24 -0.97,-0.48 -0.34,-0.2 -0.68,-0.29 -1.07,-0.39 -0.92,-0.29 -2.19,-0.48 -3.78,-0.53 v 0 h -0.1 -0.1 v 0 c -1.6,0.05 -2.86,0.24 -3.78,0.53 -0.39,0.1 -0.73,0.2 -1.07,0.39 -0.63,0.24 -0.97,0.48 -0.97,0.48 v 0 c -0.58,0.34 -1.07,0.73 -1.46,1.31 -0.68,0.87 -1.07,2.38 -1.07,3.54 0,0.1 0,0.29 -0.05,0.48 v 0 c 0,0.34 0,0.73 0.05,0.92 0.05,0.58 0.14,1.21 0.24,1.79 0.05,0.44 0.14,0.82 0.14,1.02 0.14,0.48 0.24,0.97 0.39,1.51 0,0.05 0,0.05 0,0.05 v 0 c 0.34,1.07 0.73,2.09 1.31,2.96 0.34,0.39 0.73,0.82 1.21,1.12 0.2,0.14 0.1,0.14 0.44,0.34 1.26,0.63 2.91,0.97 4.61,1.02 v 0 0 0 c 0.05,0 0.05,0 0.1,0 v 0 c 0.08,0 0.08,0 0.12,0 z"
   id="path189"
   style="fill:url(#SVGID_5_)" />
			
				<linearGradient
   id="SVGID_6_"
   gradientUnits="userSpaceOnUse"
   x1="105.3913"
   y1="385.81479"
   x2="98.736198"
   y2="365.07458"
   gradientTransform="matrix(0.9437,0,0,0.9437,44.4751,-335.8705)">
				<stop
   offset="0"
   style="stop-color:#C4C4C4"
   id="stop191" />
				<stop
   offset="0.4118"
   style="stop-color:#4F4D4D"
   id="stop193" />
				<stop
   offset="1"
   style="stop-color:#FEFEFE"
   id="stop195" />
			</linearGradient>
			<path
   class="st10"
   d="m 140.4,27.69 h -0.34 v 0 h -0.14 c -0.78,-0.05 -1.51,-0.14 -2.23,-0.29 -0.78,-0.2 -1.55,-0.44 -2.19,-0.78 -0.24,-0.14 -0.29,-0.2 -0.34,-0.24 v 0 c -0.05,0 -0.05,-0.05 -0.14,-0.1 -0.24,-0.14 -0.44,-0.34 -0.68,-0.53 -0.2,-0.2 -0.44,-0.48 -0.58,-0.73 -0.34,-0.44 -0.58,-0.92 -0.82,-1.46 -0.24,-0.53 -0.39,-1.07 -0.53,-1.6 v 0 l -0.05,-0.05 c -0.05,-0.24 -0.14,-0.53 -0.2,-0.78 -0.05,-0.24 -0.1,-0.48 -0.14,-0.78 -0.05,-0.1 -0.1,-0.24 -0.1,-0.44 -0.05,-0.2 -0.1,-0.39 -0.1,-0.58 v 0 c -0.1,-0.34 -0.14,-0.63 -0.14,-0.97 -0.05,-0.24 -0.1,-0.53 -0.1,-0.82 0,-0.1 -0.05,-0.24 -0.05,-0.44 0,-0.14 0,-0.34 0,-0.53 v 0 0 0 c 0,-0.14 0,-0.24 0,-0.34 0,0 0,-0.05 0,-0.14 v 0 c 0,-0.63 0.14,-1.36 0.34,-2.04 0.2,-0.68 0.48,-1.31 0.87,-1.75 0.2,-0.29 0.44,-0.58 0.73,-0.82 0.24,-0.2 0.53,-0.39 0.82,-0.58 0.05,-0.05 0.39,-0.29 1.02,-0.53 0.2,-0.1 0.34,-0.14 0.53,-0.24 0.2,-0.05 0.39,-0.1 0.58,-0.14 v 0 c 0.48,-0.14 1.02,-0.24 1.7,-0.34 0.53,-0.1 1.12,-0.14 1.79,-0.2 V 9.41 l 0.44,0.05 h 0.05 0.05 l 0.44,-0.05 v 0.05 c 0.68,0.05 1.26,0.1 1.79,0.2 0.68,0.1 1.21,0.2 1.7,0.34 v 0 c 0.2,0.05 0.39,0.1 0.58,0.14 0.2,0.1 0.34,0.14 0.53,0.24 0.63,0.24 0.97,0.48 1.02,0.53 0.29,0.2 0.58,0.39 0.87,0.58 0.24,0.24 0.48,0.53 0.73,0.82 0.34,0.44 0.63,1.07 0.82,1.75 0.2,0.68 0.34,1.41 0.34,2.04 v 0 c 0,0.1 0,0.14 0,0.14 0,0.1 0,0.2 0,0.34 v 0 0 0 c 0,0.2 0,0.39 0,0.53 0,0.2 -0.05,0.34 -0.05,0.44 0,0.29 -0.05,0.58 -0.1,0.82 0,0.34 -0.05,0.63 -0.14,0.97 v 0 c 0,0.2 -0.05,0.39 -0.1,0.58 0,0.2 -0.05,0.34 -0.05,0.44 -0.1,0.29 -0.14,0.53 -0.2,0.78 -0.05,0.24 -0.14,0.53 -0.2,0.78 l -0.05,0.05 v 0 c -0.14,0.53 -0.29,1.07 -0.53,1.6 -0.2,0.53 -0.48,1.02 -0.82,1.46 -0.14,0.24 -0.39,0.53 -0.58,0.73 -0.24,0.2 -0.44,0.39 -0.68,0.53 -0.1,0.05 -0.1,0.1 -0.14,0.1 -0.05,0.05 -0.1,0.1 -0.34,0.24 -0.63,0.34 -1.41,0.58 -2.19,0.78 -0.2,0.05 -2.23,0.29 -2.23,0.29 h -0.14 v 0 h -0.33 z m 0.48,-0.77 c 0.68,-0.05 1.41,-0.14 2.04,-0.29 0.73,-0.14 1.41,-0.39 1.99,-0.68 0.14,-0.1 0.2,-0.14 0.24,-0.2 0.05,0 0.1,-0.05 0.2,-0.14 0.2,-0.1 0.39,-0.24 0.53,-0.39 0.2,-0.2 0.39,-0.44 0.53,-0.63 0.29,-0.39 0.53,-0.87 0.73,-1.31 0.2,-0.48 0.39,-1.02 0.53,-1.51 v 0 -0.05 c 0.05,-0.24 0.14,-0.53 0.2,-0.78 0.05,-0.24 0.1,-0.48 0.2,-0.73 0,-0.1 0.05,-0.24 0.05,-0.44 0.05,-0.14 0.1,-0.34 0.1,-0.58 v 0 c 0.05,-0.29 0.1,-0.58 0.14,-0.92 0.05,-0.24 0.05,-0.53 0.1,-0.82 v 0 -0.05 c 0,-0.05 0,-0.14 0,-0.29 0,-0.2 0,-0.34 0,-0.53 v 0 0 0 c 0,-0.1 0,-0.24 0,-0.29 0,-0.14 0,-0.14 0,-0.2 v 0 c 0,-0.53 -0.1,-1.21 -0.29,-1.85 -0.14,-0.53 -0.39,-1.12 -0.73,-1.51 -0.14,-0.24 -0.39,-0.44 -0.58,-0.63 -0.24,-0.2 -0.48,-0.39 -0.73,-0.53 l -0.24,-0.14 v 0 c -0.14,-0.1 -0.39,-0.2 -0.68,-0.34 v 0 c -0.2,-0.1 -0.34,-0.14 -0.48,-0.2 -0.2,-0.05 -0.34,-0.1 -0.53,-0.14 v 0 c -0.48,-0.14 -0.97,-0.24 -1.6,-0.34 -0.63,-0.1 -1.31,-0.2 -2.09,-0.2 h -0.1 v 0 h -0.1 c -0.78,0 -1.46,0.1 -2.09,0.2 -0.63,0.1 -1.12,0.2 -1.6,0.34 v 0 c -0.2,0.05 -0.34,0.1 -0.48,0.14 -0.2,0.05 -0.34,0.1 -0.53,0.2 v 0 c -0.29,0.14 -0.53,0.24 -0.68,0.34 v 0 l -0.24,0.14 c -0.24,0.14 -0.48,0.34 -0.73,0.53 -0.2,0.2 -0.44,0.39 -0.58,0.63 -0.29,0.39 -0.58,0.97 -0.73,1.51 -0.2,0.63 -0.29,1.31 -0.29,1.85 v 0 c 0,0.05 0,0.05 0,0.2 0,0.05 0,0.2 0,0.29 v 0 0 0 c 0,0.2 0,0.34 0,0.53 0,0.14 0,0.24 0,0.29 v 0.05 0 c 0.05,0.29 0.05,0.58 0.1,0.82 0.05,0.34 0.1,0.63 0.14,0.92 v 0 c 0,0.24 0.05,0.44 0.1,0.58 0,0.2 0.05,0.34 0.05,0.44 0.1,0.24 0.14,0.48 0.2,0.73 0.05,0.24 0.14,0.53 0.2,0.78 v 0.05 0 c 0.14,0.48 0.34,1.02 0.53,1.51 0.2,0.44 0.44,0.92 0.73,1.31 0.14,0.2 0.34,0.44 0.53,0.63 0.14,0.14 0.34,0.29 0.53,0.39 0.1,0.1 0.14,0.14 0.2,0.14 v 0 c 0.05,0.05 0.1,0.1 0.24,0.2 0.58,0.29 1.26,0.53 1.99,0.68 0.63,0.14 1.36,0.24 2.04,0.29 v -0.05 l 0.44,0.05 v 0 h 0.05 v 0 0 0 0 0 h 0.05 v 0 l 0.44,-0.05 z"
   id="path198"
   style="fill:url(#SVGID_6_)" />
			<polygon
   class="st11"
   points="138.46,20.56 133.94,20.56 133.94,16.82 138.46,16.82 138.46,12.36 142.2,12.36 142.2,16.82 146.66,16.82 146.66,20.56 142.2,20.56 142.2,25.08 138.46,25.08 "
   id="polygon200" />
			
				<linearGradient
   id="SVGID_7_"
   gradientUnits="userSpaceOnUse"
   x1="106.0657"
   y1="381.4537"
   x2="97.001198"
   y2="370.02731"
   gradientTransform="matrix(0.9437,0,0,0.9437,44.4751,-335.8705)">
				<stop
   offset="0"
   style="stop-color:#525252"
   id="stop202" />
				<stop
   offset="1"
   style="stop-color:#FEFEFE"
   id="stop204" />
			</linearGradient>
			<path
   class="st12"
   d="m 138.46,12.26 h 3.74 0.1 v 0.1 4.37 h 4.37 0.05 v 0.1 3.74 0.1 h -0.05 -4.37 v 4.42 0.1 h -0.1 -3.74 -0.1 v -0.1 -4.42 h -4.42 -0.1 v -0.1 -3.74 -0.1 h 0.1 4.42 v -4.37 -0.1 z m 3.64,0.2 h -3.54 v 4.37 0.1 h -0.1 -4.42 v 3.54 h 4.42 0.1 v 0.1 4.42 h 3.54 v -4.42 -0.1 h 0.1 4.37 v -3.54 h -4.37 -0.1 v -0.1 z"
   id="path207"
   style="fill:url(#SVGID_7_)" />
			
				<linearGradient
   id="SVGID_8_"
   gradientUnits="userSpaceOnUse"
   x1="106.328"
   y1="383.9761"
   x2="97.792603"
   y2="366.83871"
   gradientTransform="matrix(0.9437,0,0,0.9437,44.4751,-335.8705)">
				<stop
   offset="0"
   style="stop-color:#757575"
   id="stop209" />
				<stop
   offset="1"
   style="stop-color:#FEFEFE"
   id="stop211" />
			</linearGradient>
			<path
   class="st13"
   d="m 140.4,27.79 h -0.14 v 0 h -0.2 v 0 c -0.39,-0.05 -0.82,-0.05 -1.21,-0.1 -0.39,-0.05 -0.78,-0.14 -1.16,-0.2 -0.44,-0.1 -0.82,-0.24 -1.16,-0.34 -0.39,-0.14 -0.73,-0.29 -1.02,-0.44 -0.24,-0.14 -0.29,-0.2 -0.39,-0.24 v 0 0 0 c 0,-0.05 -0.05,-0.05 -0.1,-0.1 -0.14,-0.1 -0.24,-0.14 -0.34,-0.24 -0.14,-0.1 -0.24,-0.2 -0.34,-0.29 -0.1,-0.1 -0.24,-0.24 -0.34,-0.34 -0.1,-0.14 -0.2,-0.24 -0.29,-0.39 -0.14,-0.24 -0.29,-0.44 -0.44,-0.73 -0.14,-0.24 -0.24,-0.48 -0.39,-0.73 -0.1,-0.24 -0.2,-0.48 -0.24,-0.73 -0.1,-0.24 -0.2,-0.48 -0.24,-0.73 v 0 c 0,-0.05 -0.05,-0.1 -0.05,-0.14 0,-0.04 0,-0.05 0,-0.1 v 0 0 c -0.05,-0.1 -0.1,-0.24 -0.14,-0.39 0,-0.14 -0.05,-0.24 -0.1,-0.39 0,-0.14 -0.05,-0.24 -0.05,-0.39 -0.05,-0.14 -0.1,-0.24 -0.1,-0.39 -0.05,-0.05 -0.05,-0.1 -0.05,-0.2 0,-0.05 -0.05,-0.14 -0.05,-0.24 -0.05,-0.1 -0.05,-0.2 -0.05,-0.29 -0.05,-0.1 -0.05,-0.2 -0.05,-0.29 v -0.05 c -0.05,-0.14 -0.05,-0.29 -0.1,-0.44 0,-0.14 -0.05,-0.29 -0.05,-0.44 -0.05,-0.2 -0.05,-0.34 -0.05,-0.48 -0.05,-0.14 -0.05,-0.29 -0.05,-0.44 0,-0.05 0,-0.14 0,-0.2 -0.05,-0.05 -0.05,-0.14 -0.05,-0.24 0,-0.1 0,-0.2 0,-0.24 v 0 c 0,-0.1 0,-0.14 0,-0.24 v 0 -0.05 0 0 0 c 0,-0.14 0,-0.24 0.05,-0.34 h -0.05 v 0 h 0.05 c 0,-0.05 0,-0.05 0,-0.05 0,-0.05 0,-0.05 0,-0.1 v -0.05 0 c 0,-0.29 0,-0.63 0.05,-0.97 0.05,-0.34 0.14,-0.73 0.24,-1.07 0.1,-0.34 0.24,-0.68 0.39,-0.97 0.14,-0.29 0.29,-0.53 0.48,-0.78 0.1,-0.14 0.2,-0.29 0.34,-0.39 0.1,-0.14 0.24,-0.29 0.39,-0.39 0.1,-0.1 0.24,-0.24 0.39,-0.34 0.14,-0.1 0.29,-0.2 0.44,-0.29 v 0 c 0.05,0 0.2,-0.1 0.44,-0.24 0.14,-0.1 0.34,-0.2 0.58,-0.29 0.1,0 0.2,-0.05 0.29,-0.1 0.05,-0.05 0.14,-0.05 0.24,-0.1 0.1,-0.05 0.2,-0.05 0.29,-0.1 0.1,0 0.2,-0.05 0.29,-0.05 v 0.02 c 0.24,-0.05 0.53,-0.1 0.78,-0.2 0.29,-0.05 0.63,-0.1 0.92,-0.14 0.34,-0.05 0.63,-0.1 0.97,-0.14 0.34,0 0.68,-0.05 1.07,-0.05 v 0 h 0.29 v 0 h 0.34 v 0 c 0.34,0 0.68,0.05 1.02,0.05 0.34,0.05 0.68,0.1 0.97,0.14 0.34,0.05 0.63,0.1 0.92,0.14 0.29,0.1 0.53,0.14 0.78,0.2 V 10 c 0.1,0 0.2,0.05 0.29,0.05 0.1,0.05 0.2,0.05 0.29,0.1 v 0 c 0.1,0.05 0.2,0.05 0.29,0.1 0.1,0.05 0.14,0.1 0.24,0.1 0.24,0.1 0.44,0.2 0.58,0.29 0.24,0.14 0.44,0.24 0.44,0.24 v 0 c 0.2,0.1 0.34,0.2 0.44,0.29 0.14,0.1 0.29,0.24 0.44,0.34 0.14,0.1 0.24,0.24 0.39,0.39 0.1,0.1 0.2,0.24 0.34,0.39 0.14,0.24 0.34,0.48 0.44,0.78 0.14,0.29 0.29,0.63 0.39,0.97 0.09,0.34 0.2,0.73 0.24,1.07 0.05,0.34 0.1,0.68 0.1,0.97 v 0 0.05 c 0,0.05 0,0.05 0,0.1 0,0 0,0 0,0.05 v 0 0 0 c 0,0.1 0,0.2 0,0.34 v 0 0 0 0.05 0 c 0,0.1 0,0.14 0,0.24 v 0 c 0,0.05 0,0.14 0,0.24 0,0.1 0,0.14 0,0.24 0,0.05 0,0.14 -0.05,0.2 0,0.14 0,0.29 0,0.44 -0.05,0.14 -0.05,0.29 -0.1,0.48 0,0.14 0,0.29 -0.05,0.44 0,0.14 -0.05,0.29 -0.05,0.44 v 0.05 c -0.05,0.1 -0.05,0.2 -0.05,0.29 -0.05,0.1 -0.05,0.2 -0.05,0.29 -0.05,0.1 -0.05,0.2 -0.1,0.24 0,0.1 0,0.14 0,0.2 -0.05,0.14 -0.1,0.24 -0.1,0.39 -0.05,0.14 -0.05,0.24 -0.1,0.39 0,0.1 -0.1,0.39 -0.14,0.63 -0.05,0.14 -0.1,0.29 -0.14,0.39 v 0 c -0.05,0.24 -0.14,0.48 -0.2,0.73 -0.1,0.24 -0.2,0.48 -0.29,0.73 -0.1,0.25 -0.24,0.48 -0.39,0.73 -0.1,0.29 -0.24,0.48 -0.44,0.73 -0.1,0.14 -0.2,0.24 -0.29,0.39 -0.1,0.1 -0.2,0.24 -0.34,0.34 -0.1,0.1 -0.2,0.2 -0.29,0.29 -0.14,0.1 -0.24,0.14 -0.34,0.24 -0.1,0.05 -0.1,0.05 -0.14,0.1 v 0 0 0 c -0.05,0.05 -0.1,0.1 -0.34,0.24 -0.34,0.14 -0.68,0.29 -1.02,0.44 -0.39,0.1 -0.78,0.24 -1.16,0.34 -0.39,0.05 -0.78,0.14 -1.21,0.2 -0.39,0.05 -0.78,0.05 -1.21,0.1 v 0 h -0.14 v 0 z m -0.15,-0.1 h 0.14 0.2 0.14 v 0 c 0.39,-0.05 0.82,-0.05 1.21,-0.1 0.39,-0.05 0.78,-0.14 1.16,-0.2 0.44,-0.1 0.82,-0.24 1.16,-0.34 0.34,-0.14 0.68,-0.29 1.02,-0.44 0.2,-0.14 0.24,-0.2 0.34,-0.24 v 0 0 0 c 0,0 0.05,-0.05 0.14,-0.1 0.09,-0.05 0.2,-0.14 0.29,-0.24 0.14,-0.1 0.24,-0.2 0.34,-0.29 0.1,-0.1 0.2,-0.2 0.34,-0.29 0.1,-0.14 0.2,-0.29 0.29,-0.39 0.14,-0.24 0.29,-0.48 0.44,-0.73 0.1,-0.24 0.24,-0.48 0.34,-0.73 0.1,-0.24 0.2,-0.48 0.29,-0.73 0.05,-0.24 0.14,-0.48 0.2,-0.73 h 0.05 c 0,-0.05 0.05,-0.2 0.1,-0.39 0.05,-0.24 0.14,-0.53 0.14,-0.58 0.05,-0.14 0.05,-0.29 0.1,-0.39 0.05,-0.14 0.05,-0.29 0.1,-0.39 0,-0.05 0,-0.14 0.05,-0.2 0,-0.1 0,-0.2 0.05,-0.29 0,-0.05 0,-0.14 0.05,-0.29 0,-0.1 0,-0.2 0.05,-0.29 v -0.05 0 c 0,-0.14 0.05,-0.24 0.05,-0.39 0.05,-0.14 0.05,-0.29 0.05,-0.48 0.05,-0.14 0.05,-0.29 0.1,-0.44 0,-0.14 0,-0.29 0,-0.44 v -0.02 0 c 0.05,-0.05 0.05,-0.1 0.05,-0.14 0,-0.1 0,-0.14 0,-0.24 0,-0.1 0,-0.2 0,-0.24 v 0 c 0,-0.14 0,-0.2 0,-0.29 v -0.05 c 0,-0.1 0,-0.2 0,-0.29 v 0 0 0 c 0,-0.05 0,-0.05 0,-0.05 v -0.05 0 -0.05 c 0,-0.34 -0.05,-0.68 -0.1,-1.02 -0.05,-0.34 -0.14,-0.68 -0.24,-1.02 -0.1,-0.34 -0.2,-0.68 -0.34,-0.97 -0.14,-0.29 -0.29,-0.53 -0.48,-0.78 -0.1,-0.14 -0.2,-0.24 -0.34,-0.39 -0.1,-0.14 -0.24,-0.24 -0.34,-0.34 -0.14,-0.14 -0.29,-0.24 -0.44,-0.34 -0.14,-0.1 -0.29,-0.2 -0.44,-0.29 v 0 c -0.05,-0.05 -0.2,-0.14 -0.44,-0.24 -0.14,-0.1 -0.34,-0.2 -0.53,-0.29 v 0 c -0.1,0 -0.2,-0.05 -0.29,-0.1 -0.1,-0.05 -0.2,-0.1 -0.29,-0.1 v 0 c -0.05,-0.05 -0.14,-0.05 -0.24,-0.1 -0.1,-0.05 -0.2,-0.05 -0.29,-0.1 h -0.05 v 0 c -0.24,-0.05 -0.48,-0.1 -0.73,-0.2 -0.29,-0.05 -0.58,-0.1 -0.92,-0.14 -0.29,-0.05 -0.63,-0.1 -0.97,-0.14 -0.34,0 -0.68,-0.05 -1.02,-0.05 v 0 h -0.34 -0.29 v 0 c -0.39,0 -0.73,0.05 -1.02,0.05 -0.34,0.05 -0.68,0.1 -0.97,0.14 -0.34,0.05 -0.63,0.1 -0.92,0.14 -0.29,0.1 -0.53,0.14 -0.73,0.2 v 0 h -0.05 c -0.1,0.05 -0.2,0.05 -0.29,0.1 -0.1,0.05 -0.2,0.05 -0.29,0.1 -0.1,0 -0.2,0.05 -0.29,0.1 -0.1,0.05 -0.14,0.1 -0.24,0.1 v 0 c -0.24,0.1 -0.44,0.2 -0.58,0.29 -0.24,0.1 -0.39,0.2 -0.44,0.24 v 0 c -0.14,0.1 -0.29,0.2 -0.44,0.29 -0.14,0.1 -0.29,0.2 -0.39,0.34 -0.14,0.1 -0.24,0.2 -0.39,0.34 -0.1,0.14 -0.24,0.24 -0.34,0.39 -0.14,0.24 -0.29,0.48 -0.44,0.78 -0.14,0.29 -0.29,0.63 -0.39,0.97 -0.09,0.34 -0.2,0.68 -0.24,1.02 -0.05,0.34 -0.05,0.68 -0.05,1.02 v 0.05 0 0.05 c 0,0 0,0 0,0.05 v 0 0 0 c -0.05,0.1 -0.05,0.2 -0.05,0.34 v 0 0 0 c 0,0.1 0,0.2 0,0.29 v 0 c 0,0.05 0,0.14 0,0.24 0,0.1 0,0.14 0.05,0.24 0,0.05 0,0.1 0,0.14 v 0 0.05 c 0,0.14 0,0.29 0.05,0.44 0,0.14 0,0.29 0.05,0.44 0,0.2 0.05,0.34 0.05,0.48 0.05,0.14 0.05,0.24 0.1,0.39 v 0 0.05 c 0,0.1 0,0.2 0.05,0.29 0,0.14 0,0.24 0.05,0.29 0,0.1 0.05,0.2 0.05,0.29 0,0.05 0,0.14 0.05,0.2 0,0.1 0.05,0.24 0.05,0.39 0.05,0.1 0.1,0.24 0.1,0.39 0.05,0.1 0.1,0.24 0.1,0.39 0.05,0.1 0.1,0.24 0.14,0.39 V 22 c 0,0.05 0.05,0.1 0.05,0.14 v 0 c 0.05,0.24 0.14,0.48 0.24,0.73 0.05,0.24 0.14,0.48 0.24,0.73 0.1,0.24 0.24,0.48 0.39,0.73 0.14,0.24 0.29,0.48 0.44,0.73 0.1,0.1 0.2,0.24 0.29,0.39 0.1,0.1 0.2,0.2 0.29,0.29 0.1,0.1 0.24,0.2 0.34,0.29 0.1,0.1 0.2,0.2 0.34,0.24 0.05,0.05 0.1,0.1 0.14,0.1 v 0 0 0 c 0.05,0.05 0.1,0.1 0.34,0.24 0.29,0.14 0.63,0.29 0.97,0.44 0.39,0.1 0.78,0.24 1.16,0.34 0.39,0.05 0.78,0.14 1.16,0.2 0.39,0.05 0.82,0.05 1.26,0.1 v 0 h 0.19 v 0 z"
   id="path214"
   style="fill:url(#SVGID_8_)" />
			
				<linearGradient
   id="SVGID_9_"
   gradientUnits="userSpaceOnUse"
   x1="94.419998"
   y1="362.67609"
   x2="109.7415"
   y2="387.87601"
   gradientTransform="matrix(0.9437,0,0,0.9437,44.4751,-335.8705)">
				<stop
   offset="0"
   style="stop-color:#757575"
   id="stop216" />
				<stop
   offset="1"
   style="stop-color:#FEFEFE"
   id="stop218" />
			</linearGradient>
			<path
   class="st14"
   d="m 142.73,32.69 c -0.63,0.1 -1.31,0.14 -1.94,0.14 v 0 h -0.44 v 0 h -0.1 v 0 0 0 0 0 0 h -0.1 -0.05 -0.39 v 0 c -0.68,0 -1.31,-0.05 -1.94,-0.14 -0.63,-0.1 -1.26,-0.2 -1.85,-0.34 -0.63,-0.1 -1.21,-0.29 -1.79,-0.48 -0.53,-0.2 -1.07,-0.44 -1.55,-0.68 -0.24,-0.14 -0.34,-0.2 -0.39,-0.24 v 0 l -0.1,-0.05 c 0,-0.05 -0.05,-0.05 -0.1,-0.1 -0.05,-0.05 -0.1,-0.1 -0.2,-0.14 -0.14,-0.1 -0.29,-0.2 -0.48,-0.34 -0.14,-0.1 -0.29,-0.24 -0.44,-0.39 -0.2,-0.2 -0.34,-0.34 -0.48,-0.53 -0.14,-0.2 -0.29,-0.39 -0.44,-0.53 -0.24,-0.39 -0.48,-0.73 -0.68,-1.12 -0.24,-0.39 -0.44,-0.78 -0.58,-1.16 -0.2,-0.39 -0.34,-0.82 -0.48,-1.26 -0.14,-0.44 -0.29,-0.82 -0.39,-1.26 l -0.05,-0.14 v 0 c -0.05,-0.24 -0.1,-0.44 -0.14,-0.63 -0.05,-0.2 -0.1,-0.39 -0.14,-0.58 -0.05,-0.2 -0.1,-0.44 -0.14,-0.63 -0.05,-0.2 -0.1,-0.39 -0.14,-0.63 v 0 c -0.05,-0.1 -0.05,-0.2 -0.1,-0.29 0,-0.14 -0.05,-0.24 -0.05,-0.44 -0.05,-0.14 -0.05,-0.29 -0.1,-0.44 0,-0.14 -0.05,-0.34 -0.1,-0.53 v 0 0 c 0,-0.24 -0.05,-0.48 -0.1,-0.73 -0.05,-0.2 -0.05,-0.44 -0.1,-0.73 -0.05,-0.24 -0.05,-0.48 -0.1,-0.73 0,-0.24 -0.05,-0.48 -0.05,-0.73 v -0.05 0 0 c -0.05,-0.05 -0.05,-0.14 -0.05,-0.24 0,-0.1 0,-0.2 0,-0.34 0,-0.14 0,-0.29 0,-0.44 0,-0.1 0,-0.24 0,-0.34 v 0 -0.1 c 0,-0.2 0,-0.34 0,-0.48 V 14.8 c 0,-0.05 0,-0.14 0,-0.14 v -0.1 c 0,-0.48 0.05,-1.02 0.14,-1.55 0.1,-0.53 0.2,-1.07 0.34,-1.6 0.2,-0.53 0.39,-1.02 0.58,-1.46 0.2,-0.44 0.44,-0.82 0.68,-1.16 0.2,-0.24 0.34,-0.44 0.53,-0.63 0.14,-0.2 0.34,-0.34 0.53,-0.53 0.2,-0.14 0.39,-0.34 0.63,-0.48 0.2,-0.14 0.44,-0.29 0.68,-0.44 l 0.2,-0.1 V 6.55 h 0.05 c 0.1,-0.1 0.24,-0.2 0.48,-0.29 0.2,-0.1 0.48,-0.24 0.82,-0.39 v 0 0 0 c 0.14,-0.05 0.29,-0.1 0.44,-0.14 0.1,-0.1 0.24,-0.14 0.39,-0.2 v 0 c 0.14,-0.05 0.29,-0.1 0.44,-0.14 0.14,0 0.29,-0.05 0.44,-0.1 v 0 h 0.05 c 0.39,-0.1 0.82,-0.24 1.31,-0.34 0.39,-0.1 0.87,-0.14 1.36,-0.24 0.53,-0.1 1.07,-0.14 1.7,-0.2 0.58,-0.05 1.21,-0.1 1.85,-0.1 h 0.05 0.1 v 0 0 0 h 0.1 0.05 c 0.63,0 1.26,0.05 1.85,0.1 0.63,0.05 1.16,0.1 1.7,0.2 0.48,0.1 0.97,0.14 1.36,0.24 0.48,0.1 0.92,0.24 1.31,0.34 h 0.05 v 0 c 0.14,0.05 0.29,0.1 0.44,0.1 0.14,0.05 0.29,0.1 0.44,0.14 v 0 c 0.14,0.05 0.29,0.1 0.39,0.2 0.14,0.05 0.29,0.1 0.44,0.14 v 0 0 0 c 0.34,0.14 0.63,0.29 0.82,0.39 0.24,0.1 0.39,0.2 0.48,0.29 h 0.05 V 6.6 l 0.2,0.1 c 0.24,0.14 0.48,0.29 0.68,0.44 0.2,0.14 0.44,0.34 0.63,0.48 0.2,0.2 0.39,0.34 0.53,0.53 0.2,0.2 0.34,0.39 0.53,0.63 0.24,0.34 0.48,0.73 0.68,1.16 0.2,0.44 0.39,0.92 0.53,1.46 0.2,0.53 0.29,1.07 0.39,1.6 0.1,0.53 0.14,1.07 0.14,1.55 v 0.1 c 0,0 0,0.1 0,0.14 v 0.05 c 0,0.14 0,0.29 0,0.48 v 0.05 0 0 0 0.05 c 0,0.14 0,0.24 0,0.34 v 0 c 0,0.14 0,0.29 0,0.44 0,0.14 0,0.24 0,0.34 0,0.1 -0.05,0.2 -0.05,0.24 v 0 0.05 c 0,0.24 -0.05,0.48 -0.05,0.73 -0.05,0.24 -0.05,0.48 -0.1,0.73 -0.05,0.29 -0.05,0.53 -0.1,0.73 -0.05,0.24 -0.1,0.48 -0.1,0.73 v 0 0 c -0.05,0.2 -0.1,0.39 -0.1,0.53 -0.05,0.14 -0.05,0.29 -0.1,0.44 0,0.2 -0.05,0.29 -0.05,0.44 -0.05,0.1 -0.05,0.2 -0.1,0.29 v 0 c -0.05,0.24 -0.1,0.44 -0.14,0.63 -0.05,0.2 -0.1,0.44 -0.14,0.63 -0.05,0.2 -0.1,0.39 -0.14,0.58 -0.05,0.2 -0.1,0.39 -0.14,0.58 v 0 l -0.05,0.2 c -0.1,0.44 -0.24,0.82 -0.39,1.26 -0.14,0.44 -0.29,0.87 -0.48,1.26 -0.2,0.39 -0.34,0.78 -0.58,1.16 -0.2,0.39 -0.44,0.73 -0.68,1.12 -0.14,0.14 -0.29,0.34 -0.44,0.53 -0.14,0.2 -0.29,0.34 -0.48,0.53 -0.14,0.14 -0.29,0.29 -0.44,0.39 -0.2,0.14 -0.34,0.24 -0.48,0.34 -0.1,0.05 -0.14,0.1 -0.2,0.14 v 0 c -0.05,0.05 -0.1,0.05 -0.14,0.1 l -0.05,0.05 v 0 c -0.05,0.05 -0.14,0.1 -0.39,0.24 -0.48,0.24 -1.02,0.48 -1.55,0.68 -0.58,0.2 -1.16,0.39 -1.79,0.48 -0.6,0.15 -1.23,0.24 -1.86,0.34 z m -1.94,0 c 0.63,-0.05 1.31,-0.1 1.94,-0.14 0.63,-0.1 1.21,-0.2 1.79,-0.34 0.63,-0.14 1.21,-0.29 1.79,-0.48 0.53,-0.2 1.07,-0.44 1.51,-0.68 0.34,-0.2 0.39,-0.24 0.44,-0.29 l 0.1,-0.05 v 0 c 0,0 0,0 0.05,-0.05 v 0 c 0.05,-0.05 0.1,-0.05 0.2,-0.14 0.14,-0.1 0.29,-0.2 0.44,-0.29 0.2,-0.14 0.34,-0.29 0.48,-0.44 0.14,-0.14 0.34,-0.29 0.48,-0.48 0.14,-0.2 0.29,-0.39 0.44,-0.53 0.24,-0.34 0.44,-0.73 0.63,-1.07 0.24,-0.39 0.39,-0.78 0.58,-1.16 0.2,-0.44 0.34,-0.82 0.48,-1.26 0.14,-0.44 0.24,-0.82 0.39,-1.26 l 0.05,-0.14 v 0 c 0.05,-0.2 0.1,-0.44 0.14,-0.63 0.05,-0.2 0.1,-0.39 0.14,-0.58 0.05,-0.2 0.1,-0.39 0.14,-0.63 0.05,-0.2 0.1,-0.39 0.14,-0.63 v 0 c 0,-0.05 0.05,-0.14 0.05,-0.29 0.05,-0.1 0.05,-0.24 0.1,-0.39 0,-0.14 0.05,-0.29 0.1,-0.48 0,-0.14 0.05,-0.34 0.05,-0.48 v 0 0 c 0.05,-0.24 0.1,-0.48 0.14,-0.73 0,-0.24 0.05,-0.48 0.1,-0.73 0,-0.24 0.05,-0.48 0.1,-0.73 0,-0.24 0,-0.48 0.05,-0.73 v -0.05 0 0 -0.05 c 0,-0.05 0,-0.1 0,-0.2 0.05,-0.1 0.05,-0.24 0.05,-0.34 0,-0.14 0,-0.29 0,-0.44 v 0 c 0,-0.14 0,-0.29 0,-0.39 v 0 -0.06 0 -0.05 0 c 0,-0.2 0,-0.34 0,-0.44 v -0.05 c 0,-0.1 0,-0.14 0,-0.2 l -0.05,-0.05 v -0.1 0 c 0,-0.44 -0.05,-0.92 -0.1,-1.41 -0.1,-0.53 -0.2,-1.07 -0.39,-1.6 -0.14,-0.53 -0.34,-1.02 -0.53,-1.46 -0.19,-0.44 -0.44,-0.82 -0.68,-1.12 -0.14,-0.24 -0.34,-0.44 -0.48,-0.63 -0.2,-0.14 -0.39,-0.34 -0.53,-0.53 -0.2,-0.14 -0.44,-0.29 -0.63,-0.44 -0.2,-0.14 -0.44,-0.29 -0.63,-0.44 l -0.24,-0.14 -0.05,-0.05 v 0 c -0.14,-0.05 -0.29,-0.14 -0.44,-0.24 -0.24,-0.1 -0.48,-0.24 -0.82,-0.39 v 0 0 0 c -0.14,-0.05 -0.29,-0.1 -0.44,-0.14 -0.14,-0.1 -0.29,-0.14 -0.39,-0.2 v 0 C 147.34,5.6 147.19,5.55 147.04,5.55 146.9,5.5 146.75,5.45 146.6,5.41 v 0 h -0.05 v 0 c -0.39,-0.1 -0.82,-0.2 -1.26,-0.34 -0.44,-0.05 -0.92,-0.14 -1.41,-0.24 -0.48,-0.05 -1.07,-0.14 -1.65,-0.2 -0.58,-0.05 -1.21,-0.1 -1.89,-0.1 h -0.1 v 0 0 0 h -0.14 c -0.63,0 -1.26,0.05 -1.85,0.1 -0.58,0.05 -1.16,0.14 -1.65,0.2 -0.53,0.1 -0.97,0.2 -1.41,0.24 -0.44,0.14 -0.87,0.24 -1.26,0.34 h -0.05 v 0 0 c -0.14,0.05 -0.29,0.1 -0.44,0.14 -0.14,0 -0.29,0.05 -0.44,0.1 v 0 c -0.14,0.05 -0.24,0.1 -0.39,0.2 -0.14,0.05 -0.29,0.1 -0.44,0.14 v 0 0 0 c -0.34,0.14 -0.58,0.29 -0.82,0.39 -0.14,0.1 -0.34,0.2 -0.44,0.24 v 0 l -0.05,0.05 -0.24,0.14 c -0.2,0.14 -0.44,0.29 -0.63,0.44 -0.24,0.14 -0.44,0.29 -0.63,0.44 -0.2,0.2 -0.34,0.39 -0.53,0.53 -0.2,0.2 -0.34,0.39 -0.48,0.63 -0.24,0.29 -0.48,0.68 -0.68,1.12 -0.2,0.44 -0.39,0.92 -0.53,1.46 -0.2,0.53 -0.29,1.07 -0.39,1.6 -0.1,0.48 -0.1,0.97 -0.14,1.41 v 0 0.1 0.05 c 0,0.05 0,0.1 0,0.2 v 0.05 c 0,0.1 0,0.24 0,0.44 v 0 0.05 0 0.05 0 c 0,0.14 0,0.24 0,0.39 0,0.14 0,0.29 0,0.44 0,0.1 0,0.24 0,0.34 0.05,0.1 0.05,0.14 0.05,0.2 v 0.05 0 0 0 0.05 0 c 0,0.24 0.05,0.48 0.05,0.73 0.05,0.24 0.1,0.48 0.1,0.73 0.05,0.24 0.05,0.48 0.1,0.73 0.05,0.24 0.1,0.48 0.14,0.73 v 0 0 c 0,0.14 0.05,0.34 0.05,0.48 0.05,0.2 0.1,0.34 0.1,0.48 0.05,0.14 0.05,0.29 0.1,0.39 0,0.14 0.05,0.24 0.05,0.29 v 0 c 0.05,0.24 0.1,0.44 0.14,0.63 0.05,0.24 0.1,0.44 0.14,0.63 0.05,0.2 0.1,0.39 0.14,0.58 0.05,0.2 0.1,0.44 0.14,0.63 v 0 l 0.05,0.14 c 0.14,0.44 0.24,0.82 0.39,1.26 0.14,0.44 0.29,0.82 0.48,1.26 0.14,0.39 0.34,0.78 0.53,1.16 0.24,0.34 0.44,0.73 0.68,1.07 0.14,0.14 0.29,0.34 0.44,0.53 0.14,0.2 0.34,0.34 0.48,0.48 0.14,0.14 0.29,0.29 0.44,0.44 0.2,0.1 0.34,0.2 0.48,0.29 0.1,0.1 0.14,0.1 0.2,0.14 0,0.05 0.05,0.05 0.05,0.05 v 0 l 0.1,0.05 c 0.05,0.05 0.1,0.1 0.39,0.29 0.48,0.24 1.02,0.48 1.55,0.68 0.58,0.2 1.16,0.34 1.79,0.48 0.58,0.14 1.16,0.24 1.79,0.34 0.63,0.05 1.31,0.1 1.94,0.14 v 0 h 0.44 v 0 h 0.1 v 0 0 0 0 0 h 0.1 v 0 h 0.47 v 0.01 z"
   id="path221"
   style="fill:url(#SVGID_9_)" />
			
				<linearGradient
   id="SVGID_10_"
   gradientUnits="userSpaceOnUse"
   x1="97.416199"
   y1="367.92969"
   x2="106.4601"
   y2="382.80469"
   gradientTransform="matrix(0.9437,0,0,0.9437,44.4751,-335.8705)">
				<stop
   offset="0"
   style="stop-color:#757575"
   id="stop223" />
				<stop
   offset="1"
   style="stop-color:#FEFEFE"
   id="stop225" />
			</linearGradient>
			<path
   class="st15"
   d="m 141.8,26.87 c -0.39,0.05 -0.78,0.1 -1.16,0.1 v 0 h -0.24 v 0 h -0.05 v 0 0 0 0 0 0 h -0.05 -0.05 -0.2 v 0 c -0.44,0 -0.78,-0.05 -1.16,-0.1 -0.39,-0.05 -0.73,-0.1 -1.07,-0.2 -0.39,-0.1 -0.78,-0.2 -1.07,-0.29 -0.34,-0.14 -0.68,-0.24 -0.92,-0.39 -0.14,-0.1 -0.2,-0.14 -0.24,-0.14 v 0 l -0.05,-0.05 -0.05,-0.05 c -0.05,-0.05 -0.1,-0.05 -0.14,-0.1 -0.1,-0.05 -0.2,-0.1 -0.24,-0.2 -0.1,-0.05 -0.2,-0.14 -0.29,-0.24 -0.1,-0.1 -0.2,-0.2 -0.29,-0.29 -0.1,-0.1 -0.2,-0.24 -0.24,-0.34 -0.14,-0.2 -0.29,-0.39 -0.44,-0.63 -0.1,-0.24 -0.2,-0.44 -0.34,-0.68 -0.1,-0.24 -0.2,-0.48 -0.24,-0.78 -0.1,-0.24 -0.2,-0.48 -0.24,-0.73 l -0.05,-0.1 v 0 c 0,-0.14 -0.05,-0.24 -0.1,-0.34 0,-0.14 -0.05,-0.24 -0.05,-0.39 -0.05,-0.1 -0.1,-0.24 -0.1,-0.34 -0.05,-0.14 -0.05,-0.24 -0.1,-0.39 v 0 c 0,-0.05 0,-0.1 -0.05,-0.2 0,-0.05 0,-0.14 -0.05,-0.24 0,-0.05 0,-0.14 -0.05,-0.24 0,-0.1 0,-0.2 -0.05,-0.29 v 0 0 c 0,-0.14 -0.05,-0.29 -0.05,-0.44 -0.05,-0.14 -0.05,-0.29 -0.05,-0.44 -0.05,-0.14 -0.05,-0.29 -0.05,-0.44 -0.05,-0.14 -0.05,-0.29 -0.05,-0.44 v 0 -0.05 0 c 0,0 0,-0.05 -0.05,-0.1 0,-0.1 0,-0.14 0,-0.24 0,-0.05 0,-0.14 0,-0.24 0,-0.05 0,-0.14 0,-0.2 v 0 -0.05 c 0,-0.1 0,-0.24 0,-0.29 v 0 c 0,-0.05 0,-0.05 0,-0.1 v -0.06 c 0,-0.29 0.05,-0.58 0.1,-0.92 0.05,-0.29 0.14,-0.63 0.24,-0.92 0.05,-0.29 0.2,-0.58 0.29,-0.87 0.14,-0.24 0.29,-0.48 0.44,-0.68 0.1,-0.14 0.2,-0.24 0.29,-0.39 0.1,-0.1 0.2,-0.2 0.34,-0.29 0.1,-0.1 0.24,-0.2 0.34,-0.29 0.14,-0.1 0.24,-0.2 0.39,-0.24 l 0.14,-0.1 v 0 0 c 0.1,-0.05 0.2,-0.1 0.29,-0.2 0.14,-0.05 0.29,-0.14 0.48,-0.2 v 0 0 0 c 0.1,-0.05 0.2,-0.1 0.24,-0.1 0.1,-0.05 0.2,-0.1 0.29,-0.1 v 0 c 0.05,-0.05 0.14,-0.1 0.24,-0.1 0.1,-0.05 0.14,-0.05 0.24,-0.05 v 0 l 0.05,-0.05 c 0.2,-0.05 0.48,-0.1 0.73,-0.14 0.29,-0.1 0.53,-0.14 0.82,-0.2 0.34,-0.05 0.63,-0.05 1.02,-0.1 0.34,-0.05 0.68,-0.05 1.07,-0.05 h 0.05 0.05 v 0 0 0 h 0.05 v 0 c 0.44,0 0.78,0 1.12,0.05 0.39,0.05 0.68,0.05 1.02,0.1 0.29,0.05 0.53,0.1 0.82,0.2 0.24,0.05 0.53,0.1 0.73,0.14 l 0.05,0.05 v 0 c 0.1,0 0.14,0 0.24,0.05 0.1,0 0.2,0.05 0.24,0.1 v 0 c 0.1,0 0.2,0.05 0.24,0.1 0.1,0 0.2,0.05 0.29,0.1 v 0 0 0 c 0.2,0.05 0.34,0.14 0.48,0.2 0.1,0.1 0.2,0.14 0.29,0.2 v 0 0 l 0.14,0.1 c 0.1,0.05 0.24,0.14 0.39,0.24 0.1,0.1 0.24,0.2 0.34,0.29 0.14,0.1 0.24,0.2 0.34,0.29 0.1,0.14 0.2,0.24 0.29,0.39 0.14,0.2 0.29,0.44 0.44,0.68 0.1,0.29 0.24,0.58 0.29,0.87 0.1,0.29 0.2,0.63 0.24,0.92 0.05,0.34 0.05,0.63 0.05,0.92 v 0.05 c 0.05,0.05 0.05,0.05 0.05,0.1 v 0.05 c 0,0.05 0,0.2 0,0.29 v 0 0 0 0 0.05 c 0,0.05 0,0.14 0,0.2 v 0 c 0,0.1 0,0.2 0,0.24 0,0.1 0,0.14 -0.05,0.24 0,0.05 0,0.1 0,0.1 v 0.05 0 c 0,0.14 0,0.29 -0.05,0.44 0,0.14 0,0.29 -0.05,0.44 0,0.14 -0.05,0.29 -0.05,0.44 0,0.14 -0.05,0.29 -0.05,0.44 v 0 0 c -0.05,0.1 -0.05,0.2 -0.05,0.29 -0.05,0.1 -0.05,0.2 -0.05,0.24 -0.05,0.1 -0.05,0.2 -0.05,0.24 -0.05,0.1 -0.05,0.14 -0.05,0.2 v 0 c -0.05,0.14 -0.05,0.24 -0.1,0.39 0,0.1 -0.05,0.24 -0.1,0.34 0,0.14 -0.05,0.24 -0.05,0.39 -0.05,0.1 -0.1,0.2 -0.1,0.34 v 0 l -0.05,0.1 c -0.05,0.24 -0.14,0.48 -0.24,0.73 -0.1,0.29 -0.14,0.53 -0.29,0.78 -0.1,0.24 -0.2,0.44 -0.29,0.68 -0.14,0.24 -0.29,0.44 -0.44,0.63 -0.05,0.1 -0.14,0.24 -0.24,0.34 -0.1,0.1 -0.2,0.2 -0.29,0.29 -0.1,0.1 -0.2,0.2 -0.29,0.24 -0.1,0.1 -0.14,0.14 -0.24,0.2 -0.05,0.05 -0.1,0.05 -0.14,0.1 v 0 l -0.05,0.05 -0.05,0.05 v 0 c -0.05,0 -0.1,0.05 -0.24,0.14 -0.29,0.14 -0.58,0.24 -0.92,0.39 -0.34,0.1 -0.68,0.2 -1.07,0.29 -0.29,0.06 -0.62,0.11 -1.02,0.16 z m -1.16,0 c 0.39,0 0.78,-0.05 1.16,-0.1 0.34,-0.05 0.73,-0.1 1.07,-0.2 0.39,-0.05 0.73,-0.14 1.07,-0.29 0.29,-0.1 0.63,-0.24 0.87,-0.39 0.2,-0.1 0.24,-0.14 0.29,-0.14 v -0.05 0 c 0.05,0 0.05,0 0.05,-0.05 v 0 c 0.05,0 0.05,-0.05 0.14,-0.05 0.05,-0.05 0.14,-0.14 0.24,-0.2 0.1,-0.1 0.2,-0.14 0.29,-0.24 0.1,-0.1 0.2,-0.2 0.24,-0.29 0.1,-0.14 0.2,-0.24 0.29,-0.34 0.14,-0.2 0.24,-0.39 0.39,-0.63 0.1,-0.24 0.24,-0.44 0.34,-0.68 0.1,-0.24 0.2,-0.48 0.24,-0.73 0.1,-0.24 0.2,-0.53 0.24,-0.78 l 0.05,-0.1 v 0 c 0,-0.1 0.05,-0.2 0.1,-0.34 0,-0.1 0.05,-0.24 0.05,-0.34 0.05,-0.14 0.1,-0.24 0.1,-0.39 0.05,-0.1 0.05,-0.24 0.1,-0.34 v 0 c 0,-0.05 0,-0.1 0.05,-0.2 0,-0.1 0,-0.14 0.05,-0.24 0,-0.1 0,-0.14 0.05,-0.29 0,-0.1 0,-0.2 0.05,-0.29 v 0 0 c 0,-0.14 0.05,-0.29 0.05,-0.44 0.05,-0.14 0.05,-0.24 0.05,-0.39 0.05,-0.14 0.05,-0.29 0.05,-0.44 0.05,-0.14 0.05,-0.29 0.05,-0.44 v 0 -0.05 0 0 c 0,-0.05 0,-0.05 0.05,-0.14 0,-0.05 0,-0.1 0,-0.2 0,-0.05 0,-0.14 0,-0.24 v 0 c 0,-0.1 0,-0.14 0,-0.24 v 0 0 0 -0.05 0 c 0,-0.1 0,-0.2 0,-0.24 v -0.05 c 0,-0.05 0,-0.05 0,-0.1 v -0.06 0 0 c -0.05,-0.24 -0.05,-0.53 -0.1,-0.82 -0.05,-0.34 -0.14,-0.63 -0.2,-0.97 -0.1,-0.29 -0.24,-0.58 -0.34,-0.82 -0.14,-0.24 -0.24,-0.48 -0.39,-0.68 -0.1,-0.14 -0.2,-0.24 -0.29,-0.34 -0.14,-0.14 -0.24,-0.24 -0.34,-0.34 -0.1,-0.1 -0.24,-0.2 -0.34,-0.24 -0.14,-0.1 -0.29,-0.2 -0.39,-0.29 l -0.14,-0.1 h -0.05 v 0 c -0.05,-0.05 -0.14,-0.1 -0.24,-0.14 -0.14,-0.05 -0.29,-0.14 -0.48,-0.2 v 0 0 0 c -0.1,-0.05 -0.2,-0.1 -0.24,-0.14 -0.1,0 -0.2,-0.05 -0.24,-0.1 v 0 c -0.1,0 -0.2,-0.05 -0.24,-0.05 -0.1,-0.05 -0.2,-0.05 -0.29,-0.1 v 0 0 0 c -0.24,-0.05 -0.48,-0.1 -0.78,-0.2 -0.24,-0.05 -0.53,-0.1 -0.82,-0.14 -0.29,-0.05 -0.63,-0.05 -0.97,-0.1 -0.34,-0.05 -0.73,-0.05 -1.12,-0.05 h -0.05 v 0 0 0 h -0.1 c -0.39,0 -0.73,0 -1.07,0.05 -0.34,0.05 -0.68,0.05 -1.02,0.1 -0.29,0.05 -0.53,0.1 -0.78,0.14 -0.29,0.1 -0.53,0.14 -0.78,0.2 v 0 0 0 c -0.1,0.05 -0.2,0.05 -0.29,0.1 -0.05,0 -0.14,0.05 -0.24,0.05 v 0 c -0.05,0.05 -0.14,0.1 -0.24,0.1 -0.1,0.05 -0.14,0.1 -0.24,0.14 v 0 0 0 c -0.2,0.05 -0.34,0.14 -0.48,0.2 -0.1,0.05 -0.2,0.1 -0.24,0.14 v 0 h -0.05 l -0.14,0.1 c -0.14,0.1 -0.24,0.2 -0.39,0.29 -0.1,0.05 -0.24,0.14 -0.34,0.24 -0.1,0.1 -0.24,0.2 -0.34,0.34 -0.1,0.1 -0.2,0.2 -0.29,0.34 -0.14,0.2 -0.29,0.44 -0.39,0.68 -0.14,0.24 -0.24,0.53 -0.34,0.82 -0.1,0.34 -0.14,0.63 -0.2,0.97 -0.05,0.29 -0.1,0.58 -0.1,0.82 v 0 0.05 0.05 c 0,0.05 0,0.05 0,0.1 v 0.05 c 0,0.05 0,0.14 0,0.24 v 0 0.05 0 0 0 c 0,0.1 0,0.14 0,0.24 0,0.1 0,0.2 0,0.24 0,0.1 0,0.14 0,0.2 0,0.1 0.05,0.1 0.05,0.14 v 0 0 0 0 0.05 0 c 0,0.14 0,0.29 0.05,0.44 0,0.14 0,0.29 0.05,0.44 0,0.14 0,0.24 0.05,0.39 0,0.14 0.05,0.29 0.05,0.44 v 0 0 c 0.05,0.1 0.05,0.2 0.05,0.29 0.05,0.14 0.05,0.2 0.05,0.29 0.05,0.1 0.05,0.14 0.05,0.24 0,0.1 0.05,0.14 0.05,0.2 v 0 c 0,0.1 0.05,0.24 0.1,0.34 0,0.14 0.05,0.24 0.05,0.39 0.05,0.1 0.1,0.24 0.1,0.34 0.05,0.14 0.1,0.24 0.1,0.34 v 0 l 0.05,0.1 c 0.05,0.24 0.14,0.53 0.2,0.78 0.1,0.24 0.2,0.48 0.29,0.73 0.09,0.25 0.24,0.44 0.34,0.68 0.14,0.24 0.24,0.44 0.39,0.63 0.1,0.1 0.2,0.2 0.29,0.34 0.05,0.1 0.14,0.2 0.24,0.29 0.1,0.1 0.2,0.14 0.29,0.24 0.1,0.05 0.14,0.14 0.24,0.2 0.05,0 0.1,0.05 0.14,0.05 0,0.05 0,0.05 0.05,0.05 v 0 0.05 c 0.05,0 0.1,0.05 0.29,0.14 0.24,0.14 0.58,0.29 0.87,0.39 0.34,0.14 0.68,0.24 1.07,0.29 0.34,0.1 0.68,0.14 1.07,0.2 0.39,0.05 0.78,0.1 1.16,0.1 v 0 h 0.24 v 0 h 0.05 v 0 0 0 0 0 h 0.05 v 0 h 0.27 v -0.04 z"
   id="path228"
   style="fill:url(#SVGID_10_)" />
			
				<linearGradient
   id="SVGID_11_"
   gradientUnits="userSpaceOnUse"
   x1="109.1957"
   y1="389.2756"
   x2="95.244904"
   y2="361.26471"
   gradientTransform="matrix(0.9437,0,0,0.9437,44.4751,-335.8705)">
				<stop
   offset="0"
   style="stop-color:#757575"
   id="stop230" />
				<stop
   offset="1"
   style="stop-color:#FEFEFE"
   id="stop232" />
			</linearGradient>
			<path
   class="st16"
   d="m 140.35,33.62 h -0.29 v 0 l -0.24,-0.05 v 0 c -0.68,0 -1.36,-0.05 -2.04,-0.14 -0.68,-0.05 -1.31,-0.2 -1.94,-0.34 -0.63,-0.14 -1.31,-0.29 -1.89,-0.53 -0.58,-0.2 -1.16,-0.44 -1.65,-0.73 -0.39,-0.2 -0.48,-0.29 -0.58,-0.39 v 0 0 h -0.05 c 0,-0.05 -0.05,-0.05 -0.2,-0.14 -0.2,-0.1 -0.34,-0.24 -0.53,-0.39 -0.2,-0.14 -0.39,-0.29 -0.53,-0.48 -0.2,-0.14 -0.34,-0.34 -0.53,-0.53 -0.14,-0.2 -0.34,-0.44 -0.48,-0.63 -0.24,-0.34 -0.48,-0.73 -0.73,-1.16 -0.2,-0.39 -0.44,-0.82 -0.58,-1.26 -0.2,-0.34 -0.34,-0.73 -0.48,-1.12 -0.1,-0.44 -0.24,-0.82 -0.34,-1.21 v 0 c -0.05,-0.1 -0.1,-0.2 -0.1,-0.24 0,-0.05 0,-0.1 -0.05,-0.14 v 0 0 c -0.05,-0.2 -0.1,-0.39 -0.14,-0.63 -0.05,-0.2 -0.1,-0.44 -0.14,-0.63 -0.1,-0.24 -0.14,-0.44 -0.2,-0.63 -0.05,-0.24 -0.1,-0.44 -0.1,-0.63 -0.05,-0.1 -0.05,-0.2 -0.1,-0.34 0,-0.1 -0.05,-0.24 -0.1,-0.44 0,-0.14 -0.05,-0.29 -0.05,-0.48 -0.05,-0.14 -0.05,-0.29 -0.1,-0.44 v -0.05 c -0.05,-0.24 -0.1,-0.48 -0.1,-0.73 -0.05,-0.24 -0.1,-0.48 -0.14,-0.78 0,-0.24 -0.05,-0.48 -0.05,-0.78 -0.05,-0.24 -0.05,-0.48 -0.1,-0.68 0,-0.1 0,-0.2 0,-0.29 -0.05,-0.14 -0.05,-0.29 -0.05,-0.44 0,-0.15 0,-0.29 0,-0.44 v 0 c 0,-0.1 0,-0.24 0,-0.34 v 0 -0.11 0 0 0 c 0,-0.2 0,-0.39 0,-0.53 v 0 0 0 c 0,-0.05 0,-0.1 0.05,-0.1 0,-0.05 0,-0.1 0,-0.14 v -0.1 0 c 0,-0.48 0.05,-1.02 0.1,-1.55 0.1,-0.58 0.24,-1.16 0.44,-1.75 0.14,-0.53 0.34,-1.07 0.58,-1.6 0.24,-0.44 0.48,-0.87 0.78,-1.26 0.2,-0.24 0.34,-0.48 0.53,-0.68 0.24,-0.2 0.44,-0.39 0.63,-0.58 0.24,-0.2 0.44,-0.39 0.68,-0.53 0.24,-0.2 0.48,-0.34 0.73,-0.48 v 0 c 0.05,-0.05 0.29,-0.2 0.73,-0.44 0.24,-0.1 0.53,-0.24 0.92,-0.44 0.14,-0.05 0.29,-0.1 0.44,-0.2 0.14,-0.05 0.29,-0.1 0.48,-0.14 0.14,-0.05 0.29,-0.1 0.44,-0.14 0.14,-0.05 0.29,-0.1 0.48,-0.14 v 0 c 0.39,-0.1 0.82,-0.2 1.26,-0.29 0.48,-0.1 0.97,-0.2 1.51,-0.29 0.53,-0.1 1.07,-0.14 1.6,-0.2 0.53,-0.05 1.12,-0.1 1.7,-0.1 v 0 l 0.53,-0.05 v 0 l 0.53,0.05 v 0 c 0.58,0 1.12,0.05 1.65,0.1 0.58,0.05 1.12,0.1 1.6,0.2 0.53,0.1 1.02,0.2 1.51,0.29 0.44,0.1 0.87,0.2 1.26,0.29 h 0.05 c 0.14,0.05 0.29,0.1 0.44,0.14 0.2,0.05 0.34,0.1 0.48,0.14 v 0 c 0.14,0.05 0.29,0.1 0.44,0.14 0.14,0.1 0.29,0.14 0.44,0.2 0.39,0.2 0.68,0.34 0.92,0.44 0.44,0.24 0.68,0.39 0.78,0.44 v 0 c 0.24,0.14 0.48,0.29 0.68,0.48 0.24,0.14 0.48,0.34 0.68,0.53 0.24,0.2 0.44,0.39 0.63,0.58 0.19,0.19 0.39,0.44 0.58,0.68 0.24,0.39 0.53,0.82 0.73,1.26 0.24,0.53 0.44,1.07 0.63,1.6 0.14,0.58 0.29,1.16 0.39,1.75 0.1,0.53 0.14,1.07 0.14,1.55 v 0 0.1 c 0,0.05 0,0.1 0,0.14 0,0 0,0.05 0,0.1 v 0 0 0 c 0,0.14 0,0.34 0,0.53 v 0 0 0 0.1 0 c 0,0.14 0,0.24 0,0.34 v 0 c 0,0.14 0,0.29 0,0.44 0,0.14 0,0.29 0,0.39 0,0.14 -0.05,0.24 -0.05,0.34 0,0.24 -0.05,0.48 -0.05,0.73 -0.05,0.24 -0.05,0.48 -0.1,0.73 -0.05,0.29 -0.05,0.53 -0.1,0.78 -0.05,0.24 -0.1,0.48 -0.14,0.73 v 0.05 c 0,0.14 -0.05,0.29 -0.05,0.44 -0.05,0.2 -0.1,0.34 -0.1,0.48 -0.05,0.2 -0.05,0.34 -0.1,0.44 0,0.14 -0.05,0.24 -0.05,0.34 -0.05,0.2 -0.1,0.39 -0.14,0.63 -0.05,0.2 -0.1,0.39 -0.14,0.63 -0.05,0.14 -0.14,0.58 -0.29,1.02 -0.05,0.24 -0.1,0.48 -0.14,0.63 v 0 c -0.14,0.39 -0.24,0.78 -0.39,1.21 -0.14,0.39 -0.29,0.78 -0.44,1.12 -0.2,0.44 -0.39,0.87 -0.63,1.26 -0.2,0.44 -0.44,0.82 -0.73,1.16 -0.14,0.2 -0.29,0.44 -0.48,0.63 -0.14,0.2 -0.34,0.39 -0.53,0.53 -0.14,0.2 -0.34,0.34 -0.53,0.48 -0.14,0.14 -0.34,0.29 -0.53,0.39 -0.1,0.1 -0.14,0.1 -0.2,0.14 v 0 0 0 c -0.1,0.1 -0.2,0.2 -0.63,0.39 -0.48,0.29 -1.02,0.53 -1.65,0.73 -0.58,0.24 -1.21,0.39 -1.89,0.53 -0.63,0.14 -1.26,0.29 -1.94,0.34 -0.63,0.1 -1.31,0.14 -1.99,0.14 v 0 l -0.29,0.05 v 0 h -0.25 v 0 z m -0.29,-0.2 h 0.29 0.24 0.24 v 0 c 0.68,0 1.36,-0.05 2.04,-0.14 0.68,-0.1 1.31,-0.2 1.89,-0.34 0.68,-0.14 1.31,-0.34 1.89,-0.53 0.58,-0.2 1.16,-0.44 1.65,-0.73 0.34,-0.2 0.44,-0.24 0.53,-0.34 v 0 0 h 0.05 c 0.05,-0.05 0.1,-0.1 0.2,-0.2 0.2,-0.1 0.39,-0.24 0.53,-0.34 0.2,-0.14 0.39,-0.34 0.53,-0.48 0.2,-0.2 0.34,-0.34 0.53,-0.53 0.14,-0.2 0.34,-0.44 0.48,-0.63 0.24,-0.34 0.48,-0.73 0.68,-1.12 0.24,-0.44 0.44,-0.82 0.63,-1.26 0.14,-0.39 0.29,-0.78 0.44,-1.16 0.14,-0.39 0.24,-0.78 0.39,-1.16 v 0 c 0,-0.1 0.1,-0.39 0.14,-0.63 0.14,-0.44 0.24,-0.87 0.29,-1.02 0.05,-0.2 0.1,-0.44 0.14,-0.63 0.05,-0.24 0.1,-0.44 0.14,-0.63 0,-0.1 0,-0.2 0.05,-0.34 0.05,-0.1 0.05,-0.24 0.1,-0.39 0,-0.14 0.05,-0.34 0.05,-0.48 0.05,-0.2 0.1,-0.34 0.1,-0.48 v -0.1 0 c 0.05,-0.2 0.1,-0.44 0.14,-0.63 0,-0.29 0.05,-0.53 0.1,-0.78 0,-0.24 0.05,-0.48 0.05,-0.73 0.05,-0.29 0.05,-0.53 0.1,-0.78 v 0 0 c 0,-0.1 0,-0.2 0,-0.29 0.05,-0.1 0.05,-0.24 0.05,-0.39 0,-0.14 0,-0.29 0,-0.44 v 0 c 0,-0.14 0,-0.29 0,-0.39 v -0.1 c 0,-0.2 0,-0.34 0,-0.48 v 0 0 0 c 0,-0.05 0,-0.1 0,-0.1 v -0.05 0 -0.1 c 0,-0.53 -0.05,-1.07 -0.14,-1.65 -0.1,-0.58 -0.24,-1.12 -0.39,-1.7 -0.2,-0.53 -0.39,-1.07 -0.63,-1.55 -0.2,-0.48 -0.44,-0.87 -0.73,-1.26 -0.2,-0.24 -0.39,-0.44 -0.58,-0.68 -0.2,-0.2 -0.39,-0.39 -0.58,-0.58 -0.19,-0.19 -0.44,-0.34 -0.68,-0.53 -0.2,-0.14 -0.44,-0.29 -0.68,-0.44 v 0 c -0.1,-0.05 -0.34,-0.2 -0.73,-0.44 -0.24,-0.14 -0.53,-0.29 -0.92,-0.44 v 0 c -0.14,-0.05 -0.29,-0.1 -0.44,-0.2 -0.14,-0.05 -0.29,-0.1 -0.44,-0.14 v 0 c -0.14,-0.05 -0.29,-0.1 -0.48,-0.14 -0.14,-0.05 -0.29,-0.1 -0.44,-0.14 h -0.1 v 0 c -0.39,-0.1 -0.78,-0.2 -1.21,-0.29 -0.43,-0.09 -0.97,-0.2 -1.51,-0.29 -0.48,-0.05 -1.02,-0.14 -1.55,-0.2 -0.53,-0.06 -1.07,-0.1 -1.7,-0.1 v 0 h -0.48 -0.52 v 0 c -0.58,0 -1.16,0.05 -1.65,0.1 -0.58,0.05 -1.12,0.14 -1.6,0.2 -0.53,0.1 -1.02,0.2 -1.51,0.29 -0.44,0.1 -0.82,0.2 -1.21,0.29 v 0 h -0.05 c -0.2,0.05 -0.34,0.1 -0.48,0.14 -0.14,0.05 -0.29,0.1 -0.44,0.14 -0.14,0.05 -0.29,0.1 -0.44,0.14 -0.2,0.1 -0.34,0.14 -0.48,0.2 v 0 c -0.34,0.14 -0.63,0.29 -0.87,0.44 -0.44,0.24 -0.68,0.39 -0.78,0.44 v 0 c -0.24,0.14 -0.44,0.29 -0.68,0.44 -0.24,0.2 -0.44,0.34 -0.68,0.53 -0.2,0.2 -0.39,0.39 -0.58,0.58 -0.2,0.24 -0.39,0.44 -0.58,0.68 -0.24,0.39 -0.48,0.78 -0.73,1.26 -0.25,0.48 -0.44,1.02 -0.58,1.55 -0.2,0.58 -0.34,1.12 -0.39,1.7 -0.1,0.58 -0.14,1.12 -0.14,1.65 v 0.1 0 0.05 c 0,0 0,0.05 0,0.1 v 0 0 0 c 0,0.14 0,0.29 0,0.53 v 0 0 0.05 c -0.05,0.1 -0.05,0.24 -0.05,0.39 v 0 c 0,0.2 0,0.34 0.05,0.44 0,0.14 0,0.29 0,0.39 0,0.14 0,0.24 0.05,0.29 v 0 0 c 0,0.24 0,0.48 0.05,0.73 0,0.24 0.05,0.53 0.1,0.78 0,0.24 0.05,0.48 0.1,0.78 0,0.2 0.05,0.44 0.1,0.63 v 0 0.1 c 0.05,0.14 0.05,0.29 0.1,0.48 0.05,0.14 0.05,0.34 0.1,0.48 0,0.14 0.05,0.29 0.05,0.39 0.05,0.14 0.05,0.24 0.1,0.34 0.05,0.2 0.1,0.39 0.14,0.63 0.05,0.2 0.1,0.44 0.14,0.63 0.05,0.2 0.1,0.44 0.14,0.63 0.05,0.24 0.1,0.44 0.2,0.63 0,0.05 0,0.1 0,0.14 0.05,0.05 0.05,0.14 0.1,0.24 v 0 c 0.1,0.39 0.24,0.78 0.34,1.16 0.14,0.39 0.29,0.78 0.48,1.16 0.14,0.44 0.34,0.82 0.58,1.26 0.2,0.39 0.44,0.78 0.73,1.12 0.14,0.2 0.29,0.44 0.48,0.63 0.14,0.2 0.29,0.34 0.48,0.53 0.2,0.14 0.34,0.34 0.53,0.48 0.2,0.1 0.34,0.24 0.53,0.34 0.14,0.1 0.2,0.14 0.24,0.2 v 0 0 0 c 0.1,0.1 0.2,0.14 0.53,0.34 0.53,0.29 1.07,0.53 1.65,0.73 0.58,0.2 1.21,0.39 1.89,0.53 0.63,0.14 1.26,0.24 1.89,0.34 0.68,0.1 1.36,0.14 2.04,0.14 v 0 h 0.26 z"
   id="path235"
   style="fill:url(#SVGID_11_)" />
			<path
   class="st17"
   d="m 134.91,9.01 c 1.65,-0.68 3.06,-1.02 5.68,-1.02 2.62,-0.05 5.43,0.97 5.53,1.02"
   id="path237" />
			<path
   class="st18"
   d="m 133.32,8.58 0.39,-0.1 c 0.05,0.14 0.1,0.24 0.2,0.29 0.1,0.1 0.2,0.14 0.39,0.2 0.14,0 0.29,0 0.44,-0.05 0.14,-0.05 0.29,-0.1 0.39,-0.2 0.1,-0.05 0.2,-0.14 0.2,-0.24 0.05,-0.1 0.05,-0.2 0.05,-0.24 -0.05,-0.1 -0.1,-0.2 -0.14,-0.24 -0.1,-0.05 -0.2,-0.1 -0.34,-0.1 -0.05,0 -0.24,0 -0.53,0 -0.29,0 -0.53,0 -0.63,-0.05 -0.14,-0.05 -0.29,-0.1 -0.39,-0.2 -0.1,-0.1 -0.2,-0.2 -0.2,-0.34 -0.05,-0.14 -0.05,-0.29 0,-0.44 0.05,-0.14 0.14,-0.29 0.29,-0.39 0.14,-0.14 0.34,-0.2 0.53,-0.24 0.2,-0.1 0.39,-0.1 0.58,-0.05 0.2,0 0.34,0.1 0.48,0.2 0.1,0.1 0.2,0.24 0.24,0.44 l -0.34,0.1 c -0.1,-0.14 -0.2,-0.29 -0.34,-0.34 -0.14,-0.1 -0.29,-0.1 -0.53,0 -0.24,0.05 -0.39,0.14 -0.48,0.24 -0.1,0.14 -0.1,0.24 -0.1,0.39 0.05,0.1 0.1,0.14 0.2,0.2 0.1,0.05 0.34,0.1 0.63,0.05 0.34,0 0.58,0 0.73,0.05 0.2,0 0.34,0.1 0.44,0.2 0.14,0.1 0.2,0.2 0.24,0.39 0.05,0.14 0.05,0.29 0,0.48 -0.05,0.14 -0.14,0.29 -0.29,0.39 -0.14,0.14 -0.34,0.24 -0.53,0.29 -0.29,0.05 -0.53,0.1 -0.73,0.05 -0.2,0 -0.34,-0.1 -0.48,-0.24 -0.18,-0.11 -0.33,-0.31 -0.37,-0.5 z m 3.68,0.19 -1.02,-3.01 0.39,-0.05 0.63,2 c 0.05,0.2 0.1,0.39 0.2,0.63 0.05,-0.34 0.05,-0.53 0.1,-0.58 l 0.39,-2.13 h 0.48 l 0.58,1.51 c 0.1,0.34 0.24,0.73 0.29,1.07 0.05,-0.2 0.05,-0.44 0.1,-0.68 l 0.34,-2.04 h 0.39 l -0.58,3.11 -0.39,0.05 -0.82,-2.28 c -0.05,-0.2 -0.1,-0.34 -0.14,-0.34 0,0.1 0,0.24 -0.05,0.34 l -0.44,2.38 z m 3.59,-0.19 V 5.52 h 0.39 v 3.06 z m 1.07,-1.02 0.39,0.05 c 0,0.14 0.05,0.29 0.1,0.39 0.05,0.1 0.14,0.2 0.29,0.24 0.1,0.1 0.24,0.14 0.44,0.14 0.14,0.05 0.29,0.05 0.39,0 0.14,-0.05 0.24,-0.1 0.29,-0.14 0.1,-0.1 0.14,-0.14 0.14,-0.24 0,-0.1 0,-0.2 -0.05,-0.29 -0.05,-0.05 -0.14,-0.14 -0.29,-0.2 -0.05,-0.05 -0.24,-0.1 -0.48,-0.2 -0.29,-0.14 -0.48,-0.2 -0.58,-0.29 -0.14,-0.1 -0.24,-0.2 -0.29,-0.29 -0.05,-0.14 -0.1,-0.29 -0.05,-0.44 0,-0.14 0.05,-0.29 0.2,-0.39 0.1,-0.14 0.24,-0.2 0.39,-0.24 0.2,-0.05 0.39,-0.1 0.58,-0.05 0.24,0 0.44,0.1 0.58,0.2 0.14,0.05 0.29,0.2 0.34,0.34 0.1,0.14 0.14,0.34 0.1,0.48 h -0.39 c 0,-0.2 -0.05,-0.34 -0.14,-0.44 -0.1,-0.14 -0.29,-0.2 -0.53,-0.24 -0.24,0 -0.39,0 -0.53,0.1 -0.1,0.05 -0.2,0.14 -0.2,0.29 0,0.1 0,0.2 0.1,0.29 0.05,0.05 0.24,0.14 0.58,0.29 0.29,0.1 0.53,0.2 0.63,0.24 0.14,0.1 0.29,0.24 0.34,0.39 0.1,0.1 0.1,0.29 0.1,0.44 -0.05,0.14 -0.1,0.29 -0.2,0.44 -0.1,0.15 -0.24,0.24 -0.44,0.29 -0.2,0.05 -0.39,0.05 -0.63,0.05 -0.24,-0.05 -0.48,-0.1 -0.63,-0.2 -0.2,-0.1 -0.34,-0.24 -0.44,-0.44 C 141.71,8 141.66,7.8 141.66,7.56 Z m 2.96,0.38 0.39,0.05 c -0.05,0.2 0,0.29 0,0.44 0.05,0.1 0.14,0.2 0.24,0.29 0.14,0.1 0.29,0.14 0.44,0.2 0.2,0.05 0.29,0.05 0.44,0 0.14,0 0.24,-0.05 0.29,-0.1 0.1,-0.1 0.14,-0.14 0.14,-0.24 0.05,-0.1 0,-0.2 0,-0.24 -0.05,-0.1 -0.14,-0.2 -0.24,-0.24 -0.1,-0.05 -0.24,-0.14 -0.48,-0.29 -0.29,-0.14 -0.44,-0.24 -0.53,-0.34 -0.14,-0.1 -0.24,-0.2 -0.24,-0.34 -0.05,-0.1 -0.05,-0.24 -0.05,-0.39 0.05,-0.14 0.14,-0.29 0.24,-0.39 0.1,-0.09 0.24,-0.2 0.44,-0.2 0.2,-0.05 0.39,-0.05 0.58,0 0.2,0.05 0.39,0.14 0.53,0.24 0.14,0.1 0.29,0.24 0.34,0.44 0.05,0.14 0.05,0.29 0.05,0.48 l -0.39,-0.05 c 0,-0.2 -0.05,-0.39 -0.14,-0.48 -0.05,-0.14 -0.24,-0.2 -0.48,-0.29 -0.2,-0.05 -0.39,-0.05 -0.53,0.05 -0.14,0.05 -0.2,0.14 -0.24,0.24 0,0.14 0,0.24 0.05,0.29 0.1,0.1 0.24,0.24 0.53,0.39 0.34,0.14 0.53,0.24 0.63,0.34 0.14,0.1 0.24,0.24 0.34,0.39 0.05,0.14 0.05,0.29 0,0.44 -0.05,0.14 -0.1,0.29 -0.24,0.44 -0.1,0.1 -0.29,0.2 -0.44,0.24 -0.2,0 -0.39,0 -0.63,-0.05 -0.24,-0.05 -0.48,-0.14 -0.63,-0.29 -0.2,-0.1 -0.29,-0.24 -0.34,-0.44 -0.12,-0.19 -0.12,-0.39 -0.07,-0.59 z"
   id="path239" />
			<path
   class="st17"
   d="m 130.84,18.04 c 2.96,1.16 4.8,1.65 8.68,1.79 3.93,0.14 6.84,-0.29 9.75,-1.07"
   id="path241" />
			<path
   class="st19"
   d="m 136.47,31.29 -0.44,-0.05 0.2,-2.38 c -0.14,0.1 -0.24,0.14 -0.44,0.24 -0.2,0.05 -0.34,0.1 -0.44,0.14 V 28.9 c 0.24,-0.1 0.48,-0.2 0.63,-0.34 0.2,-0.14 0.34,-0.24 0.44,-0.39 l 0.24,0.05 z m 1.16,-0.59 0.39,-0.05 c 0.05,0.2 0.1,0.34 0.2,0.39 0.1,0.1 0.2,0.14 0.39,0.14 0.1,0 0.24,-0.05 0.34,-0.1 0.1,-0.05 0.14,-0.1 0.24,-0.2 0.05,-0.1 0.1,-0.2 0.14,-0.34 0.05,-0.14 0.1,-0.29 0.1,-0.48 0,0 0,0 0,-0.05 -0.1,0.1 -0.2,0.2 -0.34,0.29 -0.2,0.05 -0.34,0.1 -0.48,0.1 -0.29,-0.05 -0.53,-0.14 -0.73,-0.34 -0.2,-0.14 -0.29,-0.44 -0.29,-0.73 0.05,-0.29 0.14,-0.53 0.34,-0.73 0.24,-0.2 0.48,-0.29 0.78,-0.24 0.24,0 0.44,0.05 0.63,0.14 0.2,0.14 0.29,0.29 0.39,0.48 0.1,0.2 0.14,0.48 0.14,0.87 -0.05,0.39 -0.1,0.73 -0.2,0.92 -0.1,0.24 -0.24,0.44 -0.44,0.53 -0.2,0.1 -0.44,0.14 -0.68,0.14 -0.24,0 -0.48,-0.1 -0.63,-0.2 -0.19,-0.1 -0.29,-0.29 -0.29,-0.54 z m 1.75,-1.3 c 0,-0.2 -0.05,-0.39 -0.14,-0.53 -0.14,-0.1 -0.29,-0.2 -0.48,-0.2 -0.2,0 -0.34,0.05 -0.48,0.2 -0.14,0.15 -0.2,0.29 -0.24,0.53 0,0.2 0.05,0.34 0.2,0.48 0.14,0.1 0.29,0.2 0.48,0.2 0.19,0 0.34,-0.05 0.48,-0.2 0.13,-0.1 0.18,-0.24 0.18,-0.48 z m 0.83,1.3 h 0.44 c 0.05,0.2 0.14,0.34 0.24,0.44 0.1,0.1 0.24,0.14 0.44,0.14 0.2,0 0.39,-0.1 0.53,-0.24 0.1,-0.1 0.2,-0.29 0.2,-0.53 0,-0.2 -0.1,-0.39 -0.2,-0.48 -0.14,-0.14 -0.34,-0.2 -0.53,-0.2 -0.14,0 -0.29,0.05 -0.39,0.1 -0.09,0.05 -0.2,0.1 -0.24,0.2 l -0.39,-0.05 0.29,-1.55 h 1.75 v 0.34 h -1.41 l -0.14,0.82 c 0.2,-0.14 0.39,-0.2 0.63,-0.2 0.29,0 0.53,0.1 0.78,0.29 0.2,0.2 0.29,0.44 0.29,0.73 0,0.24 -0.1,0.48 -0.24,0.68 -0.24,0.29 -0.53,0.39 -0.92,0.39 -0.29,0 -0.58,-0.05 -0.78,-0.24 -0.21,-0.15 -0.31,-0.34 -0.35,-0.64 z m 2.61,-0.04 0.44,-0.05 c 0.05,0.2 0.14,0.34 0.24,0.44 0.14,0.1 0.29,0.14 0.44,0.1 0.24,0 0.39,-0.05 0.53,-0.2 0.14,-0.14 0.2,-0.34 0.2,-0.58 -0.05,-0.2 -0.1,-0.39 -0.24,-0.48 -0.14,-0.1 -0.34,-0.2 -0.53,-0.14 -0.14,0 -0.24,0 -0.39,0.1 -0.1,0.05 -0.14,0.14 -0.24,0.2 h -0.39 l 0.29,-1.6 1.7,-0.1 v 0.39 l -1.36,0.05 -0.14,0.82 c 0.2,-0.14 0.39,-0.2 0.63,-0.2 0.29,-0.05 0.53,0.05 0.78,0.24 0.2,0.14 0.34,0.39 0.34,0.68 0,0.29 -0.1,0.53 -0.24,0.73 -0.2,0.29 -0.53,0.39 -0.87,0.44 -0.34,0 -0.58,-0.05 -0.78,-0.2 -0.26,-0.16 -0.36,-0.4 -0.41,-0.64 z"
   id="path243" />
		</g>
	</g>
</g>
</svg>
